<svg id="Laag_1" data-name="Laag 1" xmlns="http://www.w3.org/2000/svg" viewBox="0 0 1000 222.68"><defs><style>.cls-1{fill:#a2c037;}.cls-2{fill:#e09d49;}.cls-3{fill:#edd13a;}.cls-4{fill:#6ab9ec;}.cls-5{fill:#4c793d;}.cls-6{fill:#949130;}.cls-7{fill:#466124;}.cls-8{fill:#5e4f45;}.cls-9{fill:#344a1a;}.cls-10{fill:#bc7d23;}.cls-11{fill:#43310d;}.cls-12{fill:#9baa31;}.cls-13,.cls-14{fill:#222221;}.cls-13{stroke:#222221;stroke-miterlimit:10;stroke-width:0.25px;}</style></defs><title>Logo CMYK lang</title><path class="cls-1" d="M124.27,74.07a13,13,0,1,1-13-13A13,13,0,0,1,124.27,74.07Z"/><circle class="cls-2" cx="148.58" cy="111.33" r="13.01"/><circle class="cls-3" cx="111.28" cy="148.6" r="12.99"/><path class="cls-4" d="M87.11,111.33a13,13,0,1,1-13-13A13,13,0,0,1,87.11,111.33Z"/><path class="cls-4" d="M41,181.68A80.84,80.84,0,0,1,41,41a80.93,80.93,0,0,0-4.51,70.34A80.91,80.91,0,0,0,41,181.68Z"/><path class="cls-5" d="M111.33,36.48a81,81,0,0,0-39.82,35,81,81,0,0,0-35,39.82A80.93,80.93,0,0,1,41,41a80.93,80.93,0,0,1,70.34-4.51Z"/><path class="cls-1" d="M181.68,41a80.91,80.91,0,0,0-70.35-4.53A80.93,80.93,0,0,0,41,41a80.84,80.84,0,0,1,140.68,0Z"/><path class="cls-6" d="M192.16,80.82a80.48,80.48,0,0,1-6,30.51,81.06,81.06,0,0,0-35-39.82,81,81,0,0,0-39.82-35A80.91,80.91,0,0,1,181.68,41,80.3,80.3,0,0,1,192.16,80.82Z"/><path class="cls-7" d="M151.15,71.51A79.89,79.89,0,0,0,114,61.09l-1.24,0h-2.77l-1.24,0A79.89,79.89,0,0,0,71.51,71.51a81,81,0,0,1,39.82-35A81,81,0,0,1,151.15,71.51Z"/><path class="cls-2" d="M222.68,111.33a80.75,80.75,0,0,1-41,70.34,80.89,80.89,0,0,0,4.53-70.34A80.91,80.91,0,0,0,181.68,41,80.76,80.76,0,0,1,222.68,111.33Z"/><path class="cls-8" d="M186.19,111.33a81.06,81.06,0,0,1-35,39.82A80,80,0,0,0,161.59,114c0-.41,0-.82,0-1.24s0-.92,0-1.39,0-.93,0-1.39,0-.83,0-1.24a80,80,0,0,0-10.44-37.19A81.06,81.06,0,0,1,186.19,111.33Z"/><path class="cls-9" d="M161.59,108.7A50.35,50.35,0,0,0,114,61.09a79.89,79.89,0,0,1,37.19,10.43A80,80,0,0,1,161.59,108.7Z"/><path class="cls-10" d="M192.16,141.85a80.24,80.24,0,0,1-10.49,39.82,80.89,80.89,0,0,1-70.34,4.53,81.06,81.06,0,0,0,39.82-35,81.06,81.06,0,0,0,35-39.82A80.44,80.44,0,0,1,192.16,141.85Z"/><path class="cls-8" d="M151.15,151.15a81.06,81.06,0,0,1-39.82,35,81.06,81.06,0,0,1-39.82-35,80,80,0,0,0,37.19,10.44l1.24,0h2.77l1.24,0A80,80,0,0,0,151.15,151.15Z"/><path class="cls-11" d="M161.59,114a80,80,0,0,1-10.44,37.19A80,80,0,0,1,114,161.59,50.36,50.36,0,0,0,161.59,114Z"/><path class="cls-3" d="M181.67,181.67a80.82,80.82,0,0,1-140.66,0,80.91,80.91,0,0,0,70.32,4.51,80.89,80.89,0,0,0,70.34-4.53Z"/><path class="cls-12" d="M111.33,186.19A80.91,80.91,0,0,1,41,181.68a80.91,80.91,0,0,1-4.53-70.35,81,81,0,0,0,35,39.82A81.06,81.06,0,0,0,111.33,186.19Z"/><path class="cls-11" d="M108.7,161.59a80,80,0,0,1-37.19-10.44A79.89,79.89,0,0,1,61.09,114,50.35,50.35,0,0,0,108.7,161.59Z"/><path class="cls-7" d="M61.09,114a79.89,79.89,0,0,0,10.43,37.19,81,81,0,0,1-35-39.82,81,81,0,0,1,35-39.82A79.89,79.89,0,0,0,61.09,108.7c0,.41,0,.82,0,1.24s0,.92,0,1.39,0,.93,0,1.39S61.07,113.55,61.09,114Z"/><path class="cls-9" d="M108.7,61.09A50.34,50.34,0,0,0,61.09,108.7,79.89,79.89,0,0,1,71.51,71.51,79.89,79.89,0,0,1,108.7,61.09Z"/><path class="cls-13" d="M277.23,37a44.38,44.38,0,0,1,18.3,3.51,37.31,37.31,0,0,1,20.63,22.11,43,43,0,0,1,0,29.12,37.45,37.45,0,0,1-7.67,12.81,38.54,38.54,0,0,1-13,9.15,44.41,44.41,0,0,1-18.3,3.51H265.65a4.17,4.17,0,0,1-4.17-4.17V41.15A4.17,4.17,0,0,1,265.65,37ZM272,45.31a2,2,0,0,0-1.52.66,2.12,2.12,0,0,0-.61,1.47v59.36a2.08,2.08,0,0,0,2,2h5.39A37.17,37.17,0,0,0,292,106.15a28.77,28.77,0,0,0,16.36-17.33,35.31,35.31,0,0,0,0-23.33,29.21,29.21,0,0,0-6-10.22A30,30,0,0,0,292,48.06a36.6,36.6,0,0,0-14.79-2.74Z"/><path class="cls-13" d="M330.19,91a33,33,0,0,1,1.58-10.57,28,28,0,0,1,4.32-8.23,25.5,25.5,0,0,1,10-7.78,31.33,31.33,0,0,1,12.65-2.59,30.13,30.13,0,0,1,9.86,1.58,25.51,25.51,0,0,1,7.88,4.27A19.87,19.87,0,0,1,381.67,74a16.9,16.9,0,0,1,1.88,7.83,17.28,17.28,0,0,1-1.83,7.83A19,19,0,0,1,376.54,96a25.67,25.67,0,0,1-8.13,4.27,33.93,33.93,0,0,1-10.67,1.58,26.35,26.35,0,0,1-7.06-.86,29.3,29.3,0,0,1-5.49-2.08A22.88,22.88,0,0,1,338.63,94a21.78,21.78,0,0,0,2.34,8,17.79,17.79,0,0,0,4.57,5.59,19,19,0,0,0,6,3.25,22.15,22.15,0,0,0,6.86,1.07,21.52,21.52,0,0,0,8.74-1.83,7.24,7.24,0,0,1,.91-.3,3.79,3.79,0,0,1,.92-.1,4.17,4.17,0,0,1,4.17,4.17,4,4,0,0,1-.71,2.34,4.43,4.43,0,0,1-1.83,1.53,29.61,29.61,0,0,1-12.2,2.54,30.9,30.9,0,0,1-10.27-1.78,25.71,25.71,0,0,1-9-5.44,28,28,0,0,1-6.45-9.15A31,31,0,0,1,330.19,91Zm28.46-20.84a22.49,22.49,0,0,0-6.3.92,21.9,21.9,0,0,0-5.64,2.49,14.82,14.82,0,0,0-4.06,3.71,7.56,7.56,0,0,0-1.58,4.57A7.41,7.41,0,0,0,342.49,86a14.88,14.88,0,0,0,3.81,3.76,20.36,20.36,0,0,0,5.59,2.69,24.14,24.14,0,0,0,14-.05,17.07,17.07,0,0,0,5.18-2.74,11.1,11.1,0,0,0,3.1-3.76,9.33,9.33,0,0,0,1-4.12,9.06,9.06,0,0,0-.91-3.66,11.54,11.54,0,0,0-2.9-3.81,16.59,16.59,0,0,0-5.13-3A21.15,21.15,0,0,0,358.65,70.11Z"/><path class="cls-13" d="M433.35,117.07a3.73,3.73,0,0,1-2.29-.92,3.15,3.15,0,0,1-1.17-2.64,3.58,3.58,0,0,1,.61-2l45.64-66.17H434.07a3.85,3.85,0,0,1-2.9-1.22A4.1,4.1,0,0,1,430,41.15a3.77,3.77,0,0,1,1.17-2.84,4,4,0,0,1,2.9-1.12h49.5a3.59,3.59,0,0,1,2,.61,3.49,3.49,0,0,1,1.52,2.95,3.58,3.58,0,0,1-.61,2l-45.64,66.17h42.79a4,4,0,0,1,2.9,1.12,3.9,3.9,0,0,1,1.17,2.95,4,4,0,0,1-4.06,4.07Z"/><path class="cls-13" d="M525.34,120.22a30.9,30.9,0,0,1-10.27-1.78,25.71,25.71,0,0,1-9-5.44,28,28,0,0,1-6.45-9.15A31,31,0,0,1,497.08,91,31.57,31.57,0,0,1,499.52,78a26.11,26.11,0,0,1,15.55-14.48,30.9,30.9,0,0,1,10.27-1.78,31.21,31.21,0,0,1,10.37,1.78,26.16,26.16,0,0,1,9,5.39,26.85,26.85,0,0,1,6.4,9.1A31.57,31.57,0,0,1,553.6,91a31.56,31.56,0,0,1-2.44,12.91A27,27,0,0,1,544.7,113a26.24,26.24,0,0,1-9.1,5.44A30.91,30.91,0,0,1,525.34,120.22Zm0-8.33a22.87,22.87,0,0,0,7.37-1.22,17.62,17.62,0,0,0,6.4-3.81,18.74,18.74,0,0,0,4.47-6.56A23.89,23.89,0,0,0,545.26,91a23.9,23.9,0,0,0-1.68-9.35,18.24,18.24,0,0,0-4.47-6.5,18,18,0,0,0-6.4-3.76,22.87,22.87,0,0,0-14.74,0,18,18,0,0,0-6.4,3.76,18.24,18.24,0,0,0-4.47,6.5A23.87,23.87,0,0,0,505.42,91a23.23,23.23,0,0,0,1.73,9.35,19.28,19.28,0,0,0,4.52,6.56,17.68,17.68,0,0,0,6.35,3.81A22.4,22.4,0,0,0,525.34,111.89Z"/><path class="cls-13" d="M575.86,114a4.17,4.17,0,1,1-8.33,0V90.85A31.56,31.56,0,0,1,570,77.94a26.12,26.12,0,0,1,15.55-14.48,30.91,30.91,0,0,1,10.27-1.78,29.84,29.84,0,0,1,12.4,2.57,4.31,4.31,0,0,1,1.68,1.54,4.22,4.22,0,0,1-.56,5.24,4,4,0,0,1-2.95,1.23,4.18,4.18,0,0,1-1.73-.32A20.94,20.94,0,0,0,595.78,70a22.7,22.7,0,0,0-7.42,1.22A17.74,17.74,0,0,0,577.53,81.5a23.9,23.9,0,0,0-1.68,9.35Z"/><path class="cls-13" d="M647.61,120.12a30.88,30.88,0,0,1-10.27-1.78,25.74,25.74,0,0,1-9-5.44,28,28,0,0,1-6.45-9.15,31,31,0,0,1-2.49-12.91,31.61,31.61,0,0,1,2.44-12.91,26.12,26.12,0,0,1,15.55-14.48,30.88,30.88,0,0,1,10.27-1.78A31.22,31.22,0,0,1,658,63.46a26.18,26.18,0,0,1,9,5.39,26.85,26.85,0,0,1,6.4,9.1,31.61,31.61,0,0,1,2.44,12.91v25.61a31.62,31.62,0,0,1-2.44,12.91,27.05,27.05,0,0,1-6.46,9.15,26.27,26.27,0,0,1-9.1,5.44,30.92,30.92,0,0,1-10.27,1.78,4.17,4.17,0,1,1,0-8.33,22.89,22.89,0,0,0,7.37-1.22,17.63,17.63,0,0,0,6.4-3.81,18.76,18.76,0,0,0,4.47-6.56,23.9,23.9,0,0,0,1.68-9.35V112.4a26.93,26.93,0,0,1-9.25,5.79A30.39,30.39,0,0,1,647.61,120.12Zm0-8.33a22.89,22.89,0,0,0,7.37-1.22,17.61,17.61,0,0,0,6.4-3.81,18.85,18.85,0,0,0,4.47-6.51,23.8,23.8,0,0,0,1.68-9.4,23.9,23.9,0,0,0-1.68-9.35,18.22,18.22,0,0,0-4.47-6.5,18,18,0,0,0-6.4-3.76,22.87,22.87,0,0,0-14.74,0,18,18,0,0,0-6.4,3.76,18.22,18.22,0,0,0-4.47,6.5,23.9,23.9,0,0,0-1.68,9.35,23.11,23.11,0,0,0,1.73,9.4,19.37,19.37,0,0,0,4.52,6.51,17.63,17.63,0,0,0,6.35,3.81A22.41,22.41,0,0,0,647.61,111.79Z"/><path class="cls-13" d="M731,64.32a3.85,3.85,0,0,1,2.44,3.76,4.17,4.17,0,0,1-4.17,4.17,4.27,4.27,0,0,1-1.73-.41A21.75,21.75,0,0,0,718.66,70a22.72,22.72,0,0,0-7.42,1.22A17.75,17.75,0,0,0,700.41,81.5a23.9,23.9,0,0,0-1.68,9.35,23.8,23.8,0,0,0,1.68,9.4,18.85,18.85,0,0,0,4.47,6.51,17.66,17.66,0,0,0,6.35,3.81,22.72,22.72,0,0,0,7.42,1.22A21.52,21.52,0,0,0,727.4,110a4.5,4.5,0,0,1,1.83-.41,4.17,4.17,0,0,1,3.45,6.5,4.42,4.42,0,0,1-1.83,1.52,28.71,28.71,0,0,1-12.2,2.54,30.88,30.88,0,0,1-10.27-1.78,25.74,25.74,0,0,1-9-5.44,28,28,0,0,1-6.45-9.15,31,31,0,0,1-2.49-12.91,31.56,31.56,0,0,1,2.44-12.91,26.11,26.11,0,0,1,15.55-14.48,30.88,30.88,0,0,1,10.27-1.78,32.29,32.29,0,0,1,6.25.61A24.92,24.92,0,0,1,731,64.32Z"/><path class="cls-13" d="M745.59,49.94a4.46,4.46,0,0,1,1-2.83,4.5,4.5,0,0,1,6.3,0,4.47,4.47,0,0,1,1,2.83,4.34,4.34,0,0,1-1,2.73,4.5,4.5,0,0,1-6.3,0A4.32,4.32,0,0,1,745.59,49.94Zm0,17.84a4.17,4.17,0,1,1,8.33,0V95a19.73,19.73,0,0,0,2.69,9.91,21.66,21.66,0,0,0,7.06,7.57,3.65,3.65,0,0,1,1.47,1.58,4.56,4.56,0,0,1,.46,2,4.16,4.16,0,0,1-1.17,2.9,3.77,3.77,0,0,1-2.9,1.27,5.78,5.78,0,0,1-3-1,18.21,18.21,0,0,1-3.1-2.44,34.61,34.61,0,0,1-2.84-3.1,31.64,31.64,0,0,1-5.69-10.27,24.33,24.33,0,0,1-1.32-7.93Z"/><path class="cls-13" d="M785.54,114a4.17,4.17,0,1,1-8.33,0V90.85a31.56,31.56,0,0,1,2.44-12.91A26.11,26.11,0,0,1,795.2,63.46a30.91,30.91,0,0,1,10.27-1.78,29.84,29.84,0,0,1,12.4,2.57,4.31,4.31,0,0,1,1.68,1.54A4.22,4.22,0,0,1,819,71,4,4,0,0,1,816,72.25a4.19,4.19,0,0,1-1.73-.32A20.94,20.94,0,0,0,805.46,70,22.7,22.7,0,0,0,798,71.23,17.73,17.73,0,0,0,787.22,81.5a23.85,23.85,0,0,0-1.68,9.35Z"/><path class="cls-13" d="M868,80.48a29.92,29.92,0,0,1,7.78,3.41,25.15,25.15,0,0,1,6.5,5.79,27.38,27.38,0,0,1,4.42,8.23,32.91,32.91,0,0,1,1.63,10.72V114a4.17,4.17,0,1,1-8.33,0v-5.39a23.9,23.9,0,0,0-1.68-9.35,18.28,18.28,0,0,0-4.47-6.5,18,18,0,0,0-6.4-3.76,23,23,0,0,0-14.79,0,17.75,17.75,0,0,0-10.82,10.27,23.9,23.9,0,0,0-1.68,9.35V114a4.17,4.17,0,1,1-8.33,0V40.23a4.17,4.17,0,1,1,8.33,0V82a2.52,2.52,0,0,0,.71,1.78,2.39,2.39,0,0,0,1.83.76A2.72,2.72,0,0,0,844,84a37.79,37.79,0,0,1,8.54-3.66A4.15,4.15,0,0,0,855,78.75l10.67-15.45a4,4,0,0,1,3.45-1.73,3.9,3.9,0,0,1,3,1.27,4,4,0,0,1,.35,5.24l-5.79,8.54a2.91,2.91,0,0,0-.51,1.52A2.15,2.15,0,0,0,868,80.48Z"/><path class="cls-13" d="M900.29,91a33,33,0,0,1,1.57-10.57,28,28,0,0,1,4.32-8.23,25.5,25.5,0,0,1,10-7.78,31.33,31.33,0,0,1,12.66-2.59,30.13,30.13,0,0,1,9.86,1.58,25.5,25.5,0,0,1,7.88,4.27A19.81,19.81,0,0,1,951.77,74a16.86,16.86,0,0,1,1.88,7.83,17.26,17.26,0,0,1-1.83,7.83A19,19,0,0,1,946.64,96a25.68,25.68,0,0,1-8.13,4.27,33.92,33.92,0,0,1-10.67,1.58,26.33,26.33,0,0,1-7.06-.86,29.34,29.34,0,0,1-5.49-2.08A22.93,22.93,0,0,1,908.72,94a21.87,21.87,0,0,0,2.34,8,17.82,17.82,0,0,0,4.58,5.59,19,19,0,0,0,6,3.25,22.15,22.15,0,0,0,6.86,1.07,21.51,21.51,0,0,0,8.74-1.83,7.25,7.25,0,0,1,.92-.3,3.79,3.79,0,0,1,.92-.1,4.17,4.17,0,0,1,4.17,4.17,4,4,0,0,1-.71,2.34,4.45,4.45,0,0,1-1.83,1.53,29.63,29.63,0,0,1-12.2,2.54,30.91,30.91,0,0,1-10.27-1.78,25.71,25.71,0,0,1-9-5.44,28,28,0,0,1-6.45-9.15A31,31,0,0,1,900.29,91Zm28.46-20.84a22.49,22.49,0,0,0-6.3.92,21.89,21.89,0,0,0-5.64,2.49,14.85,14.85,0,0,0-4.07,3.71,7.55,7.55,0,0,0-1.58,4.57A7.4,7.4,0,0,0,912.59,86a14.86,14.86,0,0,0,3.81,3.76A20.32,20.32,0,0,0,922,92.48a24.14,24.14,0,0,0,14-.05,17.09,17.09,0,0,0,5.18-2.74,11.11,11.11,0,0,0,3.1-3.76,9.35,9.35,0,0,0,1-4.12,9,9,0,0,0-.92-3.66,11.5,11.5,0,0,0-2.9-3.81,16.58,16.58,0,0,0-5.13-3A21.17,21.17,0,0,0,928.75,70.11Z"/><path class="cls-13" d="M967.57,40.33a4.17,4.17,0,1,1,8.33,0V91a23.25,23.25,0,0,0,1.73,9.35,19.32,19.32,0,0,0,4.52,6.56,17.67,17.67,0,0,0,6.35,3.81,22.39,22.39,0,0,0,7.32,1.22,4.17,4.17,0,1,1,0,8.33,30.91,30.91,0,0,1-10.27-1.78,25.68,25.68,0,0,1-9-5.44,28,28,0,0,1-6.45-9.15A31,31,0,0,1,967.57,91Z"/><path class="cls-14" d="M273.43,162.47l9.83,23.71h-1.84l-2.86-6.93H266.09l-2.83,6.93h-1.87l9.83-23.71Zm-1.37,2.32q-5.36,13-5.38,13H278l-5.36-13a5.37,5.37,0,0,1-.29-1.15Z"/><path class="cls-14" d="M302.68,162.47l9.83,23.71h-1.84l-2.86-6.93H295.35l-2.83,6.93h-1.87l9.83-23.71Zm-1.37,2.32q-5.36,13-5.38,13h11.29l-5.36-13a5.37,5.37,0,0,1-.29-1.15Z"/><path class="cls-14" d="M322.44,162.47,337,183.19a4.74,4.74,0,0,1,.47,1.12V162.47h1.64v23.71h-2.09L322.93,166a5.2,5.2,0,0,1-.5-1.12v21.3H320.8V162.47Z"/><path class="cls-14" d="M365.79,163.72A10.75,10.75,0,0,1,370,168h-1.84a9.71,9.71,0,0,0-1.22-1.48,11,11,0,0,0-14.51,0,11.82,11.82,0,0,0,0,15.57,11,11,0,0,0,14.51,0,9.51,9.51,0,0,0,1.71-2.3v-3.64h-6.37v-1.4h8V186.2h-1.62v-4.52a3.42,3.42,0,0,1-1,1.87,11.64,11.64,0,0,1-8,2.92,12.35,12.35,0,0,1-4.59-.86,11.41,11.41,0,0,1-3.77-2.41,11.06,11.06,0,0,1-2.54-3.85,14.08,14.08,0,0,1,0-10.08,11.08,11.08,0,0,1,2.54-3.85,11.43,11.43,0,0,1,3.77-2.41,12.35,12.35,0,0,1,4.59-.86A12.14,12.14,0,0,1,365.79,163.72Z"/><path class="cls-14" d="M394,162.47v1.46H380.9v9.54h11.68v1.4H380.9v9.76H394v1.55H379.26V162.47Z"/><path class="cls-14" d="M411.19,162.47a7.47,7.47,0,0,1,5.49,2,6.83,6.83,0,0,1,2,5.06,6.75,6.75,0,0,1-2.1,5.05,7.49,7.49,0,0,1-5.43,2h-6.5v9.54H403V162.47Zm-6.5,12.62H411a6.27,6.27,0,0,0,4.38-1.6,5.43,5.43,0,0,0,0-7.89A6.15,6.15,0,0,0,411,164h-6.34Z"/><path class="cls-14" d="M435.9,162.47l9.83,23.71h-1.84L441,179.25H428.56l-2.83,6.93h-1.87l9.83-23.71Zm-1.37,2.32q-5.36,13-5.38,13h11.29l-5.36-13a5.37,5.37,0,0,1-.29-1.15Z"/><path class="cls-14" d="M466.39,162.87a12.46,12.46,0,0,1,3.63,1.62l-.79,1.35a10.91,10.91,0,0,0-3.25-1.51,13,13,0,0,0-4.2-.63,7.27,7.27,0,0,0-4.27,1.33,3.92,3.92,0,0,0-1.69,3.17,3.61,3.61,0,0,0,2,3.49,21.38,21.38,0,0,0,5.1,1.36,25.87,25.87,0,0,1,5.09,1.27,6,6,0,0,1,3.07,2.69,5.45,5.45,0,0,1,.51,4,6.16,6.16,0,0,1-3.33,4.34,12.28,12.28,0,0,1-5.31,1.15,17.54,17.54,0,0,1-5.24-.77,12.64,12.64,0,0,1-4.21-2l.77-1.46a10.08,10.08,0,0,0,3.58,1.89,15.48,15.48,0,0,0,5.18.77,9.25,9.25,0,0,0,4.75-1,4.9,4.9,0,0,0,1.44-1.39,4.5,4.5,0,0,0,.77-1.87,4.34,4.34,0,0,0-.42-2.78,4.05,4.05,0,0,0-2.13-1.88,29,29,0,0,0-5-1.29,25.72,25.72,0,0,1-5.29-1.45,4.82,4.82,0,0,1-2.3-2,5.1,5.1,0,0,1-.65-3,5.67,5.67,0,0,1,2.09-4.32,8.89,8.89,0,0,1,5.33-1.69A14.09,14.09,0,0,1,466.39,162.87Z"/><path class="cls-14" d="M498.56,162.47v1.46h-8.37v22.25h-1.64V163.93H480.2v-1.46Z"/><path class="cls-14" d="M521.83,162.47v1.46H508.71v9.54h11.68v1.4H508.71v9.76h13.12v1.55H507.07V162.47Z"/><path class="cls-14" d="M547.63,185q.25,0,15.59-20.29a3.09,3.09,0,0,1,1.12-.7H548.52v-1.55H566v1.62q-.25,0-15,19.82a2.88,2.88,0,0,1-1.12.72H566v1.55H547.63Z"/><path class="cls-14" d="M594.46,165.44a11.08,11.08,0,0,1,2.54,3.85,14.08,14.08,0,0,1,0,10.08,11.06,11.06,0,0,1-2.54,3.85,11.41,11.41,0,0,1-3.77,2.41,12.74,12.74,0,0,1-9.18,0,11.41,11.41,0,0,1-3.77-2.41,11.06,11.06,0,0,1-2.54-3.85,14.08,14.08,0,0,1,0-10.08,11.08,11.08,0,0,1,2.54-3.85,11.43,11.43,0,0,1,3.77-2.41,12.74,12.74,0,0,1,9.18,0A11.43,11.43,0,0,1,594.46,165.44Zm-8.36-1.62a10,10,0,0,0-7.27,2.72,11.89,11.89,0,0,0,0,15.57,11.06,11.06,0,0,0,14.53,0,11.82,11.82,0,0,0,0-15.57A10,10,0,0,0,586.1,163.82Z"/><path class="cls-14" d="M614.88,162.47a8,8,0,0,1,5.53,1.8,6.62,6.62,0,0,1,.6,8.87,7,7,0,0,1-3.84,2.28l2.68,5.4,2.65,5.35h-1.82l-2.16-4.4q-2-4-3-6.11a6.23,6.23,0,0,1-.65,0h-6.5v10.48h-1.71V162.47Zm-6.5,11.68h6.34a6.69,6.69,0,0,0,4.4-1.38,4.56,4.56,0,0,0,1.68-3.7,4.49,4.49,0,0,0-1.68-3.68,6.77,6.77,0,0,0-4.4-1.36h-6.34Z"/><path class="cls-14" d="M648.69,163.72a10.76,10.76,0,0,1,4.24,4.31h-1.85a9.7,9.7,0,0,0-1.21-1.48,11,11,0,0,0-14.51,0,11.82,11.82,0,0,0,0,15.57,11,11,0,0,0,14.51,0,9.54,9.54,0,0,0,1.71-2.3v-3.64h-6.37v-1.4h8V186.2h-1.62v-4.52a3.42,3.42,0,0,1-1,1.87,11.64,11.64,0,0,1-8,2.92,12.34,12.34,0,0,1-4.59-.86,11.39,11.39,0,0,1-3.77-2.41,11,11,0,0,1-2.54-3.85,14.08,14.08,0,0,1,0-10.08,11,11,0,0,1,2.54-3.85A11.42,11.42,0,0,1,638,163a12.34,12.34,0,0,1,4.59-.86A12.14,12.14,0,0,1,648.69,163.72Z"/><path class="cls-14" d="M681.29,162.47v23.71h-1.62V162.47Z"/><path class="cls-14" d="M692.34,162.47l14.6,20.72a4.75,4.75,0,0,1,.47,1.12V162.47h1.64v23.71H707L692.84,166a5.22,5.22,0,0,1-.49-1.12v21.3H690.7V162.47Z"/><path class="cls-14" d="M747.81,162.47v16.78a8.27,8.27,0,0,1-.61,3.27,5.6,5.6,0,0,1-1.65,2.26,7.53,7.53,0,0,1-2.32,1.26,8.48,8.48,0,0,1-2.71.43,7.9,7.9,0,0,1-5.67-2.16l.74-1.3a6.77,6.77,0,0,0,4.82,1.91,5.57,5.57,0,0,0,4.29-1.61,5.94,5.94,0,0,0,1.49-4.22q0-5.85,0-16.63Z"/><path class="cls-14" d="M776.51,165.44a11,11,0,0,1,2.54,3.85,14,14,0,0,1,0,10.08,11,11,0,0,1-2.54,3.85,11.39,11.39,0,0,1-3.77,2.41,12.73,12.73,0,0,1-9.18,0,11.39,11.39,0,0,1-3.77-2.41,11,11,0,0,1-2.54-3.85,14.08,14.08,0,0,1,0-10.08,11,11,0,0,1,2.54-3.85,11.42,11.42,0,0,1,3.77-2.41,12.73,12.73,0,0,1,9.18,0A11.42,11.42,0,0,1,776.51,165.44Zm-8.36-1.62a10,10,0,0,0-7.27,2.72,11.89,11.89,0,0,0,0,15.57,11.06,11.06,0,0,0,14.53,0,11.82,11.82,0,0,0,0-15.57A10,10,0,0,0,768.16,163.82Z"/><path class="cls-14" d="M789.71,162.47v13.68a8.71,8.71,0,0,0,2.32,6.18,7.71,7.71,0,0,0,11.34,0,8.71,8.71,0,0,0,2.32-6.18V162.47h1.66v13.9a9.93,9.93,0,0,1-2.8,7.22,9.59,9.59,0,0,1-13.7,0,9.94,9.94,0,0,1-2.8-7.22v-13.9Z"/><path class="cls-14" d="M816.92,162.47l7.65,22.09,0-.25a5.41,5.41,0,0,1,.09-.62,4.59,4.59,0,0,1,.13-.55q7.09-20.65,7.09-20.68h2.21l7.09,20.63a7.07,7.07,0,0,1,.25,1.46l7.65-22.09h2l-8.37,23.71h-2.16l-7.27-20.79a6.62,6.62,0,0,1-.25-1.17l-.25,1.15q-7.24,20.79-7.27,20.81h-2.16L815,162.47Z"/><path class="cls-14" d="M886.18,162.47a6.82,6.82,0,0,1,4.82,1.7,5.64,5.64,0,0,1,1.83,4.33,5.54,5.54,0,0,1-.92,3.08,5.36,5.36,0,0,1-2.36,2,6.35,6.35,0,0,1,3.18,2.38,6.28,6.28,0,0,1,1.16,3.67,6.3,6.3,0,0,1-6.66,6.5H876.84V162.47Zm-7.69,10.69h7.78a4.92,4.92,0,0,0,3.62-1.29,4.52,4.52,0,0,0,1.31-3.36,4.15,4.15,0,0,0-1.37-3.25,5.36,5.36,0,0,0-3.71-1.23h-7.63Zm0,11.47h8.84a4.67,4.67,0,0,0,3.67-1.41,5.11,5.11,0,0,0,1.26-3.54,5.16,5.16,0,0,0-1.38-3.63,4.91,4.91,0,0,0-3.79-1.5h-8.59Z"/><path class="cls-14" d="M903.62,162.47v13.68a8.71,8.71,0,0,0,2.32,6.18,7.71,7.71,0,0,0,11.34,0,8.71,8.71,0,0,0,2.32-6.18V162.47h1.66v13.9a9.93,9.93,0,0,1-2.8,7.22,9.59,9.59,0,0,1-13.7,0,9.94,9.94,0,0,1-2.8-7.22v-13.9Z"/><path class="cls-14" d="M930.76,162.47v13.68a8.71,8.71,0,0,0,2.32,6.18,7.71,7.71,0,0,0,11.34,0,8.71,8.71,0,0,0,2.32-6.18V162.47h1.66v13.9a9.93,9.93,0,0,1-2.8,7.22,9.59,9.59,0,0,1-13.7,0,9.94,9.94,0,0,1-2.8-7.22v-13.9Z"/><path class="cls-14" d="M965.11,162.47a8,8,0,0,1,5.53,1.8,6.62,6.62,0,0,1,.6,8.87,7,7,0,0,1-3.84,2.28l2.68,5.4,2.65,5.35h-1.82q-.2-.43-2.16-4.4t-3-6.11a6.21,6.21,0,0,1-.65,0h-6.5v10.48H956.9V162.47Zm-6.5,11.68H965a6.69,6.69,0,0,0,4.4-1.38,4.55,4.55,0,0,0,1.68-3.7,4.49,4.49,0,0,0-1.68-3.68A6.76,6.76,0,0,0,965,164h-6.34Z"/><path class="cls-14" d="M999.16,162.47v1.46h-8.37v22.25h-1.64V163.93H980.8v-1.46Z"/></svg>