<svg id="Laag_1" data-name="Laag 1" xmlns="http://www.w3.org/2000/svg" viewBox="0 0 1000 701.98"><defs><style>.cls-1,.cls-2{fill:#222221;}.cls-1{stroke:#222221;stroke-miterlimit:10;stroke-width:0.25px;}.cls-3{fill:#a2c037;}.cls-4{fill:#e2a24c;}.cls-5{fill:#eed43b;}.cls-6{fill:#6cbbed;}.cls-7{fill:#4c783c;}.cls-8{fill:#939230;}.cls-9{fill:#455f22;}.cls-10{fill:#5d4230;}.cls-11{fill:#354a1a;}.cls-12{fill:#bb7a24;}.cls-13{fill:#5e4f45;}.cls-14{fill:#40300c;}.cls-15{fill:#9baa31;}</style></defs><title>Logo CMYK</title><path class="cls-1" d="M21.45,427.36q14.17,0,24.77,4.75A50.51,50.51,0,0,1,74.16,462a58.91,58.91,0,0,1,3.44,19.68,58.68,58.68,0,0,1-3.44,19.75,50.7,50.7,0,0,1-10.39,17.34,52.18,52.18,0,0,1-17.55,12.39q-10.6,4.75-24.77,4.75H5.76a5.43,5.43,0,0,1-4-1.65,5.43,5.43,0,0,1-1.65-4V433a5.44,5.44,0,0,1,1.65-4,5.43,5.43,0,0,1,4-1.65ZM14.3,438.65a2.69,2.69,0,0,0-2.06.9,2.88,2.88,0,0,0-.83,2V521.9a2.82,2.82,0,0,0,2.75,2.75h7.29a50.33,50.33,0,0,0,20-3.65,39,39,0,0,0,22.15-23.46,47.75,47.75,0,0,0,2.68-15.83A48,48,0,0,0,63.63,466a39.55,39.55,0,0,0-8.19-13.83,40.64,40.64,0,0,0-14-9.77,49.55,49.55,0,0,0-20-3.72Z"/><path class="cls-1" d="M93.15,500.44a44.69,44.69,0,0,1,2.13-14.31A37.9,37.9,0,0,1,101.13,475a34.52,34.52,0,0,1,13.55-10.53,42.42,42.42,0,0,1,17.13-3.51,40.79,40.79,0,0,1,13.35,2.13,34.53,34.53,0,0,1,10.66,5.78,26.9,26.9,0,0,1,7,8.6,22.88,22.88,0,0,1,2.54,10.6,23.39,23.39,0,0,1-2.48,10.6,25.7,25.7,0,0,1-7,8.6,34.75,34.75,0,0,1-11,5.78,45.93,45.93,0,0,1-14.45,2.13,35.67,35.67,0,0,1-9.56-1.17,39.67,39.67,0,0,1-7.43-2.82,31,31,0,0,1-8.88-6.6,29.49,29.49,0,0,0,3.16,10.8,24.09,24.09,0,0,0,6.19,7.57,25.73,25.73,0,0,0,8.19,4.4,30,30,0,0,0,9.29,1.45,29.13,29.13,0,0,0,11.83-2.48,9.8,9.8,0,0,1,1.24-.41,5.14,5.14,0,0,1,1.24-.14,5.64,5.64,0,0,1,5.64,5.64,5.38,5.38,0,0,1-1,3.16,6,6,0,0,1-2.48,2.07,40.09,40.09,0,0,1-16.51,3.44,41.83,41.83,0,0,1-13.9-2.41,34.81,34.81,0,0,1-12.25-7.36,37.9,37.9,0,0,1-8.74-12.39A41.94,41.94,0,0,1,93.15,500.44Zm38.53-28.21a30.44,30.44,0,0,0-8.53,1.24,29.66,29.66,0,0,0-7.64,3.37,20.07,20.07,0,0,0-5.5,5,10.23,10.23,0,0,0-2.13,6.19,10,10,0,0,0,1.93,5.71,20.15,20.15,0,0,0,5.16,5.09,27.56,27.56,0,0,0,7.57,3.65,32.68,32.68,0,0,0,19-.07,23.11,23.11,0,0,0,7-3.72,15,15,0,0,0,4.2-5.09,12.64,12.64,0,0,0,1.38-5.57,12.27,12.27,0,0,0-1.24-5,15.62,15.62,0,0,0-3.92-5.16,22.47,22.47,0,0,0-7-4.06A28.63,28.63,0,0,0,131.68,472.23Z"/><path class="cls-1" d="M232.82,535.8a5.05,5.05,0,0,1-3.1-1.24,4.27,4.27,0,0,1-1.58-3.58,4.85,4.85,0,0,1,.83-2.75l61.79-89.59h-57a5.21,5.21,0,0,1-3.92-1.65,5.55,5.55,0,0,1-1.58-4,5.1,5.1,0,0,1,1.58-3.85,5.45,5.45,0,0,1,3.92-1.51h67a4.86,4.86,0,0,1,2.75.83,4.72,4.72,0,0,1,2.06,4,4.85,4.85,0,0,1-.83,2.75L243,524.79h57.94a5.46,5.46,0,0,1,3.92,1.51,5.27,5.27,0,0,1,1.58,4,5.41,5.41,0,0,1-5.5,5.51Z"/><path class="cls-1" d="M357.36,540.07a41.83,41.83,0,0,1-13.9-2.41,34.81,34.81,0,0,1-12.25-7.36,37.9,37.9,0,0,1-8.74-12.39,41.94,41.94,0,0,1-3.37-17.48,42.74,42.74,0,0,1,3.3-17.48,35.35,35.35,0,0,1,21.06-19.61,41.83,41.83,0,0,1,13.9-2.41,42.26,42.26,0,0,1,14,2.41,35.42,35.42,0,0,1,12.25,7.29A36.35,36.35,0,0,1,392.31,483a47.91,47.91,0,0,1,0,35,36.6,36.6,0,0,1-8.74,12.39,35.52,35.52,0,0,1-12.32,7.36A41.86,41.86,0,0,1,357.36,540.07Zm0-11.28a31,31,0,0,0,10-1.65A23.85,23.85,0,0,0,376,522a25.37,25.37,0,0,0,6.06-8.88,36.45,36.45,0,0,0,0-25.32A24.7,24.7,0,0,0,376,479a24.37,24.37,0,0,0-8.67-5.09,31,31,0,0,0-20,0,24.36,24.36,0,0,0-8.67,5.09,24.7,24.7,0,0,0-6.05,8.81,32.32,32.32,0,0,0-2.27,12.66,31.45,31.45,0,0,0,2.34,12.66,26.1,26.1,0,0,0,6.12,8.88,23.93,23.93,0,0,0,8.6,5.16A30.33,30.33,0,0,0,357.36,528.78Z"/><path class="cls-1" d="M425.75,531.67a5.64,5.64,0,1,1-11.28,0V500.3a42.73,42.73,0,0,1,3.3-17.48,35.36,35.36,0,0,1,21.06-19.61,41.85,41.85,0,0,1,13.9-2.41,40.39,40.39,0,0,1,16.79,3.47,5.84,5.84,0,0,1,2.27,2.08,5.71,5.71,0,0,1-.76,7.09,5.41,5.41,0,0,1-4,1.67,5.66,5.66,0,0,1-2.34-.43,28.35,28.35,0,0,0-12-2.59,30.74,30.74,0,0,0-10,1.65A24,24,0,0,0,428,487.64a32.36,32.36,0,0,0-2.27,12.66Z"/><path class="cls-1" d="M522.9,539.93a41.81,41.81,0,0,1-13.9-2.41,34.85,34.85,0,0,1-12.25-7.36A37.92,37.92,0,0,1,488,517.78a42,42,0,0,1-3.37-17.48,42.8,42.8,0,0,1,3.3-17.48A35.37,35.37,0,0,1,509,463.21a41.81,41.81,0,0,1,13.9-2.41,42.27,42.27,0,0,1,14,2.41,35.45,35.45,0,0,1,12.25,7.29,36.36,36.36,0,0,1,8.67,12.32,42.8,42.8,0,0,1,3.3,17.48V535a42.81,42.81,0,0,1-3.3,17.48,36.63,36.63,0,0,1-8.74,12.39,35.57,35.57,0,0,1-12.31,7.36,41.86,41.86,0,0,1-13.9,2.41,5.64,5.64,0,1,1,0-11.28,31,31,0,0,0,10-1.65,23.87,23.87,0,0,0,8.67-5.16,25.4,25.4,0,0,0,6.06-8.88A32.36,32.36,0,0,0,549.87,535v-5.51a36.46,36.46,0,0,1-12.52,7.84A41.14,41.14,0,0,1,522.9,539.93Zm0-11.28a31,31,0,0,0,10-1.65,23.85,23.85,0,0,0,8.67-5.16A25.53,25.53,0,0,0,547.6,513a36.64,36.64,0,0,0,0-25.39,24.67,24.67,0,0,0-6.06-8.81,24.37,24.37,0,0,0-8.67-5.09,31,31,0,0,0-20,0,24.31,24.31,0,0,0-8.67,5.09,24.67,24.67,0,0,0-6.06,8.81,32.36,32.36,0,0,0-2.27,12.66A31.29,31.29,0,0,0,498.27,513a26.22,26.22,0,0,0,6.12,8.81A23.88,23.88,0,0,0,513,527,30.34,30.34,0,0,0,522.9,528.65Z"/><path class="cls-1" d="M635.75,464.38a5.22,5.22,0,0,1,3.3,5.09,5.64,5.64,0,0,1-5.64,5.64,5.79,5.79,0,0,1-2.34-.55,29.45,29.45,0,0,0-12-2.48,30.76,30.76,0,0,0-10,1.65,24,24,0,0,0-14.65,13.9,36.64,36.64,0,0,0,0,25.39,25.53,25.53,0,0,0,6.06,8.81A23.91,23.91,0,0,0,609,527a30.76,30.76,0,0,0,10,1.65,29.13,29.13,0,0,0,11.83-2.48,6.09,6.09,0,0,1,2.48-.55,5.65,5.65,0,0,1,4.68,8.81,6,6,0,0,1-2.48,2.06,38.88,38.88,0,0,1-16.51,3.44,41.81,41.81,0,0,1-13.9-2.41,34.85,34.85,0,0,1-12.25-7.36,37.92,37.92,0,0,1-8.74-12.39,42,42,0,0,1-3.37-17.48,42.73,42.73,0,0,1,3.3-17.48,35.35,35.35,0,0,1,21.06-19.61,41.81,41.81,0,0,1,13.9-2.41,43.72,43.72,0,0,1,8.46.83A33.74,33.74,0,0,1,635.75,464.38Z"/><path class="cls-1" d="M655.56,444.91a6,6,0,0,1,1.38-3.83,6.1,6.1,0,0,1,8.53,0,6.06,6.06,0,0,1,1.37,3.83,5.87,5.87,0,0,1-1.37,3.69,6.09,6.09,0,0,1-8.53,0A5.85,5.85,0,0,1,655.56,444.91Zm0,24.15a5.64,5.64,0,1,1,11.28,0v36.88a26.71,26.71,0,0,0,3.65,13.42,29.33,29.33,0,0,0,9.57,10.25,5,5,0,0,1,2,2.13,6.17,6.17,0,0,1,.62,2.68,5.64,5.64,0,0,1-1.58,3.92,5.11,5.11,0,0,1-3.92,1.72,7.82,7.82,0,0,1-4.06-1.31,24.66,24.66,0,0,1-4.2-3.3,46.86,46.86,0,0,1-3.85-4.2,42.84,42.84,0,0,1-7.71-13.9,32.94,32.94,0,0,1-1.79-10.73Z"/><path class="cls-1" d="M709.64,531.67a5.64,5.64,0,1,1-11.28,0V500.3a42.73,42.73,0,0,1,3.3-17.48,35.35,35.35,0,0,1,21.06-19.61,41.85,41.85,0,0,1,13.9-2.41,40.4,40.4,0,0,1,16.79,3.47,5.84,5.84,0,0,1,2.27,2.08,5.71,5.71,0,0,1-.76,7.09,5.42,5.42,0,0,1-4,1.67,5.67,5.67,0,0,1-2.34-.43,28.35,28.35,0,0,0-12-2.59,30.74,30.74,0,0,0-10,1.65,24,24,0,0,0-14.65,13.9,32.28,32.28,0,0,0-2.27,12.66Z"/><path class="cls-1" d="M821.24,486.26a40.51,40.51,0,0,1,10.53,4.61,34,34,0,0,1,8.8,7.84,37.06,37.06,0,0,1,6,11.15,44.55,44.55,0,0,1,2.2,14.52v7.29a5.64,5.64,0,1,1-11.28,0v-7.29a32.36,32.36,0,0,0-2.27-12.66,24.74,24.74,0,0,0-6.05-8.81,24.41,24.41,0,0,0-8.67-5.09,31.18,31.18,0,0,0-20,0,24,24,0,0,0-14.65,13.9,32.36,32.36,0,0,0-2.27,12.66v7.29a5.64,5.64,0,1,1-11.28,0V431.77a5.64,5.64,0,1,1,11.28,0v56.56a3.42,3.42,0,0,0,1,2.41,3.23,3.23,0,0,0,2.48,1,3.68,3.68,0,0,0,1.79-.69,51.16,51.16,0,0,1,11.56-5,5.62,5.62,0,0,0,3.3-2.2L818.08,463a5.39,5.39,0,0,1,4.68-2.34,5.27,5.27,0,0,1,4.06,1.72,5.4,5.4,0,0,1,.48,7.09L819.45,481a3.94,3.94,0,0,0-.69,2.06A2.91,2.91,0,0,0,821.24,486.26Z"/><path class="cls-1" d="M865,500.44a44.69,44.69,0,0,1,2.13-14.31A37.85,37.85,0,0,1,873,475a34.52,34.52,0,0,1,13.55-10.53,42.42,42.42,0,0,1,17.13-3.51A40.79,40.79,0,0,1,917,463.07a34.52,34.52,0,0,1,10.66,5.78,26.82,26.82,0,0,1,7,8.6,22.83,22.83,0,0,1,2.55,10.6,23.37,23.37,0,0,1-2.48,10.6,25.7,25.7,0,0,1-7,8.6,34.76,34.76,0,0,1-11,5.78,45.93,45.93,0,0,1-14.45,2.13,35.65,35.65,0,0,1-9.56-1.17,39.72,39.72,0,0,1-7.43-2.82,31.05,31.05,0,0,1-8.88-6.6,29.6,29.6,0,0,0,3.16,10.8,24.12,24.12,0,0,0,6.19,7.57,25.71,25.71,0,0,0,8.19,4.4,30,30,0,0,0,9.29,1.45,29.12,29.12,0,0,0,11.83-2.48,9.82,9.82,0,0,1,1.24-.41,5.14,5.14,0,0,1,1.24-.14,5.64,5.64,0,0,1,5.64,5.64,5.38,5.38,0,0,1-1,3.16,6,6,0,0,1-2.48,2.07,40.11,40.11,0,0,1-16.52,3.44,41.85,41.85,0,0,1-13.9-2.41,34.81,34.81,0,0,1-12.25-7.36,37.9,37.9,0,0,1-8.74-12.39A41.94,41.94,0,0,1,865,500.44Zm38.53-28.21a30.44,30.44,0,0,0-8.53,1.24,29.64,29.64,0,0,0-7.64,3.37,20.11,20.11,0,0,0-5.51,5,10.22,10.22,0,0,0-2.13,6.19,10,10,0,0,0,1.93,5.71,20.11,20.11,0,0,0,5.16,5.09,27.51,27.51,0,0,0,7.57,3.65,32.69,32.69,0,0,0,19-.07,23.14,23.14,0,0,0,7-3.72,15,15,0,0,0,4.2-5.09,12.66,12.66,0,0,0,1.37-5.57,12.24,12.24,0,0,0-1.24-5,15.57,15.57,0,0,0-3.92-5.16,22.44,22.44,0,0,0-6.95-4.06A28.66,28.66,0,0,0,903.53,472.23Z"/><path class="cls-1" d="M956.1,431.91a5.64,5.64,0,1,1,11.28,0v68.53a31.48,31.48,0,0,0,2.34,12.66,26.16,26.16,0,0,0,6.12,8.88,23.92,23.92,0,0,0,8.6,5.16,30.31,30.31,0,0,0,9.91,1.65,5.64,5.64,0,1,1,0,11.28,41.85,41.85,0,0,1-13.9-2.41,34.77,34.77,0,0,1-12.25-7.36,37.84,37.84,0,0,1-8.74-12.39,41.94,41.94,0,0,1-3.37-17.48Z"/><path class="cls-2" d="M16.3,597.26l13.31,32.1h-2.5L23.24,620H6.37l-3.84,9.38H0l13.31-32.1Zm-1.86,3.14q-7.25,17.67-7.28,17.67H22.45L15.2,600.4a7.26,7.26,0,0,1-.4-1.55Z"/><path class="cls-2" d="M55.9,597.26l13.31,32.1h-2.5L62.85,620H46l-3.84,9.38H39.61l13.31-32.1ZM54,600.4q-7.25,17.67-7.28,17.67H62.06L54.8,600.4a7.26,7.26,0,0,1-.4-1.55Z"/><path class="cls-2" d="M82.65,597.26l19.77,28.05a6.41,6.41,0,0,1,.64,1.52V597.26h2.22v32.1h-2.83L83.32,602a7,7,0,0,1-.67-1.52v28.84H80.43v-32.1Z"/><path class="cls-2" d="M141.34,599a14.55,14.55,0,0,1,5.74,5.83h-2.5a13.15,13.15,0,0,0-1.65-2,14.93,14.93,0,0,0-19.65,0q-4,3.87-4,10.54t4,10.54a14.93,14.93,0,0,0,19.65,0,12.88,12.88,0,0,0,2.32-3.11v-4.93h-8.62v-1.89h10.81v15.47h-2.19v-6.12a4.62,4.62,0,0,1-1.31,2.53,15.75,15.75,0,0,1-10.81,4,16.73,16.73,0,0,1-6.21-1.16,15.45,15.45,0,0,1-5.1-3.26,15,15,0,0,1-3.44-5.21,19.06,19.06,0,0,1,0-13.65,15,15,0,0,1,3.44-5.21,15.48,15.48,0,0,1,5.1-3.26,16.73,16.73,0,0,1,6.21-1.16A16.44,16.44,0,0,1,141.34,599Z"/><path class="cls-2" d="M179.56,597.26v2H161.8v12.91h15.81V614H161.8v13.22h17.76v2.1h-20v-32.1Z"/><path class="cls-2" d="M202.81,597.26a10.11,10.11,0,0,1,7.43,2.74,9.25,9.25,0,0,1,2.77,6.85,9.14,9.14,0,0,1-2.85,6.84,10.14,10.14,0,0,1-7.36,2.76H194v12.91h-2.32v-32.1ZM194,614.35h8.59a8.49,8.49,0,0,0,5.92-2.16,7.35,7.35,0,0,0,0-10.68,8.33,8.33,0,0,0-5.92-2.15H194Z"/><path class="cls-2" d="M236.26,597.26l13.31,32.1h-2.5L243.21,620H226.33l-3.84,9.38H220l13.31-32.1Zm-1.86,3.14q-7.25,17.67-7.28,17.67h15.29l-7.25-17.67a7.26,7.26,0,0,1-.4-1.55Z"/><path class="cls-2" d="M277.55,597.81a16.87,16.87,0,0,1,4.92,2.19l-1.07,1.83a14.77,14.77,0,0,0-4.4-2,17.61,17.61,0,0,0-5.68-.85,9.85,9.85,0,0,0-5.79,1.8,5.31,5.31,0,0,0-2.29,4.29,4.89,4.89,0,0,0,2.77,4.72,28.94,28.94,0,0,0,6.9,1.84,35,35,0,0,1,6.9,1.72A8.07,8.07,0,0,1,284,617a7.39,7.39,0,0,1,.69,5.37,8.35,8.35,0,0,1-4.51,5.88,16.63,16.63,0,0,1-7.19,1.55,23.75,23.75,0,0,1-7.1-1,17.11,17.11,0,0,1-5.7-2.77l1-2a13.65,13.65,0,0,0,4.84,2.56,21,21,0,0,0,7,1q4.33-.06,6.43-1.4a6.63,6.63,0,0,0,1.95-1.89,6.09,6.09,0,0,0,1-2.53,5.87,5.87,0,0,0-.56-3.76,5.48,5.48,0,0,0-2.88-2.54,39.21,39.21,0,0,0-6.82-1.75,34.83,34.83,0,0,1-7.16-2,6.53,6.53,0,0,1-3.11-2.68,6.91,6.91,0,0,1-.88-4,7.68,7.68,0,0,1,2.83-5.85,12,12,0,0,1,7.22-2.29A19.08,19.08,0,0,1,277.55,597.81Z"/><path class="cls-2" d="M321.1,597.26v2H309.77v30.12h-2.22V599.24h-11.3v-2Z"/><path class="cls-2" d="M352.61,597.26v2H334.85v12.91h15.81V614H334.85v13.22h17.76v2.1h-20v-32.1Z"/><path class="cls-2" d="M387.53,627.78q.34-.06,21.11-27.47a4.18,4.18,0,0,1,1.52-.94H388.75v-2.1h23.64v2.19q-.34,0-20.38,26.83a3.9,3.9,0,0,1-1.52,1h21.9v2.1H387.53Z"/><path class="cls-2" d="M450.94,601.28a15,15,0,0,1,3.44,5.21,19.06,19.06,0,0,1,0,13.65,15,15,0,0,1-3.44,5.21,15.45,15.45,0,0,1-5.1,3.26,17.25,17.25,0,0,1-12.43,0,15.45,15.45,0,0,1-5.1-3.26,15,15,0,0,1-3.44-5.21,19.06,19.06,0,0,1,0-13.65,15,15,0,0,1,3.44-5.21,15.48,15.48,0,0,1,5.1-3.26,17.25,17.25,0,0,1,12.43,0A15.48,15.48,0,0,1,450.94,601.28Zm-11.32-2.19a13.49,13.49,0,0,0-9.84,3.69q-3.93,3.84-3.93,10.54t3.93,10.54a15,15,0,0,0,19.68,0q4-3.87,4-10.54t-4-10.54A13.5,13.5,0,0,0,439.62,599.09Z"/><path class="cls-2" d="M478.59,597.26a10.87,10.87,0,0,1,7.49,2.44,9,9,0,0,1,.81,12,9.5,9.5,0,0,1-5.19,3.09l3.62,7.31q2.41,4.84,3.59,7.25h-2.46l-2.93-6q-2.65-5.37-4.05-8.27a8.43,8.43,0,0,1-.88,0h-8.8v14.19h-2.32v-32.1Zm-8.8,15.81h8.59a9.06,9.06,0,0,0,6-1.87,6.17,6.17,0,0,0,2.27-5,6.08,6.08,0,0,0-2.27-5,9.16,9.16,0,0,0-6-1.84h-8.59Z"/><path class="cls-2" d="M524.36,599a14.57,14.57,0,0,1,5.74,5.83h-2.5a13.13,13.13,0,0,0-1.64-2,14.93,14.93,0,0,0-19.65,0q-4,3.87-4,10.54t4,10.54a14.93,14.93,0,0,0,19.65,0,12.92,12.92,0,0,0,2.31-3.11v-4.93h-8.62v-1.89h10.81v15.47h-2.19v-6.12A4.64,4.64,0,0,1,527,625.8a15.76,15.76,0,0,1-10.81,4,16.71,16.71,0,0,1-6.21-1.16,15.43,15.43,0,0,1-5.1-3.26,14.9,14.9,0,0,1-3.44-5.21,19.06,19.06,0,0,1,0-13.65,14.92,14.92,0,0,1,3.44-5.21,15.46,15.46,0,0,1,5.1-3.26,16.71,16.71,0,0,1,6.21-1.16A16.43,16.43,0,0,1,524.36,599Z"/><path class="cls-2" d="M568.5,597.26v32.1h-2.19v-32.1Z"/><path class="cls-2" d="M583.46,597.26l19.77,28.05a6.43,6.43,0,0,1,.64,1.52V597.26h2.22v32.1h-2.83L584.13,602a7.06,7.06,0,0,1-.67-1.52v28.84h-2.23v-32.1Z"/><path class="cls-2" d="M658.56,597.26V620a11.2,11.2,0,0,1-.82,4.43,7.58,7.58,0,0,1-2.24,3.06,10.2,10.2,0,0,1-3.14,1.71,11.48,11.48,0,0,1-3.67.58,10.69,10.69,0,0,1-7.68-2.93l1-1.77a9.17,9.17,0,0,0,6.52,2.59,7.53,7.53,0,0,0,5.8-2.18,8,8,0,0,0,2-5.71q0-7.92,0-22.51Z"/><path class="cls-2" d="M697.42,601.28a14.92,14.92,0,0,1,3.44,5.21,19,19,0,0,1,0,13.65,14.9,14.9,0,0,1-3.44,5.21,15.43,15.43,0,0,1-5.1,3.26,17.24,17.24,0,0,1-12.42,0,15.43,15.43,0,0,1-5.1-3.26,14.9,14.9,0,0,1-3.44-5.21,19.06,19.06,0,0,1,0-13.65,14.92,14.92,0,0,1,3.44-5.21,15.46,15.46,0,0,1,5.1-3.26,17.24,17.24,0,0,1,12.42,0A15.46,15.46,0,0,1,697.42,601.28Zm-11.31-2.19a13.49,13.49,0,0,0-9.84,3.69q-3.93,3.84-3.93,10.54t3.93,10.54a15,15,0,0,0,19.67,0q4-3.87,4-10.54t-4-10.54A13.48,13.48,0,0,0,686.11,599.09Z"/><path class="cls-2" d="M715.29,597.26v18.52a11.79,11.79,0,0,0,3.14,8.36,10.43,10.43,0,0,0,15.35,0,11.79,11.79,0,0,0,3.14-8.36V597.26h2.25v18.82a13.45,13.45,0,0,1-3.79,9.78,13,13,0,0,1-18.55,0,13.46,13.46,0,0,1-3.79-9.78V597.26Z"/><path class="cls-2" d="M752.12,597.26l10.35,29.91,0-.34a7.33,7.33,0,0,1,.12-.84,6.21,6.21,0,0,1,.18-.74q9.59-28,9.59-28h3L785,625.19a9.57,9.57,0,0,1,.34,2l10.36-29.91h2.65L787,629.36h-2.92l-9.84-28.14a9,9,0,0,1-.34-1.58l-.33,1.55q-9.81,28.15-9.84,28.17H760.8l-11.33-32.1Z"/><path class="cls-2" d="M845.9,597.26a9.23,9.23,0,0,1,6.53,2.3,7.64,7.64,0,0,1,2.48,5.86,7.5,7.5,0,0,1-1.25,4.17,7.26,7.26,0,0,1-3.2,2.77,8.59,8.59,0,0,1,4.31,3.23,8.51,8.51,0,0,1,1.57,5,8.53,8.53,0,0,1-9,8.8H833.25v-32.1Zm-10.42,14.47H846a6.66,6.66,0,0,0,4.9-1.75,6.12,6.12,0,0,0,1.77-4.55,5.61,5.61,0,0,0-1.86-4.4,7.25,7.25,0,0,0-5-1.66H835.48Zm0,15.53h12a6.32,6.32,0,0,0,5-1.91,6.92,6.92,0,0,0,1.71-4.8,7,7,0,0,0-1.87-4.92,6.64,6.64,0,0,0-5.13-2H835.48Z"/><path class="cls-2" d="M869.51,597.26v18.52a11.79,11.79,0,0,0,3.14,8.36,10.43,10.43,0,0,0,15.35,0,11.79,11.79,0,0,0,3.14-8.36V597.26h2.25v18.82a13.45,13.45,0,0,1-3.79,9.78,13,13,0,0,1-18.55,0,13.46,13.46,0,0,1-3.79-9.78V597.26Z"/><path class="cls-2" d="M906.25,597.26v18.52a11.79,11.79,0,0,0,3.14,8.36,10.43,10.43,0,0,0,15.35,0,11.79,11.79,0,0,0,3.14-8.36V597.26h2.25v18.82a13.45,13.45,0,0,1-3.79,9.78,13,13,0,0,1-18.55,0,13.46,13.46,0,0,1-3.79-9.78V597.26Z"/><path class="cls-2" d="M952.77,597.26a10.87,10.87,0,0,1,7.49,2.44,9,9,0,0,1,.81,12,9.5,9.5,0,0,1-5.19,3.09l3.62,7.31,3.59,7.25h-2.47q-.27-.58-2.92-6t-4.05-8.27a8.41,8.41,0,0,1-.88,0H944v14.19h-2.32v-32.1ZM944,613.07h8.59a9.06,9.06,0,0,0,6-1.87,6.17,6.17,0,0,0,2.27-5,6.08,6.08,0,0,0-2.27-5,9.16,9.16,0,0,0-6-1.84H944Z"/><path class="cls-2" d="M998.86,597.26v2H987.53v30.12h-2.22V599.24H974v-2Z"/><path class="cls-3" d="M505.72,117.13a17.59,17.59,0,1,1-17.59-17.59A17.59,17.59,0,0,1,505.72,117.13Z"/><circle class="cls-4" cx="538.64" cy="167.57" r="17.62"/><circle class="cls-5" cx="488.13" cy="218.03" r="17.59"/><path class="cls-6" d="M455.41,167.57A17.62,17.62,0,1,1,437.8,150,17.61,17.61,0,0,1,455.41,167.57Z"/><path class="cls-6" d="M393,262.81a109.45,109.45,0,0,1,0-190.47,109.57,109.57,0,0,0-6.11,95.23A109.55,109.55,0,0,0,393,262.81Z"/><path class="cls-7" d="M488.21,66.23a109.72,109.72,0,0,0-53.91,47.43,109.72,109.72,0,0,0-47.43,53.91A109.57,109.57,0,0,1,393,72.34a109.57,109.57,0,0,1,95.23-6.11Z"/><path class="cls-3" d="M583.45,72.36a109.55,109.55,0,0,0-95.24-6.13A109.57,109.57,0,0,0,393,72.34a109.45,109.45,0,0,1,190.47,0Z"/><path class="cls-8" d="M597.64,126.26a109,109,0,0,1-8.08,41.31,109.75,109.75,0,0,0-47.44-53.91,109.65,109.65,0,0,0-53.91-47.43,109.55,109.55,0,0,1,95.24,6.13A108.72,108.72,0,0,1,597.64,126.26Z"/><path class="cls-9" d="M542.12,113.66a108.16,108.16,0,0,0-50.35-14.12l-1.68-.06c-.62,0-1.25,0-1.88,0s-1.26,0-1.88,0l-1.68.06a108.16,108.16,0,0,0-50.35,14.12,109.72,109.72,0,0,1,53.91-47.43A109.65,109.65,0,0,1,542.12,113.66Z"/><path class="cls-4" d="M639,167.57a109.32,109.32,0,0,1-55.52,95.23,109.51,109.51,0,0,0,6.13-95.23,109.54,109.54,0,0,0-6.11-95.21A109.34,109.34,0,0,1,639,167.57Z"/><path class="cls-10" d="M589.56,167.57a109.75,109.75,0,0,1-47.44,53.91,108.35,108.35,0,0,0,14.13-50.35c0-.56,0-1.11.06-1.68s0-1.25,0-1.88,0-1.26,0-1.88,0-1.13-.06-1.68a108.35,108.35,0,0,0-14.13-50.35A109.75,109.75,0,0,1,589.56,167.57Z"/><path class="cls-11" d="M556.25,164a68.17,68.17,0,0,0-64.49-64.47,108.16,108.16,0,0,1,50.35,14.12A108.35,108.35,0,0,1,556.25,164Z"/><path class="cls-12" d="M597.64,208.89a108.63,108.63,0,0,1-14.21,53.91,109.51,109.51,0,0,1-95.23,6.13,109.75,109.75,0,0,0,53.91-47.44,109.75,109.75,0,0,0,47.44-53.91A108.9,108.9,0,0,1,597.64,208.89Z"/><path class="cls-13" d="M542.12,221.49a109.75,109.75,0,0,1-53.91,47.44,109.75,109.75,0,0,1-53.91-47.44,108.35,108.35,0,0,0,50.35,14.13l1.68.06c.62,0,1.25,0,1.88,0s1.26,0,1.88,0l1.68-.06A108.35,108.35,0,0,0,542.12,221.49Z"/><path class="cls-14" d="M556.25,171.13a108.35,108.35,0,0,1-14.13,50.35,108.35,108.35,0,0,1-50.35,14.13A68.19,68.19,0,0,0,556.25,171.13Z"/><path class="cls-5" d="M583.43,262.8a109.42,109.42,0,0,1-190.44,0,109.54,109.54,0,0,0,95.21,6.11,109.51,109.51,0,0,0,95.23-6.13Z"/><path class="cls-15" d="M488.21,268.93A109.54,109.54,0,0,1,393,262.81a109.55,109.55,0,0,1-6.13-95.24,109.65,109.65,0,0,0,47.43,53.91A109.75,109.75,0,0,0,488.21,268.93Z"/><path class="cls-14" d="M484.65,235.62a108.35,108.35,0,0,1-50.35-14.13,108.16,108.16,0,0,1-14.12-50.35A68.17,68.17,0,0,0,484.65,235.62Z"/><path class="cls-9" d="M420.18,171.13a108.16,108.16,0,0,0,14.12,50.35,109.65,109.65,0,0,1-47.43-53.91,109.72,109.72,0,0,1,47.43-53.91A108.16,108.16,0,0,0,420.18,164c0,.56,0,1.11-.06,1.68s0,1.25,0,1.88,0,1.26,0,1.88S420.16,170.58,420.18,171.13Z"/><path class="cls-11" d="M484.65,99.54A68.16,68.16,0,0,0,420.18,164a108.16,108.16,0,0,1,14.12-50.35A108.16,108.16,0,0,1,484.65,99.54Z"/></svg>