<svg id="Laag_1" data-name="Laag 1" xmlns="http://www.w3.org/2000/svg" xmlns:xlink="http://www.w3.org/1999/xlink" viewBox="0 0 1447 378"><defs><style>.cls-1,.cls-18,.cls-21{fill:none;}.cls-2{fill:#13baee;}.cls-3{clip-path:url(#clip-path);}.cls-4{clip-path:url(#clip-path-2);}.cls-5{fill:#a2c037;}.cls-6{fill:#e09d49;}.cls-7{fill:#edd13a;}.cls-8{fill:#6ab9ec;}.cls-9{fill:#4c793d;}.cls-10{fill:#949130;}.cls-11{fill:#466124;}.cls-12{fill:#5e4f45;}.cls-13{fill:#344a1a;}.cls-14{fill:#bc7d23;}.cls-15{fill:#43310d;}.cls-16{fill:#9baa31;}.cls-17{fill:#0a0a02;}.cls-18{stroke:#0a0a02;stroke-miterlimit:10;stroke-width:0.25px;}.cls-19{clip-path:url(#clip-path-3);}.cls-20{clip-path:url(#clip-path-4);}.cls-21{stroke:#fff;stroke-linecap:round;stroke-linejoin:round;stroke-width:4px;}</style><clipPath id="clip-path"><rect class="cls-1" x="68" y="91" width="530.67" height="199"/></clipPath><clipPath id="clip-path-2"><rect class="cls-1" x="68" y="91" width="530.67" height="199"/></clipPath><clipPath id="clip-path-3"><rect class="cls-1" x="809" y="109" width="530.67" height="199"/></clipPath><clipPath id="clip-path-4"><rect class="cls-1" x="809" y="109" width="530.67" height="199"/></clipPath></defs><title>dont&amp;apos;s 2</title><rect class="cls-2" y="1" width="702" height="378"/><g class="cls-3"><g class="cls-4"><path class="cls-5" d="M158.92,173.48a6.08,6.08,0,1,1-6.08-6.08,6.08,6.08,0,0,1,6.08,6.08"/><path class="cls-6" d="M176.39,190.92a6.09,6.09,0,1,1-6.09-6.09,6.09,6.09,0,0,1,6.09,6.09"/><path class="cls-7" d="M158.92,208.36a6.08,6.08,0,1,1-6.08-6.08,6.08,6.08,0,0,1,6.08,6.08"/><path class="cls-8" d="M141.53,190.92a6.09,6.09,0,1,1-6.09-6.09,6.09,6.09,0,0,1,6.09,6.09"/><path class="cls-8" d="M120,223.84a37.83,37.83,0,0,1,0-65.84,37.88,37.88,0,0,0-2.11,32.92A37.87,37.87,0,0,0,120,223.84"/><path class="cls-9" d="M152.87,155.89a37.93,37.93,0,0,0-18.64,16.39,37.92,37.92,0,0,0-16.39,18.64A37.88,37.88,0,0,1,119.95,158a37.88,37.88,0,0,1,32.92-2.11"/><path class="cls-5" d="M185.79,158a37.87,37.87,0,0,0-32.92-2.12A37.88,37.88,0,0,0,119.95,158a37.83,37.83,0,0,1,65.84,0"/><path class="cls-10" d="M190.7,176.64a37.67,37.67,0,0,1-2.79,14.28,37.94,37.94,0,0,0-16.4-18.64,37.9,37.9,0,0,0-18.64-16.39A37.87,37.87,0,0,1,185.79,158a37.59,37.59,0,0,1,4.91,18.63"/><path class="cls-11" d="M171.5,172.28a37.39,37.39,0,0,0-17.41-4.88l-.58,0h-1.3l-.58,0a37.39,37.39,0,0,0-17.41,4.88,37.93,37.93,0,0,1,18.64-16.39,37.9,37.9,0,0,1,18.64,16.39"/><path class="cls-6" d="M205,190.92a37.79,37.79,0,0,1-19.19,32.92,37.86,37.86,0,0,0,2.12-32.92A37.87,37.87,0,0,0,185.79,158,37.8,37.8,0,0,1,205,190.92"/><path class="cls-12" d="M187.9,190.92a37.94,37.94,0,0,1-16.4,18.64,37.45,37.45,0,0,0,4.89-17.41c0-.19,0-.38,0-.58s0-.43,0-.65,0-.44,0-.65,0-.39,0-.58a37.45,37.45,0,0,0-4.89-17.41,37.94,37.94,0,0,1,16.4,18.64"/><path class="cls-13" d="M176.39,189.69A23.57,23.57,0,0,0,154.1,167.4a37.39,37.39,0,0,1,17.41,4.88,37.45,37.45,0,0,1,4.89,17.41"/><path class="cls-14" d="M190.7,205.2a37.55,37.55,0,0,1-4.91,18.64A37.86,37.86,0,0,1,152.87,226a37.94,37.94,0,0,0,18.64-16.4,37.94,37.94,0,0,0,16.4-18.64,37.65,37.65,0,0,1,2.79,14.28"/><path class="cls-12" d="M171.5,209.55A37.94,37.94,0,0,1,152.87,226a37.94,37.94,0,0,1-18.64-16.4,37.45,37.45,0,0,0,17.41,4.89l.58,0h1.3l.58,0a37.45,37.45,0,0,0,17.41-4.89"/><path class="cls-15" d="M176.39,192.15a37.45,37.45,0,0,1-4.89,17.41,37.45,37.45,0,0,1-17.41,4.89,23.57,23.57,0,0,0,22.29-22.29"/><path class="cls-7" d="M185.79,223.84a37.82,37.82,0,0,1-65.83,0A37.86,37.86,0,0,0,152.87,226a37.86,37.86,0,0,0,32.92-2.12"/><path class="cls-16" d="M152.87,226A37.86,37.86,0,0,1,120,223.84a37.87,37.87,0,0,1-2.12-32.92,37.9,37.9,0,0,0,16.39,18.64A37.94,37.94,0,0,0,152.87,226"/><path class="cls-15" d="M151.64,214.44a37.45,37.45,0,0,1-17.41-4.89,37.38,37.38,0,0,1-4.88-17.41,23.57,23.57,0,0,0,22.29,22.29"/><path class="cls-11" d="M129.35,192.15a37.38,37.38,0,0,0,4.88,17.41,37.9,37.9,0,0,1-16.39-18.64,37.93,37.93,0,0,1,16.39-18.64,37.38,37.38,0,0,0-4.88,17.41c0,.19,0,.38,0,.58s0,.43,0,.65,0,.44,0,.65,0,.39,0,.58"/><path class="cls-13" d="M151.64,167.4a23.56,23.56,0,0,0-22.29,22.29,37.38,37.38,0,0,1,4.88-17.41,37.38,37.38,0,0,1,17.41-4.88"/><path class="cls-17" d="M230.51,156.12a20.77,20.77,0,0,1,8.56,1.64,17.46,17.46,0,0,1,9.66,10.35,20.12,20.12,0,0,1,0,13.63,17.53,17.53,0,0,1-3.59,6,18,18,0,0,1-6.07,4.28,20.78,20.78,0,0,1-8.56,1.64h-5.42a1.95,1.95,0,0,1-2-2V158.07a1.95,1.95,0,0,1,2-2ZM228,160a.93.93,0,0,0-.71.31,1,1,0,0,0-.29.69V188.8a1,1,0,0,0,1,1h2.52a17.4,17.4,0,0,0,6.92-1.26,13.47,13.47,0,0,0,7.66-8.11,16.52,16.52,0,0,0,0-10.92,13.67,13.67,0,0,0-2.83-4.78,14,14,0,0,0-4.83-3.38,17.13,17.13,0,0,0-6.92-1.28Z"/><path class="cls-18" d="M230.51,156.12a20.77,20.77,0,0,1,8.56,1.64,17.46,17.46,0,0,1,9.66,10.35,20.12,20.12,0,0,1,0,13.63,17.53,17.53,0,0,1-3.59,6,18,18,0,0,1-6.07,4.28,20.78,20.78,0,0,1-8.56,1.64h-5.42a1.95,1.95,0,0,1-2-2V158.07a1.95,1.95,0,0,1,2-2ZM228,160a.93.93,0,0,0-.71.31,1,1,0,0,0-.29.69V188.8a1,1,0,0,0,1,1h2.52a17.4,17.4,0,0,0,6.92-1.26,13.47,13.47,0,0,0,7.66-8.11,16.52,16.52,0,0,0,0-10.92,13.67,13.67,0,0,0-2.83-4.78,14,14,0,0,0-4.83-3.38,17.13,17.13,0,0,0-6.92-1.28Z"/><path class="cls-17" d="M255.3,181.38a15.45,15.45,0,0,1,.74-4.95,13.11,13.11,0,0,1,2-3.85,11.94,11.94,0,0,1,4.69-3.64,14.67,14.67,0,0,1,5.92-1.21,14.1,14.1,0,0,1,4.61.74,11.93,11.93,0,0,1,3.69,2,9.3,9.3,0,0,1,2.43,3,7.91,7.91,0,0,1,.88,3.66,8.08,8.08,0,0,1-.86,3.66,8.89,8.89,0,0,1-2.43,3,12,12,0,0,1-3.81,2,15.89,15.89,0,0,1-5,.74,12.34,12.34,0,0,1-3.31-.4,13.73,13.73,0,0,1-2.57-1,10.64,10.64,0,0,1-1.88-1.19,10.52,10.52,0,0,1-1.19-1.09,10.19,10.19,0,0,0,1.09,3.73,8.33,8.33,0,0,0,2.14,2.62,8.89,8.89,0,0,0,2.83,1.52,10.37,10.37,0,0,0,3.21.5,10.07,10.07,0,0,0,4.09-.86,3.28,3.28,0,0,1,.43-.14,1.76,1.76,0,0,1,.43,0,1.95,1.95,0,0,1,2,2,1.86,1.86,0,0,1-.33,1.09,2.07,2.07,0,0,1-.86.71,13.85,13.85,0,0,1-5.71,1.19,14.47,14.47,0,0,1-4.8-.83,12,12,0,0,1-4.23-2.55,13.1,13.1,0,0,1-3-4.28,14.49,14.49,0,0,1-1.17-6m13.32-9.75a10.52,10.52,0,0,0-2.95.43,10.25,10.25,0,0,0-2.64,1.16,6.94,6.94,0,0,0-1.9,1.74,3.53,3.53,0,0,0-.74,2.14,3.47,3.47,0,0,0,.67,2,7,7,0,0,0,1.78,1.76,9.52,9.52,0,0,0,2.62,1.26,11.3,11.3,0,0,0,6.56,0,8,8,0,0,0,2.43-1.28,5.19,5.19,0,0,0,1.45-1.76,4.36,4.36,0,0,0,.48-1.93,4.23,4.23,0,0,0-.43-1.71,5.4,5.4,0,0,0-1.36-1.78,7.76,7.76,0,0,0-2.4-1.4,9.9,9.9,0,0,0-3.57-.57"/><path class="cls-18" d="M255.3,181.38a15.45,15.45,0,0,1,.74-4.95,13.11,13.11,0,0,1,2-3.85,11.94,11.94,0,0,1,4.69-3.64,14.67,14.67,0,0,1,5.92-1.21,14.1,14.1,0,0,1,4.61.74,11.93,11.93,0,0,1,3.69,2,9.3,9.3,0,0,1,2.43,3,7.91,7.91,0,0,1,.88,3.66,8.08,8.08,0,0,1-.86,3.66,8.89,8.89,0,0,1-2.43,3,12,12,0,0,1-3.81,2,15.89,15.89,0,0,1-5,.74,12.34,12.34,0,0,1-3.31-.4,13.73,13.73,0,0,1-2.57-1,10.64,10.64,0,0,1-1.88-1.19,10.52,10.52,0,0,1-1.19-1.09,10.19,10.19,0,0,0,1.09,3.73,8.33,8.33,0,0,0,2.14,2.62,8.89,8.89,0,0,0,2.83,1.52,10.37,10.37,0,0,0,3.21.5,10.07,10.07,0,0,0,4.09-.86,3.28,3.28,0,0,1,.43-.14,1.76,1.76,0,0,1,.43,0,1.95,1.95,0,0,1,2,2,1.86,1.86,0,0,1-.33,1.09,2.07,2.07,0,0,1-.86.71,13.85,13.85,0,0,1-5.71,1.19,14.47,14.47,0,0,1-4.8-.83,12,12,0,0,1-4.23-2.55,13.1,13.1,0,0,1-3-4.28A14.49,14.49,0,0,1,255.3,181.38Zm13.32-9.75a10.52,10.52,0,0,0-2.95.43,10.25,10.25,0,0,0-2.64,1.16,6.94,6.94,0,0,0-1.9,1.74,3.53,3.53,0,0,0-.74,2.14,3.47,3.47,0,0,0,.67,2,7,7,0,0,0,1.78,1.76,9.52,9.52,0,0,0,2.62,1.26,11.3,11.3,0,0,0,6.56,0,8,8,0,0,0,2.43-1.28,5.19,5.19,0,0,0,1.45-1.76,4.36,4.36,0,0,0,.48-1.93,4.23,4.23,0,0,0-.43-1.71,5.4,5.4,0,0,0-1.36-1.78,7.76,7.76,0,0,0-2.4-1.4A9.9,9.9,0,0,0,268.62,171.63Z"/><path class="cls-17" d="M303.58,193.6a1.75,1.75,0,0,1-1.07-.43,1.47,1.47,0,0,1-.55-1.24,1.68,1.68,0,0,1,.29-1l21.36-31H303.91a1.8,1.8,0,0,1-1.36-.57,1.92,1.92,0,0,1-.55-1.38,1.76,1.76,0,0,1,.55-1.33,1.88,1.88,0,0,1,1.36-.52h23.17a1.68,1.68,0,0,1,1,.29,1.63,1.63,0,0,1,.71,1.38,1.68,1.68,0,0,1-.29,1l-21.36,31h20a1.89,1.89,0,0,1,1.36.52,1.82,1.82,0,0,1,.55,1.38,1.87,1.87,0,0,1-1.9,1.9Z"/><path class="cls-18" d="M303.58,193.6a1.75,1.75,0,0,1-1.07-.43,1.47,1.47,0,0,1-.55-1.24,1.68,1.68,0,0,1,.29-1l21.36-31H303.91a1.8,1.8,0,0,1-1.36-.57,1.92,1.92,0,0,1-.55-1.38,1.76,1.76,0,0,1,.55-1.33,1.88,1.88,0,0,1,1.36-.52h23.17a1.68,1.68,0,0,1,1,.29,1.63,1.63,0,0,1,.71,1.38,1.68,1.68,0,0,1-.29,1l-21.36,31h20a1.89,1.89,0,0,1,1.36.52,1.82,1.82,0,0,1,.55,1.38,1.87,1.87,0,0,1-1.9,1.9Z"/><path class="cls-17" d="M346.63,195.08a14.46,14.46,0,0,1-4.8-.83,12,12,0,0,1-4.23-2.55,13.11,13.11,0,0,1-3-4.28,14.5,14.5,0,0,1-1.17-6,14.77,14.77,0,0,1,1.14-6,12.22,12.22,0,0,1,7.28-6.78,14.46,14.46,0,0,1,4.8-.83,14.6,14.6,0,0,1,4.85.83,12.24,12.24,0,0,1,4.23,2.52,12.56,12.56,0,0,1,3,4.26,16.56,16.56,0,0,1,0,12.08,12.65,12.65,0,0,1-3,4.28,12.28,12.28,0,0,1-4.26,2.55,14.47,14.47,0,0,1-4.8.83m0-3.9a10.7,10.7,0,0,0,3.45-.57,8.25,8.25,0,0,0,3-1.78,8.76,8.76,0,0,0,2.09-3.07,12.6,12.6,0,0,0,0-8.75,8.53,8.53,0,0,0-2.09-3,8.42,8.42,0,0,0-3-1.76,10.7,10.7,0,0,0-6.9,0,8.42,8.42,0,0,0-3,1.76,8.53,8.53,0,0,0-2.09,3,11.17,11.17,0,0,0-.79,4.38,10.86,10.86,0,0,0,.81,4.38,9,9,0,0,0,2.12,3.07,8.27,8.27,0,0,0,3,1.78,10.47,10.47,0,0,0,3.42.57"/><path class="cls-18" d="M346.63,195.08a14.46,14.46,0,0,1-4.8-.83,12,12,0,0,1-4.23-2.55,13.11,13.11,0,0,1-3-4.28,14.5,14.5,0,0,1-1.17-6,14.77,14.77,0,0,1,1.14-6,12.22,12.22,0,0,1,7.28-6.78,14.46,14.46,0,0,1,4.8-.83,14.6,14.6,0,0,1,4.85.83,12.24,12.24,0,0,1,4.23,2.52,12.56,12.56,0,0,1,3,4.26,16.56,16.56,0,0,1,0,12.08,12.65,12.65,0,0,1-3,4.28,12.28,12.28,0,0,1-4.26,2.55A14.47,14.47,0,0,1,346.63,195.08Zm0-3.9a10.7,10.7,0,0,0,3.45-.57,8.25,8.25,0,0,0,3-1.78,8.76,8.76,0,0,0,2.09-3.07,12.6,12.6,0,0,0,0-8.75,8.53,8.53,0,0,0-2.09-3,8.42,8.42,0,0,0-3-1.76,10.7,10.7,0,0,0-6.9,0,8.42,8.42,0,0,0-3,1.76,8.53,8.53,0,0,0-2.09,3,11.17,11.17,0,0,0-.79,4.38,10.86,10.86,0,0,0,.81,4.38,9,9,0,0,0,2.12,3.07,8.27,8.27,0,0,0,3,1.78A10.47,10.47,0,0,0,346.63,191.18Z"/><path class="cls-17" d="M370.27,192.18a2,2,0,1,1-3.9,0V181.33a14.78,14.78,0,0,1,1.14-6,12.22,12.22,0,0,1,7.28-6.78,14.47,14.47,0,0,1,4.8-.83,14,14,0,0,1,5.8,1.2,2,2,0,0,1,.78.72,2,2,0,0,1-.26,2.45,1.87,1.87,0,0,1-1.38.58,2,2,0,0,1-.81-.15,9.8,9.8,0,0,0-4.14-.9,10.63,10.63,0,0,0-3.47.57,8.3,8.3,0,0,0-5.07,4.8,11.18,11.18,0,0,0-.78,4.38Z"/><path class="cls-18" d="M370.27,192.18a2,2,0,1,1-3.9,0V181.33a14.78,14.78,0,0,1,1.14-6,12.22,12.22,0,0,1,7.28-6.78,14.47,14.47,0,0,1,4.8-.83,14,14,0,0,1,5.8,1.2,2,2,0,0,1,.78.72,2,2,0,0,1-.26,2.45,1.87,1.87,0,0,1-1.38.58,2,2,0,0,1-.81-.15,9.8,9.8,0,0,0-4.14-.9,10.63,10.63,0,0,0-3.47.57,8.3,8.3,0,0,0-5.07,4.8,11.18,11.18,0,0,0-.78,4.38Z"/><path class="cls-17" d="M403.86,195a14.45,14.45,0,0,1-4.8-.83,12,12,0,0,1-4.23-2.54,13.12,13.12,0,0,1-3-4.28,14.51,14.51,0,0,1-1.16-6,14.8,14.8,0,0,1,1.14-6,12.23,12.23,0,0,1,7.28-6.78,14.45,14.45,0,0,1,4.8-.83,14.61,14.61,0,0,1,4.85.83,12.25,12.25,0,0,1,4.23,2.52,12.57,12.57,0,0,1,3,4.26,14.8,14.8,0,0,1,1.14,6v12a14.8,14.8,0,0,1-1.14,6,12.66,12.66,0,0,1-3,4.28,12.29,12.29,0,0,1-4.26,2.54,14.47,14.47,0,0,1-4.8.83,2,2,0,1,1,0-3.9,10.71,10.71,0,0,0,3.45-.57,8.26,8.26,0,0,0,3-1.78,8.78,8.78,0,0,0,2.09-3.07,11.19,11.19,0,0,0,.78-4.38v-1.9a12.6,12.6,0,0,1-4.33,2.71,14.23,14.23,0,0,1-5,.9m0-3.9a10.71,10.71,0,0,0,3.45-.57,8.25,8.25,0,0,0,3-1.78,8.82,8.82,0,0,0,2.09-3,12.67,12.67,0,0,0,0-8.78,8.52,8.52,0,0,0-2.09-3,8.43,8.43,0,0,0-3-1.76,10.7,10.7,0,0,0-6.9,0,8.4,8.4,0,0,0-3,1.76,8.52,8.52,0,0,0-2.09,3,11.19,11.19,0,0,0-.78,4.38,10.81,10.81,0,0,0,.81,4.4,9.06,9.06,0,0,0,2.12,3,8.26,8.26,0,0,0,3,1.78,10.49,10.49,0,0,0,3.43.57"/><path class="cls-18" d="M403.86,195a14.45,14.45,0,0,1-4.8-.83,12,12,0,0,1-4.23-2.54,13.12,13.12,0,0,1-3-4.28,14.51,14.51,0,0,1-1.16-6,14.8,14.8,0,0,1,1.14-6,12.23,12.23,0,0,1,7.28-6.78,14.45,14.45,0,0,1,4.8-.83,14.61,14.61,0,0,1,4.85.83,12.25,12.25,0,0,1,4.23,2.52,12.57,12.57,0,0,1,3,4.26,14.8,14.8,0,0,1,1.14,6v12a14.8,14.8,0,0,1-1.14,6,12.66,12.66,0,0,1-3,4.28,12.29,12.29,0,0,1-4.26,2.54,14.47,14.47,0,0,1-4.8.83,2,2,0,1,1,0-3.9,10.71,10.71,0,0,0,3.45-.57,8.26,8.26,0,0,0,3-1.78,8.78,8.78,0,0,0,2.09-3.07,11.19,11.19,0,0,0,.78-4.38v-1.9a12.6,12.6,0,0,1-4.33,2.71A14.23,14.23,0,0,1,403.86,195Zm0-3.9a10.71,10.71,0,0,0,3.45-.57,8.25,8.25,0,0,0,3-1.78,8.82,8.82,0,0,0,2.09-3,12.67,12.67,0,0,0,0-8.78,8.52,8.52,0,0,0-2.09-3,8.43,8.43,0,0,0-3-1.76,10.7,10.7,0,0,0-6.9,0,8.4,8.4,0,0,0-3,1.76,8.52,8.52,0,0,0-2.09,3,11.19,11.19,0,0,0-.78,4.38,10.81,10.81,0,0,0,.81,4.4,9.06,9.06,0,0,0,2.12,3,8.26,8.26,0,0,0,3,1.78A10.49,10.49,0,0,0,403.86,191.13Z"/><path class="cls-17" d="M442.86,168.92a1.8,1.8,0,0,1,1.14,1.76,1.95,1.95,0,0,1-2,2,2,2,0,0,1-.81-.19,10.18,10.18,0,0,0-4.14-.86,10.63,10.63,0,0,0-3.47.57,8.31,8.31,0,0,0-5.07,4.8,12.66,12.66,0,0,0,0,8.78,8.82,8.82,0,0,0,2.09,3,8.26,8.26,0,0,0,3,1.78,10.62,10.62,0,0,0,3.47.57,10.07,10.07,0,0,0,4.09-.86,2.11,2.11,0,0,1,.86-.19,2,2,0,0,1,1.62,3,2.07,2.07,0,0,1-.86.71,13.44,13.44,0,0,1-5.71,1.19,14.45,14.45,0,0,1-4.8-.83,12,12,0,0,1-4.24-2.54,13.09,13.09,0,0,1-3-4.28,14.49,14.49,0,0,1-1.17-6,14.77,14.77,0,0,1,1.14-6,12.22,12.22,0,0,1,7.28-6.78,14.46,14.46,0,0,1,4.8-.83A15.1,15.1,0,0,1,440,168a11.63,11.63,0,0,1,2.83,1"/><path class="cls-18" d="M442.86,168.92a1.8,1.8,0,0,1,1.14,1.76,1.95,1.95,0,0,1-2,2,2,2,0,0,1-.81-.19,10.18,10.18,0,0,0-4.14-.86,10.63,10.63,0,0,0-3.47.57,8.31,8.31,0,0,0-5.07,4.8,12.66,12.66,0,0,0,0,8.78,8.82,8.82,0,0,0,2.09,3,8.26,8.26,0,0,0,3,1.78,10.62,10.62,0,0,0,3.47.57,10.07,10.07,0,0,0,4.09-.86,2.11,2.11,0,0,1,.86-.19,2,2,0,0,1,1.62,3,2.07,2.07,0,0,1-.86.71,13.44,13.44,0,0,1-5.71,1.19,14.45,14.45,0,0,1-4.8-.83,12,12,0,0,1-4.24-2.54,13.09,13.09,0,0,1-3-4.28,14.49,14.49,0,0,1-1.17-6,14.77,14.77,0,0,1,1.14-6,12.22,12.22,0,0,1,7.28-6.78,14.46,14.46,0,0,1,4.8-.83A15.1,15.1,0,0,1,440,168,11.63,11.63,0,0,1,442.86,168.92Z"/><path class="cls-17" d="M449.71,162.18a2.08,2.08,0,0,1,.48-1.32,2.11,2.11,0,0,1,2.95,0,2.09,2.09,0,0,1,.48,1.32,2,2,0,0,1-.48,1.28,2.11,2.11,0,0,1-2.95,0,2,2,0,0,1-.48-1.28m0,8.35a2,2,0,1,1,3.9,0v12.75a9.23,9.23,0,0,0,1.26,4.64,10.14,10.14,0,0,0,3.31,3.54,1.7,1.7,0,0,1,.69.74,2.13,2.13,0,0,1,.22.93,2,2,0,0,1-.55,1.36,1.77,1.77,0,0,1-1.36.6,2.7,2.7,0,0,1-1.4-.45,8.53,8.53,0,0,1-1.45-1.14,17.15,17.15,0,0,1-2.38-2.88,15.79,15.79,0,0,1-1.62-3.38,11.38,11.38,0,0,1-.62-3.71Z"/><path class="cls-18" d="M449.71,162.18a2.08,2.08,0,0,1,.48-1.32,2.11,2.11,0,0,1,2.95,0,2.09,2.09,0,0,1,.48,1.32,2,2,0,0,1-.48,1.28,2.11,2.11,0,0,1-2.95,0A2,2,0,0,1,449.71,162.18Zm0,8.35a2,2,0,1,1,3.9,0v12.75a9.23,9.23,0,0,0,1.26,4.64,10.14,10.14,0,0,0,3.31,3.54,1.7,1.7,0,0,1,.69.74,2.13,2.13,0,0,1,.22.93,2,2,0,0,1-.55,1.36,1.77,1.77,0,0,1-1.36.6,2.7,2.7,0,0,1-1.4-.45,8.53,8.53,0,0,1-1.45-1.14,17.15,17.15,0,0,1-2.38-2.88,15.79,15.79,0,0,1-1.62-3.38,11.38,11.38,0,0,1-.62-3.71Z"/><path class="cls-17" d="M468.41,192.18a2,2,0,1,1-3.9,0V181.33a14.78,14.78,0,0,1,1.14-6,12.22,12.22,0,0,1,7.28-6.78,14.47,14.47,0,0,1,4.8-.83,14,14,0,0,1,5.8,1.2,2,2,0,0,1,.78.72,2,2,0,0,1-.26,2.45,1.87,1.87,0,0,1-1.38.58,2,2,0,0,1-.81-.15,9.8,9.8,0,0,0-4.14-.9,10.63,10.63,0,0,0-3.47.57,8.29,8.29,0,0,0-5.07,4.8,11.15,11.15,0,0,0-.79,4.38Z"/><path class="cls-18" d="M468.41,192.18a2,2,0,1,1-3.9,0V181.33a14.78,14.78,0,0,1,1.14-6,12.22,12.22,0,0,1,7.28-6.78,14.47,14.47,0,0,1,4.8-.83,14,14,0,0,1,5.8,1.2,2,2,0,0,1,.78.72,2,2,0,0,1-.26,2.45,1.87,1.87,0,0,1-1.38.58,2,2,0,0,1-.81-.15,9.8,9.8,0,0,0-4.14-.9,10.63,10.63,0,0,0-3.47.57,8.29,8.29,0,0,0-5.07,4.8,11.15,11.15,0,0,0-.79,4.38Z"/><path class="cls-17" d="M507,176.48a14,14,0,0,1,3.64,1.59,11.77,11.77,0,0,1,3,2.71,12.8,12.8,0,0,1,2.07,3.85,15.41,15.41,0,0,1,.76,5v2.52a2,2,0,1,1-3.9,0v-2.52a11.18,11.18,0,0,0-.79-4.38,8.57,8.57,0,0,0-2.09-3,8.44,8.44,0,0,0-3-1.76,10.78,10.78,0,0,0-6.92,0,8.45,8.45,0,0,0-3,1.76,8.55,8.55,0,0,0-2.09,3,11.18,11.18,0,0,0-.78,4.38v2.52a2,2,0,1,1-3.9,0V157.64a2,2,0,1,1,3.9,0v19.55a1.18,1.18,0,0,0,.33.83,1.12,1.12,0,0,0,.86.36,1.27,1.27,0,0,0,.62-.24,17.68,17.68,0,0,1,4-1.71,1.94,1.94,0,0,0,1.14-.76l5-7.23a1.86,1.86,0,0,1,1.62-.81,1.82,1.82,0,0,1,1.4.59,1.87,1.87,0,0,1,.17,2.45l-2.71,4a1.36,1.36,0,0,0-.24.71,1,1,0,0,0,.86,1.09"/><path class="cls-18" d="M507,176.48a14,14,0,0,1,3.64,1.59,11.77,11.77,0,0,1,3,2.71,12.8,12.8,0,0,1,2.07,3.85,15.41,15.41,0,0,1,.76,5v2.52a2,2,0,1,1-3.9,0v-2.52a11.18,11.18,0,0,0-.79-4.38,8.57,8.57,0,0,0-2.09-3,8.44,8.44,0,0,0-3-1.76,10.78,10.78,0,0,0-6.92,0,8.45,8.45,0,0,0-3,1.76,8.55,8.55,0,0,0-2.09,3,11.18,11.18,0,0,0-.78,4.38v2.52a2,2,0,1,1-3.9,0V157.64a2,2,0,1,1,3.9,0v19.55a1.18,1.18,0,0,0,.33.83,1.12,1.12,0,0,0,.86.36,1.27,1.27,0,0,0,.62-.24,17.68,17.68,0,0,1,4-1.71,1.94,1.94,0,0,0,1.14-.76l5-7.23a1.86,1.86,0,0,1,1.62-.81,1.82,1.82,0,0,1,1.4.59,1.87,1.87,0,0,1,.17,2.45l-2.71,4a1.36,1.36,0,0,0-.24.71A1,1,0,0,0,507,176.48Z"/><path class="cls-17" d="M522.11,181.38a15.44,15.44,0,0,1,.74-4.95,13.08,13.08,0,0,1,2-3.85,11.93,11.93,0,0,1,4.68-3.64,14.67,14.67,0,0,1,5.92-1.21,14.1,14.1,0,0,1,4.61.74,11.93,11.93,0,0,1,3.69,2,9.27,9.27,0,0,1,2.43,3,7.89,7.89,0,0,1,.88,3.66,8.07,8.07,0,0,1-.86,3.66,8.88,8.88,0,0,1-2.43,3,12,12,0,0,1-3.81,2,15.89,15.89,0,0,1-5,.74,12.33,12.33,0,0,1-3.31-.4,13.75,13.75,0,0,1-2.57-1,10.74,10.74,0,0,1-3.07-2.28,10.23,10.23,0,0,0,1.09,3.73,8.34,8.34,0,0,0,2.14,2.62,8.88,8.88,0,0,0,2.83,1.52,10.37,10.37,0,0,0,3.21.5,10.06,10.06,0,0,0,4.09-.86,3.27,3.27,0,0,1,.43-.14,1.76,1.76,0,0,1,.43,0,1.95,1.95,0,0,1,1.95,2,1.86,1.86,0,0,1-.33,1.09,2.07,2.07,0,0,1-.86.71,13.86,13.86,0,0,1-5.71,1.19,14.48,14.48,0,0,1-4.8-.83,12,12,0,0,1-4.23-2.55,13.1,13.1,0,0,1-3-4.28,14.5,14.5,0,0,1-1.16-6m13.32-9.75a10.53,10.53,0,0,0-2.95.43,10.25,10.25,0,0,0-2.64,1.16,7,7,0,0,0-1.9,1.74,3.53,3.53,0,0,0-.74,2.14,3.46,3.46,0,0,0,.67,2,7,7,0,0,0,1.78,1.76,9.51,9.51,0,0,0,2.62,1.26,11.3,11.3,0,0,0,6.57,0,8,8,0,0,0,2.43-1.28,5.2,5.2,0,0,0,1.45-1.76,4.37,4.37,0,0,0,.47-1.93,4.22,4.22,0,0,0-.43-1.71,5.38,5.38,0,0,0-1.35-1.78,7.75,7.75,0,0,0-2.4-1.4,9.91,9.91,0,0,0-3.57-.57"/><path class="cls-18" d="M522.11,181.38a15.44,15.44,0,0,1,.74-4.95,13.08,13.08,0,0,1,2-3.85,11.93,11.93,0,0,1,4.68-3.64,14.67,14.67,0,0,1,5.92-1.21,14.1,14.1,0,0,1,4.61.74,11.93,11.93,0,0,1,3.69,2,9.27,9.27,0,0,1,2.43,3,7.89,7.89,0,0,1,.88,3.66,8.07,8.07,0,0,1-.86,3.66,8.88,8.88,0,0,1-2.43,3,12,12,0,0,1-3.81,2,15.89,15.89,0,0,1-5,.74,12.33,12.33,0,0,1-3.31-.4,13.75,13.75,0,0,1-2.57-1,10.74,10.74,0,0,1-3.07-2.28,10.23,10.23,0,0,0,1.09,3.73,8.34,8.34,0,0,0,2.14,2.62,8.88,8.88,0,0,0,2.83,1.52,10.37,10.37,0,0,0,3.21.5,10.06,10.06,0,0,0,4.09-.86,3.27,3.27,0,0,1,.43-.14,1.76,1.76,0,0,1,.43,0,1.95,1.95,0,0,1,1.95,2,1.86,1.86,0,0,1-.33,1.09,2.07,2.07,0,0,1-.86.71,13.86,13.86,0,0,1-5.71,1.19,14.48,14.48,0,0,1-4.8-.83,12,12,0,0,1-4.23-2.55,13.1,13.1,0,0,1-3-4.28A14.5,14.5,0,0,1,522.11,181.38Zm13.32-9.75a10.53,10.53,0,0,0-2.95.43,10.25,10.25,0,0,0-2.64,1.16,7,7,0,0,0-1.9,1.74,3.53,3.53,0,0,0-.74,2.14,3.46,3.46,0,0,0,.67,2,7,7,0,0,0,1.78,1.76,9.51,9.51,0,0,0,2.62,1.26,11.3,11.3,0,0,0,6.57,0,8,8,0,0,0,2.43-1.28,5.2,5.2,0,0,0,1.45-1.76,4.37,4.37,0,0,0,.47-1.93,4.22,4.22,0,0,0-.43-1.71,5.38,5.38,0,0,0-1.35-1.78,7.75,7.75,0,0,0-2.4-1.4A9.91,9.91,0,0,0,535.43,171.63Z"/><path class="cls-17" d="M553.6,157.69a2,2,0,0,1,3.9,0v23.69a10.89,10.89,0,0,0,.81,4.38,9,9,0,0,0,2.12,3.07,8.26,8.26,0,0,0,3,1.78,10.47,10.47,0,0,0,3.42.57,2,2,0,1,1,0,3.9,14.47,14.47,0,0,1-4.8-.83,12,12,0,0,1-4.23-2.55,13.09,13.09,0,0,1-3-4.28,14.5,14.5,0,0,1-1.17-6Z"/><path class="cls-18" d="M553.6,157.69a2,2,0,0,1,3.9,0v23.69a10.89,10.89,0,0,0,.81,4.38,9,9,0,0,0,2.12,3.07,8.26,8.26,0,0,0,3,1.78,10.47,10.47,0,0,0,3.42.57,2,2,0,1,1,0,3.9,14.47,14.47,0,0,1-4.8-.83,12,12,0,0,1-4.23-2.55,13.09,13.09,0,0,1-3-4.28,14.5,14.5,0,0,1-1.17-6Z"/><path class="cls-17" d="M228.73,214.85l4.6,11.1h-.86l-1.34-3.24H225.3L224,225.95h-.87l4.6-11.1Zm-.64,1.08q-2.51,6.11-2.52,6.11h5.29l-2.51-6.11a2.53,2.53,0,0,1-.14-.54Z"/><path class="cls-18" d="M228.73,214.85l4.6,11.1h-.86l-1.34-3.24H225.3L224,225.95h-.87l4.6-11.1Zm-.64,1.08q-2.51,6.11-2.52,6.11h5.29l-2.51-6.11a2.53,2.53,0,0,1-.14-.54Z"/><path class="cls-17" d="M242.42,214.85l4.6,11.1h-.86l-1.34-3.24H239l-1.33,3.24h-.87l4.6-11.1Zm-.64,1.08q-2.51,6.11-2.52,6.11h5.29L242,215.93a2.53,2.53,0,0,1-.14-.54Z"/><path class="cls-18" d="M242.42,214.85l4.6,11.1h-.86l-1.34-3.24H239l-1.33,3.24h-.87l4.6-11.1Zm-.64,1.08q-2.51,6.11-2.52,6.11h5.29L242,215.93a2.53,2.53,0,0,1-.14-.54Z"/><path class="cls-17" d="M251.67,214.85l6.83,9.7a2.22,2.22,0,0,1,.22.53V214.85h.77v11.1h-1l-6.61-9.44a2.44,2.44,0,0,1-.23-.53v10h-.77v-11.1Z"/><path class="cls-18" d="M251.67,214.85l6.83,9.7a2.22,2.22,0,0,1,.22.53V214.85h.77v11.1h-1l-6.61-9.44a2.44,2.44,0,0,1-.23-.53v10h-.77v-11.1Z"/><path class="cls-17" d="M272,215.43a5,5,0,0,1,2,2h-.86a4.54,4.54,0,0,0-.57-.7,5.16,5.16,0,0,0-6.79,0,5.53,5.53,0,0,0,0,7.29,5.16,5.16,0,0,0,6.79,0,4.45,4.45,0,0,0,.8-1.07v-1.71h-3v-.65h3.74V226h-.76v-2.12a1.6,1.6,0,0,1-.45.87,5.44,5.44,0,0,1-3.74,1.37,5.78,5.78,0,0,1-2.15-.4,5.34,5.34,0,0,1-1.76-1.13,5.18,5.18,0,0,1-1.19-1.8,6.59,6.59,0,0,1,0-4.72,5.19,5.19,0,0,1,1.19-1.8,5.36,5.36,0,0,1,1.76-1.13,5.79,5.79,0,0,1,2.15-.4,5.68,5.68,0,0,1,2.84.72"/><path class="cls-18" d="M272,215.43a5,5,0,0,1,2,2h-.86a4.54,4.54,0,0,0-.57-.7,5.16,5.16,0,0,0-6.79,0,5.53,5.53,0,0,0,0,7.29,5.16,5.16,0,0,0,6.79,0,4.45,4.45,0,0,0,.8-1.07v-1.71h-3v-.65h3.74V226h-.76v-2.12a1.6,1.6,0,0,1-.45.87,5.44,5.44,0,0,1-3.74,1.37,5.78,5.78,0,0,1-2.15-.4,5.34,5.34,0,0,1-1.76-1.13,5.18,5.18,0,0,1-1.19-1.8,6.59,6.59,0,0,1,0-4.72,5.19,5.19,0,0,1,1.19-1.8,5.36,5.36,0,0,1,1.76-1.13,5.79,5.79,0,0,1,2.15-.4A5.68,5.68,0,0,1,272,215.43Z"/><polygon class="cls-17" points="285.17 214.85 285.17 215.53 279.03 215.53 279.03 220 284.49 220 284.49 220.65 279.03 220.65 279.03 225.22 285.17 225.22 285.17 225.95 278.26 225.95 278.26 214.85 285.17 214.85"/><polygon class="cls-18" points="285.17 214.85 285.17 215.53 279.03 215.53 279.03 220 284.49 220 284.49 220.65 279.03 220.65 279.03 225.22 285.17 225.22 285.17 225.95 278.26 225.95 278.26 214.85 285.17 214.85"/><path class="cls-17" d="M293.2,214.85a3.5,3.5,0,0,1,2.57.95,3.2,3.2,0,0,1,1,2.37,3.16,3.16,0,0,1-1,2.36,3.51,3.51,0,0,1-2.54,1h-3v4.46h-.8v-11.1Zm-3,5.91h3a2.93,2.93,0,0,0,2-.75,2.54,2.54,0,0,0,0-3.69,2.88,2.88,0,0,0-2-.74h-3Z"/><path class="cls-18" d="M293.2,214.85a3.5,3.5,0,0,1,2.57.95,3.2,3.2,0,0,1,1,2.37,3.16,3.16,0,0,1-1,2.36,3.51,3.51,0,0,1-2.54,1h-3v4.46h-.8v-11.1Zm-3,5.91h3a2.93,2.93,0,0,0,2-.75,2.54,2.54,0,0,0,0-3.69,2.88,2.88,0,0,0-2-.74h-3Z"/><path class="cls-17" d="M304.77,214.85l4.6,11.1h-.86l-1.34-3.24h-5.83L300,225.95h-.87l4.6-11.1Zm-.64,1.08q-2.51,6.11-2.52,6.11h5.29l-2.51-6.11a2.5,2.5,0,0,1-.14-.54Z"/><path class="cls-18" d="M304.77,214.85l4.6,11.1h-.86l-1.34-3.24h-5.83L300,225.95h-.87l4.6-11.1Zm-.64,1.08q-2.51,6.11-2.52,6.11h5.29l-2.51-6.11a2.5,2.5,0,0,1-.14-.54Z"/><path class="cls-17" d="M319,215a5.83,5.83,0,0,1,1.7.76l-.37.63a5.11,5.11,0,0,0-1.52-.7,6.08,6.08,0,0,0-2-.3,3.4,3.4,0,0,0-2,.62,1.84,1.84,0,0,0-.79,1.48,1.69,1.69,0,0,0,1,1.63,10,10,0,0,0,2.39.64,12.09,12.09,0,0,1,2.38.59,2.79,2.79,0,0,1,1.44,1.26,2.55,2.55,0,0,1,.24,1.86,2.88,2.88,0,0,1-1.56,2,5.75,5.75,0,0,1-2.48.54,8.21,8.21,0,0,1-2.45-.36,5.91,5.91,0,0,1-2-1l.36-.68a4.72,4.72,0,0,0,1.67.88,7.23,7.23,0,0,0,2.42.36,4.33,4.33,0,0,0,2.22-.48,2.3,2.3,0,0,0,.67-.65,2.11,2.11,0,0,0,.36-.87,2,2,0,0,0-.19-1.3,1.9,1.9,0,0,0-1-.88,13.56,13.56,0,0,0-2.36-.61,12,12,0,0,1-2.47-.68,2.25,2.25,0,0,1-1.07-.93,2.39,2.39,0,0,1-.31-1.4,2.65,2.65,0,0,1,1-2,4.16,4.16,0,0,1,2.5-.79A6.6,6.6,0,0,1,319,215"/><path class="cls-18" d="M319,215a5.83,5.83,0,0,1,1.7.76l-.37.63a5.11,5.11,0,0,0-1.52-.7,6.08,6.08,0,0,0-2-.3,3.4,3.4,0,0,0-2,.62,1.84,1.84,0,0,0-.79,1.48,1.69,1.69,0,0,0,1,1.63,10,10,0,0,0,2.39.64,12.09,12.09,0,0,1,2.38.59,2.79,2.79,0,0,1,1.44,1.26,2.55,2.55,0,0,1,.24,1.86,2.88,2.88,0,0,1-1.56,2,5.75,5.75,0,0,1-2.48.54,8.21,8.21,0,0,1-2.45-.36,5.91,5.91,0,0,1-2-1l.36-.68a4.72,4.72,0,0,0,1.67.88,7.23,7.23,0,0,0,2.42.36,4.33,4.33,0,0,0,2.22-.48,2.3,2.3,0,0,0,.67-.65,2.11,2.11,0,0,0,.36-.87,2,2,0,0,0-.19-1.3,1.9,1.9,0,0,0-1-.88,13.56,13.56,0,0,0-2.36-.61,12,12,0,0,1-2.47-.68,2.25,2.25,0,0,1-1.07-.93,2.39,2.39,0,0,1-.31-1.4,2.65,2.65,0,0,1,1-2,4.16,4.16,0,0,1,2.5-.79A6.6,6.6,0,0,1,319,215Z"/><polygon class="cls-17" points="334.1 214.85 334.1 215.53 330.18 215.53 330.18 225.95 329.41 225.95 329.41 215.53 325.51 215.53 325.51 214.85 334.1 214.85"/><polygon class="cls-18" points="334.1 214.85 334.1 215.53 330.18 215.53 330.18 225.95 329.41 225.95 329.41 215.53 325.51 215.53 325.51 214.85 334.1 214.85"/><polygon class="cls-17" points="344.99 214.85 344.99 215.53 338.85 215.53 338.85 220 344.31 220 344.31 220.65 338.85 220.65 338.85 225.22 344.99 225.22 344.99 225.95 338.08 225.95 338.08 214.85 344.99 214.85"/><polygon class="cls-18" points="344.99 214.85 344.99 215.53 338.85 215.53 338.85 220 344.31 220 344.31 220.65 338.85 220.65 338.85 225.22 344.99 225.22 344.99 225.95 338.08 225.95 338.08 214.85 344.99 214.85"/><path class="cls-17" d="M357.06,225.4q.12,0,7.3-9.5a1.45,1.45,0,0,1,.53-.33h-7.4v-.73h8.17v.76q-.12,0-7,9.28a1.34,1.34,0,0,1-.53.34h7.57v.73h-8.59Z"/><path class="cls-18" d="M357.06,225.4q.12,0,7.3-9.5a1.45,1.45,0,0,1,.53-.33h-7.4v-.73h8.17v.76q-.12,0-7,9.28a1.34,1.34,0,0,1-.53.34h7.57v.73h-8.59Z"/><path class="cls-17" d="M379,216.24a5.18,5.18,0,0,1,1.19,1.8,6.59,6.59,0,0,1,0,4.72,5.17,5.17,0,0,1-1.19,1.8,5.34,5.34,0,0,1-1.76,1.13,6,6,0,0,1-4.3,0,5.34,5.34,0,0,1-1.76-1.13,5.17,5.17,0,0,1-1.19-1.8,6.58,6.58,0,0,1,0-4.72,5.18,5.18,0,0,1,1.19-1.8,5.36,5.36,0,0,1,1.76-1.13,6,6,0,0,1,4.3,0,5.35,5.35,0,0,1,1.76,1.13m-3.91-.76a4.66,4.66,0,0,0-3.4,1.27,5.56,5.56,0,0,0,0,7.29,5.18,5.18,0,0,0,6.8,0,5.53,5.53,0,0,0,0-7.29,4.67,4.67,0,0,0-3.4-1.27"/><path class="cls-18" d="M379,216.24a5.18,5.18,0,0,1,1.19,1.8,6.59,6.59,0,0,1,0,4.72,5.17,5.17,0,0,1-1.19,1.8,5.34,5.34,0,0,1-1.76,1.13,6,6,0,0,1-4.3,0,5.34,5.34,0,0,1-1.76-1.13,5.17,5.17,0,0,1-1.19-1.8,6.58,6.58,0,0,1,0-4.72,5.18,5.18,0,0,1,1.19-1.8,5.36,5.36,0,0,1,1.76-1.13,6,6,0,0,1,4.3,0A5.35,5.35,0,0,1,379,216.24Zm-3.91-.76a4.66,4.66,0,0,0-3.4,1.27,5.56,5.56,0,0,0,0,7.29,5.18,5.18,0,0,0,6.8,0,5.53,5.53,0,0,0,0-7.29A4.67,4.67,0,0,0,375.07,215.48Z"/><path class="cls-17" d="M388.54,214.85a3.76,3.76,0,0,1,2.59.84,3.1,3.1,0,0,1,.28,4.15,3.28,3.28,0,0,1-1.8,1.07l1.25,2.53,1.24,2.51h-.85l-1-2.06-1.4-2.86h-3.35v4.91h-.8v-11.1Zm-3,5.47h3a3.13,3.13,0,0,0,2.06-.65,2.14,2.14,0,0,0,.78-1.73,2.1,2.1,0,0,0-.78-1.72,3.16,3.16,0,0,0-2.06-.64h-3Z"/><path class="cls-18" d="M388.54,214.85a3.76,3.76,0,0,1,2.59.84,3.1,3.1,0,0,1,.28,4.15,3.28,3.28,0,0,1-1.8,1.07l1.25,2.53,1.24,2.51h-.85l-1-2.06-1.4-2.86h-3.35v4.91h-.8v-11.1Zm-3,5.47h3a3.13,3.13,0,0,0,2.06-.65,2.14,2.14,0,0,0,.78-1.73,2.1,2.1,0,0,0-.78-1.72,3.16,3.16,0,0,0-2.06-.64h-3Z"/><path class="cls-17" d="M404.36,215.43a5,5,0,0,1,2,2h-.86a4.56,4.56,0,0,0-.57-.7,5.16,5.16,0,0,0-6.79,0,5.53,5.53,0,0,0,0,7.29,5.16,5.16,0,0,0,6.79,0,4.47,4.47,0,0,0,.8-1.07v-1.71h-3v-.65h3.74V226h-.76v-2.12a1.61,1.61,0,0,1-.45.87,5.45,5.45,0,0,1-3.74,1.37,5.77,5.77,0,0,1-2.15-.4,5.33,5.33,0,0,1-1.76-1.13,5.15,5.15,0,0,1-1.19-1.8,6.58,6.58,0,0,1,0-4.72,5.16,5.16,0,0,1,1.19-1.8,5.34,5.34,0,0,1,1.76-1.13,5.78,5.78,0,0,1,2.15-.4,5.68,5.68,0,0,1,2.84.72"/><path class="cls-18" d="M404.36,215.43a5,5,0,0,1,2,2h-.86a4.56,4.56,0,0,0-.57-.7,5.16,5.16,0,0,0-6.79,0,5.53,5.53,0,0,0,0,7.29,5.16,5.16,0,0,0,6.79,0,4.47,4.47,0,0,0,.8-1.07v-1.71h-3v-.65h3.74V226h-.76v-2.12a1.61,1.61,0,0,1-.45.87,5.45,5.45,0,0,1-3.74,1.37,5.77,5.77,0,0,1-2.15-.4,5.33,5.33,0,0,1-1.76-1.13,5.15,5.15,0,0,1-1.19-1.8,6.58,6.58,0,0,1,0-4.72,5.16,5.16,0,0,1,1.19-1.8,5.34,5.34,0,0,1,1.76-1.13,5.78,5.78,0,0,1,2.15-.4A5.68,5.68,0,0,1,404.36,215.43Z"/><rect class="cls-17" x="418.86" y="214.85" width="0.76" height="11.1"/><rect class="cls-18" x="418.86" y="214.85" width="0.76" height="11.1"/><path class="cls-17" d="M424.79,214.85l6.83,9.7a2.23,2.23,0,0,1,.22.53V214.85h.77v11.1h-1L425,216.5a2.45,2.45,0,0,1-.23-.53v10H424v-11.1Z"/><path class="cls-18" d="M424.79,214.85l6.83,9.7a2.23,2.23,0,0,1,.22.53V214.85h.77v11.1h-1L425,216.5a2.45,2.45,0,0,1-.23-.53v10H424v-11.1Z"/><path class="cls-17" d="M450.75,214.85v7.85a3.87,3.87,0,0,1-.28,1.53,2.62,2.62,0,0,1-.77,1.06,3.53,3.53,0,0,1-1.08.59,4,4,0,0,1-1.27.2,3.7,3.7,0,0,1-2.65-1l.35-.61a3.17,3.17,0,0,0,2.25.9,2.61,2.61,0,0,0,2-.75,2.78,2.78,0,0,0,.7-2q0-2.74,0-7.78Z"/><path class="cls-18" d="M450.75,214.85v7.85a3.87,3.87,0,0,1-.28,1.53,2.62,2.62,0,0,1-.77,1.06,3.53,3.53,0,0,1-1.08.59,4,4,0,0,1-1.27.2,3.7,3.7,0,0,1-2.65-1l.35-.61a3.17,3.17,0,0,0,2.25.9,2.61,2.61,0,0,0,2-.75,2.78,2.78,0,0,0,.7-2q0-2.74,0-7.78Z"/><path class="cls-17" d="M464.18,216.24a5.16,5.16,0,0,1,1.19,1.8,6.57,6.57,0,0,1,0,4.72,5.15,5.15,0,0,1-1.19,1.8,5.34,5.34,0,0,1-1.76,1.13,6,6,0,0,1-4.3,0,5.34,5.34,0,0,1-1.76-1.13,5.15,5.15,0,0,1-1.19-1.8,6.59,6.59,0,0,1,0-4.72,5.16,5.16,0,0,1,1.19-1.8,5.35,5.35,0,0,1,1.76-1.13,6,6,0,0,1,4.3,0,5.35,5.35,0,0,1,1.76,1.13m-3.91-.76a4.66,4.66,0,0,0-3.4,1.27,5.56,5.56,0,0,0,0,7.29,5.18,5.18,0,0,0,6.8,0,5.53,5.53,0,0,0,0-7.29,4.66,4.66,0,0,0-3.4-1.27"/><path class="cls-18" d="M464.18,216.24a5.16,5.16,0,0,1,1.19,1.8,6.57,6.57,0,0,1,0,4.72,5.15,5.15,0,0,1-1.19,1.8,5.34,5.34,0,0,1-1.76,1.13,6,6,0,0,1-4.3,0,5.34,5.34,0,0,1-1.76-1.13,5.15,5.15,0,0,1-1.19-1.8,6.59,6.59,0,0,1,0-4.72,5.16,5.16,0,0,1,1.19-1.8,5.35,5.35,0,0,1,1.76-1.13,6,6,0,0,1,4.3,0A5.35,5.35,0,0,1,464.18,216.24Zm-3.91-.76a4.66,4.66,0,0,0-3.4,1.27,5.56,5.56,0,0,0,0,7.29,5.18,5.18,0,0,0,6.8,0,5.53,5.53,0,0,0,0-7.29A4.66,4.66,0,0,0,460.27,215.48Z"/><path class="cls-17" d="M470.36,214.85v6.4a4.08,4.08,0,0,0,1.08,2.89,3.61,3.61,0,0,0,5.31,0,4.08,4.08,0,0,0,1.08-2.89v-6.4h.78v6.51a4.65,4.65,0,0,1-1.31,3.38,4.49,4.49,0,0,1-6.41,0,4.65,4.65,0,0,1-1.31-3.38v-6.51Z"/><path class="cls-18" d="M470.36,214.85v6.4a4.08,4.08,0,0,0,1.08,2.89,3.61,3.61,0,0,0,5.31,0,4.08,4.08,0,0,0,1.08-2.89v-6.4h.78v6.51a4.65,4.65,0,0,1-1.31,3.38,4.49,4.49,0,0,1-6.41,0,4.65,4.65,0,0,1-1.31-3.38v-6.51Z"/><path class="cls-17" d="M483.09,214.85l3.58,10.34v-.12a2.55,2.55,0,0,1,0-.29,2.13,2.13,0,0,1,.06-.26l3.32-9.68h1l3.32,9.66a3.35,3.35,0,0,1,.12.68l3.58-10.34h.92l-3.92,11.1h-1l-3.4-9.73a3.13,3.13,0,0,1-.12-.55l-.12.54q-3.39,9.73-3.4,9.74h-1l-3.92-11.1Z"/><path class="cls-18" d="M483.09,214.85l3.58,10.34v-.12a2.55,2.55,0,0,1,0-.29,2.13,2.13,0,0,1,.06-.26l3.32-9.68h1l3.32,9.66a3.35,3.35,0,0,1,.12.68l3.58-10.34h.92l-3.92,11.1h-1l-3.4-9.73a3.13,3.13,0,0,1-.12-.55l-.12.54q-3.39,9.73-3.4,9.74h-1l-3.92-11.1Z"/><path class="cls-17" d="M515.51,214.85a3.19,3.19,0,0,1,2.26.79,2.64,2.64,0,0,1,.86,2,2.6,2.6,0,0,1-.43,1.44,2.51,2.51,0,0,1-1.11,1,3,3,0,0,1,2,2.83,3,3,0,0,1-.84,2.16,3,3,0,0,1-2.28.88h-4.86v-11.1Zm-3.6,5h3.64a2.3,2.3,0,0,0,1.69-.61,2.11,2.11,0,0,0,.61-1.57,1.94,1.94,0,0,0-.64-1.52,2.5,2.5,0,0,0-1.74-.57h-3.57Zm0,5.37H516a2.18,2.18,0,0,0,1.72-.66,2.59,2.59,0,0,0-.06-3.36,2.3,2.3,0,0,0-1.77-.7h-4Z"/><path class="cls-18" d="M515.51,214.85a3.19,3.19,0,0,1,2.26.79,2.64,2.64,0,0,1,.86,2,2.6,2.6,0,0,1-.43,1.44,2.51,2.51,0,0,1-1.11,1,3,3,0,0,1,2,2.83,3,3,0,0,1-.84,2.16,3,3,0,0,1-2.28.88h-4.86v-11.1Zm-3.6,5h3.64a2.3,2.3,0,0,0,1.69-.61,2.11,2.11,0,0,0,.61-1.57,1.94,1.94,0,0,0-.64-1.52,2.5,2.5,0,0,0-1.74-.57h-3.57Zm0,5.37H516a2.18,2.18,0,0,0,1.72-.66,2.59,2.59,0,0,0-.06-3.36,2.3,2.3,0,0,0-1.77-.7h-4Z"/><path class="cls-17" d="M523.67,214.85v6.4a4.08,4.08,0,0,0,1.08,2.89,3.61,3.61,0,0,0,5.31,0,4.08,4.08,0,0,0,1.08-2.89v-6.4h.78v6.51a4.65,4.65,0,0,1-1.31,3.38,4.49,4.49,0,0,1-6.41,0,4.65,4.65,0,0,1-1.31-3.38v-6.51Z"/><path class="cls-18" d="M523.67,214.85v6.4a4.08,4.08,0,0,0,1.08,2.89,3.61,3.61,0,0,0,5.31,0,4.08,4.08,0,0,0,1.08-2.89v-6.4h.78v6.51a4.65,4.65,0,0,1-1.31,3.38,4.49,4.49,0,0,1-6.41,0,4.65,4.65,0,0,1-1.31-3.38v-6.51Z"/><path class="cls-17" d="M536.37,214.85v6.4a4.08,4.08,0,0,0,1.08,2.89,3.61,3.61,0,0,0,5.31,0,4.08,4.08,0,0,0,1.08-2.89v-6.4h.78v6.51a4.65,4.65,0,0,1-1.31,3.38,4.49,4.49,0,0,1-6.41,0,4.65,4.65,0,0,1-1.31-3.38v-6.51Z"/><path class="cls-18" d="M536.37,214.85v6.4a4.08,4.08,0,0,0,1.08,2.89,3.61,3.61,0,0,0,5.31,0,4.08,4.08,0,0,0,1.08-2.89v-6.4h.78v6.51a4.65,4.65,0,0,1-1.31,3.38,4.49,4.49,0,0,1-6.41,0,4.65,4.65,0,0,1-1.31-3.38v-6.51Z"/><path class="cls-17" d="M552.45,214.85a3.76,3.76,0,0,1,2.59.84,3.1,3.1,0,0,1,.28,4.15,3.29,3.29,0,0,1-1.8,1.07l1.25,2.53,1.24,2.51h-.85l-1-2.06-1.4-2.86h-3.35v4.91h-.8v-11.1Zm-3,5.47h3a3.13,3.13,0,0,0,2.06-.65,2.13,2.13,0,0,0,.78-1.73,2.1,2.1,0,0,0-.78-1.72,3.16,3.16,0,0,0-2.06-.64h-3Z"/><path class="cls-18" d="M552.45,214.85a3.76,3.76,0,0,1,2.59.84,3.1,3.1,0,0,1,.28,4.15,3.29,3.29,0,0,1-1.8,1.07l1.25,2.53,1.24,2.51h-.85l-1-2.06-1.4-2.86h-3.35v4.91h-.8v-11.1Zm-3,5.47h3a3.13,3.13,0,0,0,2.06-.65,2.13,2.13,0,0,0,.78-1.73,2.1,2.1,0,0,0-.78-1.72,3.16,3.16,0,0,0-2.06-.64h-3Z"/><polygon class="cls-17" points="568.39 214.85 568.39 215.53 564.47 215.53 564.47 225.95 563.7 225.95 563.7 215.53 559.79 215.53 559.79 214.85 568.39 214.85"/><polygon class="cls-18" points="568.39 214.85 568.39 215.53 564.47 215.53 564.47 225.95 563.7 225.95 563.7 215.53 559.79 215.53 559.79 214.85 568.39 214.85"/></g></g><image width="4080" height="3264" transform="translate(702 1) scale(0.18)" xlink:href="../Downloads/aris-sfakianakis-358841-unsplash.jpg"/><g class="cls-19"><g class="cls-20"><path class="cls-5" d="M899.92,191.48a6.08,6.08,0,1,1-6.08-6.08,6.08,6.08,0,0,1,6.08,6.08"/><path class="cls-6" d="M917.39,208.92a6.09,6.09,0,1,1-6.09-6.09,6.09,6.09,0,0,1,6.09,6.09"/><path class="cls-7" d="M899.92,226.36a6.08,6.08,0,1,1-6.08-6.08,6.08,6.08,0,0,1,6.08,6.08"/><path class="cls-8" d="M882.53,208.92a6.09,6.09,0,1,1-6.09-6.09,6.09,6.09,0,0,1,6.09,6.09"/><path class="cls-8" d="M861,241.84a37.83,37.83,0,0,1,0-65.84,37.88,37.88,0,0,0-2.11,32.92A37.87,37.87,0,0,0,861,241.84"/><path class="cls-9" d="M893.87,173.89a37.93,37.93,0,0,0-18.64,16.39,37.92,37.92,0,0,0-16.39,18.64A37.88,37.88,0,0,1,860.95,176a37.88,37.88,0,0,1,32.92-2.11"/><path class="cls-5" d="M926.79,176a37.87,37.87,0,0,0-32.92-2.12A37.88,37.88,0,0,0,860.95,176a37.83,37.83,0,0,1,65.84,0"/><path class="cls-10" d="M931.7,194.64a37.67,37.67,0,0,1-2.79,14.28,37.94,37.94,0,0,0-16.4-18.64,37.9,37.9,0,0,0-18.64-16.39A37.87,37.87,0,0,1,926.79,176a37.59,37.59,0,0,1,4.91,18.63"/><path class="cls-11" d="M912.5,190.28a37.39,37.39,0,0,0-17.41-4.88l-.58,0h-1.3l-.58,0a37.39,37.39,0,0,0-17.41,4.88,37.93,37.93,0,0,1,18.64-16.39,37.9,37.9,0,0,1,18.64,16.39"/><path class="cls-6" d="M946,208.92a37.79,37.79,0,0,1-19.19,32.92,37.86,37.86,0,0,0,2.12-32.92A37.87,37.87,0,0,0,926.79,176,37.8,37.8,0,0,1,946,208.92"/><path class="cls-12" d="M928.9,208.92a37.94,37.94,0,0,1-16.4,18.64,37.45,37.45,0,0,0,4.89-17.41c0-.19,0-.38,0-.58s0-.43,0-.65,0-.44,0-.65,0-.39,0-.58a37.45,37.45,0,0,0-4.89-17.41,37.94,37.94,0,0,1,16.4,18.64"/><path class="cls-13" d="M917.39,207.69A23.57,23.57,0,0,0,895.1,185.4a37.39,37.39,0,0,1,17.41,4.88,37.45,37.45,0,0,1,4.89,17.41"/><path class="cls-14" d="M931.7,223.2a37.55,37.55,0,0,1-4.91,18.64A37.86,37.86,0,0,1,893.87,244a37.94,37.94,0,0,0,18.64-16.4,37.94,37.94,0,0,0,16.4-18.64,37.65,37.65,0,0,1,2.79,14.28"/><path class="cls-12" d="M912.5,227.55A37.94,37.94,0,0,1,893.87,244a37.94,37.94,0,0,1-18.64-16.4,37.45,37.45,0,0,0,17.41,4.89l.58,0h1.3l.58,0a37.45,37.45,0,0,0,17.41-4.89"/><path class="cls-15" d="M917.39,210.15a37.45,37.45,0,0,1-4.89,17.41,37.45,37.45,0,0,1-17.41,4.89,23.57,23.57,0,0,0,22.29-22.29"/><path class="cls-7" d="M926.79,241.84a37.82,37.82,0,0,1-65.83,0A37.86,37.86,0,0,0,893.87,244a37.86,37.86,0,0,0,32.92-2.12"/><path class="cls-16" d="M893.87,244A37.86,37.86,0,0,1,861,241.84a37.87,37.87,0,0,1-2.12-32.92,37.9,37.9,0,0,0,16.39,18.64A37.94,37.94,0,0,0,893.87,244"/><path class="cls-15" d="M892.64,232.44a37.45,37.45,0,0,1-17.41-4.89,37.38,37.38,0,0,1-4.88-17.41,23.57,23.57,0,0,0,22.29,22.29"/><path class="cls-11" d="M870.35,210.15a37.38,37.38,0,0,0,4.88,17.41,37.9,37.9,0,0,1-16.39-18.64,37.93,37.93,0,0,1,16.39-18.64,37.38,37.38,0,0,0-4.88,17.41c0,.19,0,.38,0,.58s0,.43,0,.65,0,.44,0,.65,0,.39,0,.58"/><path class="cls-13" d="M892.64,185.4a23.56,23.56,0,0,0-22.29,22.29,37.38,37.38,0,0,1,4.88-17.41,37.38,37.38,0,0,1,17.41-4.88"/><path class="cls-17" d="M971.51,174.12a20.77,20.77,0,0,1,8.56,1.64,17.46,17.46,0,0,1,9.66,10.35,20.12,20.12,0,0,1,0,13.63,17.53,17.53,0,0,1-3.59,6,18,18,0,0,1-6.07,4.28,20.78,20.78,0,0,1-8.56,1.64h-5.42a1.95,1.95,0,0,1-2-2V176.07a1.95,1.95,0,0,1,2-2ZM969,178a.93.93,0,0,0-.71.31,1,1,0,0,0-.29.69V206.8a1,1,0,0,0,1,1h2.52a17.4,17.4,0,0,0,6.92-1.26,13.47,13.47,0,0,0,7.66-8.11,16.52,16.52,0,0,0,0-10.92,13.67,13.67,0,0,0-2.83-4.78,14,14,0,0,0-4.83-3.38,17.13,17.13,0,0,0-6.92-1.28Z"/><path class="cls-18" d="M971.51,174.12a20.77,20.77,0,0,1,8.56,1.64,17.46,17.46,0,0,1,9.66,10.35,20.12,20.12,0,0,1,0,13.63,17.53,17.53,0,0,1-3.59,6,18,18,0,0,1-6.07,4.28,20.78,20.78,0,0,1-8.56,1.64h-5.42a1.95,1.95,0,0,1-2-2V176.07a1.95,1.95,0,0,1,2-2ZM969,178a.93.93,0,0,0-.71.31,1,1,0,0,0-.29.69V206.8a1,1,0,0,0,1,1h2.52a17.4,17.4,0,0,0,6.92-1.26,13.47,13.47,0,0,0,7.66-8.11,16.52,16.52,0,0,0,0-10.92,13.67,13.67,0,0,0-2.83-4.78,14,14,0,0,0-4.83-3.38,17.13,17.13,0,0,0-6.92-1.28Z"/><path class="cls-17" d="M996.3,199.38a15.45,15.45,0,0,1,.74-4.95,13.11,13.11,0,0,1,2-3.85,11.94,11.94,0,0,1,4.69-3.64,14.67,14.67,0,0,1,5.92-1.21,14.1,14.1,0,0,1,4.61.74,11.93,11.93,0,0,1,3.69,2,9.3,9.3,0,0,1,2.43,3,7.91,7.91,0,0,1,.88,3.66,8.08,8.08,0,0,1-.86,3.66,8.89,8.89,0,0,1-2.43,3,12,12,0,0,1-3.81,2,15.89,15.89,0,0,1-5,.74,12.34,12.34,0,0,1-3.31-.4,13.73,13.73,0,0,1-2.57-1,10.64,10.64,0,0,1-1.88-1.19,10.52,10.52,0,0,1-1.19-1.09,10.19,10.19,0,0,0,1.09,3.73,8.33,8.33,0,0,0,2.14,2.62,8.89,8.89,0,0,0,2.83,1.52,10.37,10.37,0,0,0,3.21.5,10.07,10.07,0,0,0,4.09-.86,3.28,3.28,0,0,1,.43-.14,1.76,1.76,0,0,1,.43,0,1.95,1.95,0,0,1,2,2,1.86,1.86,0,0,1-.33,1.09,2.07,2.07,0,0,1-.86.71,13.85,13.85,0,0,1-5.71,1.19,14.47,14.47,0,0,1-4.8-.83,12,12,0,0,1-4.23-2.55,13.1,13.1,0,0,1-3-4.28,14.49,14.49,0,0,1-1.17-6m13.32-9.75a10.52,10.52,0,0,0-2.95.43,10.25,10.25,0,0,0-2.64,1.16,6.94,6.94,0,0,0-1.9,1.74,3.53,3.53,0,0,0-.74,2.14,3.47,3.47,0,0,0,.67,2,7,7,0,0,0,1.78,1.76,9.52,9.52,0,0,0,2.62,1.26,11.3,11.3,0,0,0,6.56,0,8,8,0,0,0,2.43-1.28,5.19,5.19,0,0,0,1.45-1.76,4.36,4.36,0,0,0,.48-1.93,4.23,4.23,0,0,0-.43-1.71,5.4,5.4,0,0,0-1.36-1.78,7.76,7.76,0,0,0-2.4-1.4,9.9,9.9,0,0,0-3.57-.57"/><path class="cls-18" d="M996.3,199.38a15.45,15.45,0,0,1,.74-4.95,13.11,13.11,0,0,1,2-3.85,11.94,11.94,0,0,1,4.69-3.64,14.67,14.67,0,0,1,5.92-1.21,14.1,14.1,0,0,1,4.61.74,11.93,11.93,0,0,1,3.69,2,9.3,9.3,0,0,1,2.43,3,7.91,7.91,0,0,1,.88,3.66,8.08,8.08,0,0,1-.86,3.66,8.89,8.89,0,0,1-2.43,3,12,12,0,0,1-3.81,2,15.89,15.89,0,0,1-5,.74,12.34,12.34,0,0,1-3.31-.4,13.73,13.73,0,0,1-2.57-1,10.64,10.64,0,0,1-1.88-1.19,10.52,10.52,0,0,1-1.19-1.09,10.19,10.19,0,0,0,1.09,3.73,8.33,8.33,0,0,0,2.14,2.62,8.89,8.89,0,0,0,2.83,1.52,10.37,10.37,0,0,0,3.21.5,10.07,10.07,0,0,0,4.09-.86,3.28,3.28,0,0,1,.43-.14,1.76,1.76,0,0,1,.43,0,1.95,1.95,0,0,1,2,2,1.86,1.86,0,0,1-.33,1.09,2.07,2.07,0,0,1-.86.71,13.85,13.85,0,0,1-5.71,1.19,14.47,14.47,0,0,1-4.8-.83,12,12,0,0,1-4.23-2.55,13.1,13.1,0,0,1-3-4.28A14.49,14.49,0,0,1,996.3,199.38Zm13.32-9.75a10.52,10.52,0,0,0-2.95.43,10.25,10.25,0,0,0-2.64,1.16,6.94,6.94,0,0,0-1.9,1.74,3.53,3.53,0,0,0-.74,2.14,3.47,3.47,0,0,0,.67,2,7,7,0,0,0,1.78,1.76,9.52,9.52,0,0,0,2.62,1.26,11.3,11.3,0,0,0,6.56,0,8,8,0,0,0,2.43-1.28,5.19,5.19,0,0,0,1.45-1.76,4.36,4.36,0,0,0,.48-1.93,4.23,4.23,0,0,0-.43-1.71,5.4,5.4,0,0,0-1.36-1.78,7.76,7.76,0,0,0-2.4-1.4A9.9,9.9,0,0,0,1009.62,189.63Z"/><path class="cls-17" d="M1044.58,211.6a1.75,1.75,0,0,1-1.07-.43,1.47,1.47,0,0,1-.55-1.24,1.68,1.68,0,0,1,.29-1l21.36-31h-19.69a1.8,1.8,0,0,1-1.36-.57,1.92,1.92,0,0,1-.55-1.38,1.76,1.76,0,0,1,.55-1.33,1.88,1.88,0,0,1,1.36-.52h23.17a1.68,1.68,0,0,1,1,.29,1.63,1.63,0,0,1,.71,1.38,1.68,1.68,0,0,1-.29,1l-21.36,31h20a1.89,1.89,0,0,1,1.36.52,1.82,1.82,0,0,1,.55,1.38,1.87,1.87,0,0,1-1.9,1.9Z"/><path class="cls-18" d="M1044.58,211.6a1.75,1.75,0,0,1-1.07-.43,1.47,1.47,0,0,1-.55-1.24,1.68,1.68,0,0,1,.29-1l21.36-31h-19.69a1.8,1.8,0,0,1-1.36-.57,1.92,1.92,0,0,1-.55-1.38,1.76,1.76,0,0,1,.55-1.33,1.88,1.88,0,0,1,1.36-.52h23.17a1.68,1.68,0,0,1,1,.29,1.63,1.63,0,0,1,.71,1.38,1.68,1.68,0,0,1-.29,1l-21.36,31h20a1.89,1.89,0,0,1,1.36.52,1.82,1.82,0,0,1,.55,1.38,1.87,1.87,0,0,1-1.9,1.9Z"/><path class="cls-17" d="M1087.63,213.08a14.46,14.46,0,0,1-4.8-.83,12,12,0,0,1-4.23-2.55,13.11,13.11,0,0,1-3-4.28,14.5,14.5,0,0,1-1.17-6,14.77,14.77,0,0,1,1.14-6,12.22,12.22,0,0,1,7.28-6.78,14.46,14.46,0,0,1,4.8-.83,14.6,14.6,0,0,1,4.85.83,12.24,12.24,0,0,1,4.23,2.52,12.56,12.56,0,0,1,3,4.26,16.56,16.56,0,0,1,0,12.08,12.65,12.65,0,0,1-3,4.28,12.28,12.28,0,0,1-4.26,2.55,14.47,14.47,0,0,1-4.8.83m0-3.9a10.7,10.7,0,0,0,3.45-.57,8.25,8.25,0,0,0,3-1.78,8.76,8.76,0,0,0,2.09-3.07,12.6,12.6,0,0,0,0-8.75,8.53,8.53,0,0,0-2.09-3,8.42,8.42,0,0,0-3-1.76,10.7,10.7,0,0,0-6.9,0,8.42,8.42,0,0,0-3,1.76,8.53,8.53,0,0,0-2.09,3,11.17,11.17,0,0,0-.79,4.38,10.86,10.86,0,0,0,.81,4.38,9,9,0,0,0,2.12,3.07,8.27,8.27,0,0,0,3,1.78,10.47,10.47,0,0,0,3.42.57"/><path class="cls-18" d="M1087.63,213.08a14.46,14.46,0,0,1-4.8-.83,12,12,0,0,1-4.23-2.55,13.11,13.11,0,0,1-3-4.28,14.5,14.5,0,0,1-1.17-6,14.77,14.77,0,0,1,1.14-6,12.22,12.22,0,0,1,7.28-6.78,14.46,14.46,0,0,1,4.8-.83,14.6,14.6,0,0,1,4.85.83,12.24,12.24,0,0,1,4.23,2.52,12.56,12.56,0,0,1,3,4.26,16.56,16.56,0,0,1,0,12.08,12.65,12.65,0,0,1-3,4.28,12.28,12.28,0,0,1-4.26,2.55A14.47,14.47,0,0,1,1087.63,213.08Zm0-3.9a10.7,10.7,0,0,0,3.45-.57,8.25,8.25,0,0,0,3-1.78,8.76,8.76,0,0,0,2.09-3.07,12.6,12.6,0,0,0,0-8.75,8.53,8.53,0,0,0-2.09-3,8.42,8.42,0,0,0-3-1.76,10.7,10.7,0,0,0-6.9,0,8.42,8.42,0,0,0-3,1.76,8.53,8.53,0,0,0-2.09,3,11.17,11.17,0,0,0-.79,4.38,10.86,10.86,0,0,0,.81,4.38,9,9,0,0,0,2.12,3.07,8.27,8.27,0,0,0,3,1.78A10.47,10.47,0,0,0,1087.63,209.18Z"/><path class="cls-17" d="M1111.27,210.18a2,2,0,1,1-3.9,0V199.33a14.78,14.78,0,0,1,1.14-6,12.22,12.22,0,0,1,7.28-6.78,14.47,14.47,0,0,1,4.8-.83,14,14,0,0,1,5.8,1.2,2,2,0,0,1,.78.72,2,2,0,0,1-.26,2.45,1.87,1.87,0,0,1-1.38.58,2,2,0,0,1-.81-.15,9.8,9.8,0,0,0-4.14-.9,10.63,10.63,0,0,0-3.47.57,8.3,8.3,0,0,0-5.07,4.8,11.18,11.18,0,0,0-.78,4.38Z"/><path class="cls-18" d="M1111.27,210.18a2,2,0,1,1-3.9,0V199.33a14.78,14.78,0,0,1,1.14-6,12.22,12.22,0,0,1,7.28-6.78,14.47,14.47,0,0,1,4.8-.83,14,14,0,0,1,5.8,1.2,2,2,0,0,1,.78.72,2,2,0,0,1-.26,2.45,1.87,1.87,0,0,1-1.38.58,2,2,0,0,1-.81-.15,9.8,9.8,0,0,0-4.14-.9,10.63,10.63,0,0,0-3.47.57,8.3,8.3,0,0,0-5.07,4.8,11.18,11.18,0,0,0-.78,4.38Z"/><path class="cls-17" d="M1144.86,213a14.45,14.45,0,0,1-4.8-.83,12,12,0,0,1-4.23-2.54,13.12,13.12,0,0,1-3-4.28,14.51,14.51,0,0,1-1.16-6,14.8,14.8,0,0,1,1.14-6,12.23,12.23,0,0,1,7.28-6.78,14.45,14.45,0,0,1,4.8-.83,14.61,14.61,0,0,1,4.85.83,12.25,12.25,0,0,1,4.23,2.52,12.57,12.57,0,0,1,3,4.26,14.8,14.8,0,0,1,1.14,6v12a14.8,14.8,0,0,1-1.14,6,12.66,12.66,0,0,1-3,4.28,12.29,12.29,0,0,1-4.26,2.54,14.47,14.47,0,0,1-4.8.83,2,2,0,1,1,0-3.9,10.71,10.71,0,0,0,3.45-.57,8.26,8.26,0,0,0,3-1.78,8.78,8.78,0,0,0,2.09-3.07,11.19,11.19,0,0,0,.78-4.38v-1.9a12.6,12.6,0,0,1-4.33,2.71,14.23,14.23,0,0,1-5,.9m0-3.9a10.71,10.71,0,0,0,3.45-.57,8.25,8.25,0,0,0,3-1.78,8.82,8.82,0,0,0,2.09-3,12.67,12.67,0,0,0,0-8.78,8.52,8.52,0,0,0-2.09-3,8.43,8.43,0,0,0-3-1.76,10.7,10.7,0,0,0-6.9,0,8.4,8.4,0,0,0-3,1.76,8.52,8.52,0,0,0-2.09,3,11.19,11.19,0,0,0-.78,4.38,10.81,10.81,0,0,0,.81,4.4,9.06,9.06,0,0,0,2.12,3,8.26,8.26,0,0,0,3,1.78,10.49,10.49,0,0,0,3.43.57"/><path class="cls-18" d="M1144.86,213a14.45,14.45,0,0,1-4.8-.83,12,12,0,0,1-4.23-2.54,13.12,13.12,0,0,1-3-4.28,14.51,14.51,0,0,1-1.16-6,14.8,14.8,0,0,1,1.14-6,12.23,12.23,0,0,1,7.28-6.78,14.45,14.45,0,0,1,4.8-.83,14.61,14.61,0,0,1,4.85.83,12.25,12.25,0,0,1,4.23,2.52,12.57,12.57,0,0,1,3,4.26,14.8,14.8,0,0,1,1.14,6v12a14.8,14.8,0,0,1-1.14,6,12.66,12.66,0,0,1-3,4.28,12.29,12.29,0,0,1-4.26,2.54,14.47,14.47,0,0,1-4.8.83,2,2,0,1,1,0-3.9,10.71,10.71,0,0,0,3.45-.57,8.26,8.26,0,0,0,3-1.78,8.78,8.78,0,0,0,2.09-3.07,11.19,11.19,0,0,0,.78-4.38v-1.9a12.6,12.6,0,0,1-4.33,2.71A14.23,14.23,0,0,1,1144.86,213Zm0-3.9a10.71,10.71,0,0,0,3.45-.57,8.25,8.25,0,0,0,3-1.78,8.82,8.82,0,0,0,2.09-3,12.67,12.67,0,0,0,0-8.78,8.52,8.52,0,0,0-2.09-3,8.43,8.43,0,0,0-3-1.76,10.7,10.7,0,0,0-6.9,0,8.4,8.4,0,0,0-3,1.76,8.52,8.52,0,0,0-2.09,3,11.19,11.19,0,0,0-.78,4.38,10.81,10.81,0,0,0,.81,4.4,9.06,9.06,0,0,0,2.12,3,8.26,8.26,0,0,0,3,1.78A10.49,10.49,0,0,0,1144.86,209.13Z"/><path class="cls-17" d="M1183.86,186.92a1.8,1.8,0,0,1,1.14,1.76,1.95,1.95,0,0,1-2,2,2,2,0,0,1-.81-.19,10.18,10.18,0,0,0-4.14-.86,10.63,10.63,0,0,0-3.47.57,8.31,8.31,0,0,0-5.07,4.8,12.66,12.66,0,0,0,0,8.78,8.82,8.82,0,0,0,2.09,3,8.26,8.26,0,0,0,3,1.78,10.62,10.62,0,0,0,3.47.57,10.07,10.07,0,0,0,4.09-.86,2.11,2.11,0,0,1,.86-.19,2,2,0,0,1,1.62,3,2.07,2.07,0,0,1-.86.71,13.44,13.44,0,0,1-5.71,1.19,14.45,14.45,0,0,1-4.8-.83,12,12,0,0,1-4.24-2.54,13.09,13.09,0,0,1-3-4.28,14.49,14.49,0,0,1-1.17-6,14.77,14.77,0,0,1,1.14-6,12.22,12.22,0,0,1,7.28-6.78,14.46,14.46,0,0,1,4.8-.83,15.1,15.1,0,0,1,2.92.29,11.63,11.63,0,0,1,2.83,1"/><path class="cls-18" d="M1183.86,186.92a1.8,1.8,0,0,1,1.14,1.76,1.95,1.95,0,0,1-2,2,2,2,0,0,1-.81-.19,10.18,10.18,0,0,0-4.14-.86,10.63,10.63,0,0,0-3.47.57,8.31,8.31,0,0,0-5.07,4.8,12.66,12.66,0,0,0,0,8.78,8.82,8.82,0,0,0,2.09,3,8.26,8.26,0,0,0,3,1.78,10.62,10.62,0,0,0,3.47.57,10.07,10.07,0,0,0,4.09-.86,2.11,2.11,0,0,1,.86-.19,2,2,0,0,1,1.62,3,2.07,2.07,0,0,1-.86.71,13.44,13.44,0,0,1-5.71,1.19,14.45,14.45,0,0,1-4.8-.83,12,12,0,0,1-4.24-2.54,13.09,13.09,0,0,1-3-4.28,14.49,14.49,0,0,1-1.17-6,14.77,14.77,0,0,1,1.14-6,12.22,12.22,0,0,1,7.28-6.78,14.46,14.46,0,0,1,4.8-.83,15.1,15.1,0,0,1,2.92.29A11.63,11.63,0,0,1,1183.86,186.92Z"/><path class="cls-17" d="M1190.71,180.18a2.08,2.08,0,0,1,.48-1.32,2.11,2.11,0,0,1,2.95,0,2.09,2.09,0,0,1,.48,1.32,2,2,0,0,1-.48,1.28,2.11,2.11,0,0,1-2.95,0,2,2,0,0,1-.48-1.28m0,8.35a2,2,0,1,1,3.9,0v12.75a9.23,9.23,0,0,0,1.26,4.64,10.14,10.14,0,0,0,3.31,3.54,1.7,1.7,0,0,1,.69.74,2.13,2.13,0,0,1,.22.93,2,2,0,0,1-.55,1.36,1.77,1.77,0,0,1-1.36.6,2.7,2.7,0,0,1-1.4-.45,8.53,8.53,0,0,1-1.45-1.14,17.15,17.15,0,0,1-2.38-2.88,15.79,15.79,0,0,1-1.62-3.38,11.38,11.38,0,0,1-.62-3.71Z"/><path class="cls-18" d="M1190.71,180.18a2.08,2.08,0,0,1,.48-1.32,2.11,2.11,0,0,1,2.95,0,2.09,2.09,0,0,1,.48,1.32,2,2,0,0,1-.48,1.28,2.11,2.11,0,0,1-2.95,0A2,2,0,0,1,1190.71,180.18Zm0,8.35a2,2,0,1,1,3.9,0v12.75a9.23,9.23,0,0,0,1.26,4.64,10.14,10.14,0,0,0,3.31,3.54,1.7,1.7,0,0,1,.69.74,2.13,2.13,0,0,1,.22.93,2,2,0,0,1-.55,1.36,1.77,1.77,0,0,1-1.36.6,2.7,2.7,0,0,1-1.4-.45,8.53,8.53,0,0,1-1.45-1.14,17.15,17.15,0,0,1-2.38-2.88,15.79,15.79,0,0,1-1.62-3.38,11.38,11.38,0,0,1-.62-3.71Z"/><path class="cls-17" d="M1209.41,210.18a2,2,0,1,1-3.9,0V199.33a14.78,14.78,0,0,1,1.14-6,12.22,12.22,0,0,1,7.28-6.78,14.47,14.47,0,0,1,4.8-.83,14,14,0,0,1,5.8,1.2,2,2,0,0,1,.78.72,2,2,0,0,1-.26,2.45,1.87,1.87,0,0,1-1.38.58,2,2,0,0,1-.81-.15,9.8,9.8,0,0,0-4.14-.9,10.63,10.63,0,0,0-3.47.57,8.29,8.29,0,0,0-5.07,4.8,11.15,11.15,0,0,0-.79,4.38Z"/><path class="cls-18" d="M1209.41,210.18a2,2,0,1,1-3.9,0V199.33a14.78,14.78,0,0,1,1.14-6,12.22,12.22,0,0,1,7.28-6.78,14.47,14.47,0,0,1,4.8-.83,14,14,0,0,1,5.8,1.2,2,2,0,0,1,.78.72,2,2,0,0,1-.26,2.45,1.87,1.87,0,0,1-1.38.58,2,2,0,0,1-.81-.15,9.8,9.8,0,0,0-4.14-.9,10.63,10.63,0,0,0-3.47.57,8.29,8.29,0,0,0-5.07,4.8,11.15,11.15,0,0,0-.79,4.38Z"/><path class="cls-17" d="M1248,194.48a14,14,0,0,1,3.64,1.59,11.77,11.77,0,0,1,3,2.71,12.8,12.8,0,0,1,2.07,3.85,15.41,15.41,0,0,1,.76,5v2.52a2,2,0,1,1-3.9,0v-2.52a11.18,11.18,0,0,0-.79-4.38,8.57,8.57,0,0,0-2.09-3,8.44,8.44,0,0,0-3-1.76,10.78,10.78,0,0,0-6.92,0,8.45,8.45,0,0,0-3,1.76,8.55,8.55,0,0,0-2.09,3,11.18,11.18,0,0,0-.78,4.38v2.52a2,2,0,1,1-3.9,0V175.64a2,2,0,1,1,3.9,0v19.55a1.18,1.18,0,0,0,.33.83,1.12,1.12,0,0,0,.86.36,1.27,1.27,0,0,0,.62-.24,17.68,17.68,0,0,1,4-1.71,1.94,1.94,0,0,0,1.14-.76l5-7.23a1.86,1.86,0,0,1,1.62-.81,1.82,1.82,0,0,1,1.4.59,1.87,1.87,0,0,1,.17,2.45l-2.71,4a1.36,1.36,0,0,0-.24.71,1,1,0,0,0,.86,1.09"/><path class="cls-18" d="M1248,194.48a14,14,0,0,1,3.64,1.59,11.77,11.77,0,0,1,3,2.71,12.8,12.8,0,0,1,2.07,3.85,15.41,15.41,0,0,1,.76,5v2.52a2,2,0,1,1-3.9,0v-2.52a11.18,11.18,0,0,0-.79-4.38,8.57,8.57,0,0,0-2.09-3,8.44,8.44,0,0,0-3-1.76,10.78,10.78,0,0,0-6.92,0,8.45,8.45,0,0,0-3,1.76,8.55,8.55,0,0,0-2.09,3,11.18,11.18,0,0,0-.78,4.38v2.52a2,2,0,1,1-3.9,0V175.64a2,2,0,1,1,3.9,0v19.55a1.18,1.18,0,0,0,.33.83,1.12,1.12,0,0,0,.86.36,1.27,1.27,0,0,0,.62-.24,17.68,17.68,0,0,1,4-1.71,1.94,1.94,0,0,0,1.14-.76l5-7.23a1.86,1.86,0,0,1,1.62-.81,1.82,1.82,0,0,1,1.4.59,1.87,1.87,0,0,1,.17,2.45l-2.71,4a1.36,1.36,0,0,0-.24.71A1,1,0,0,0,1248,194.48Z"/><path class="cls-17" d="M1263.11,199.38a15.44,15.44,0,0,1,.74-4.95,13.08,13.08,0,0,1,2-3.85,11.93,11.93,0,0,1,4.68-3.64,14.67,14.67,0,0,1,5.92-1.21,14.1,14.1,0,0,1,4.61.74,11.93,11.93,0,0,1,3.69,2,9.27,9.27,0,0,1,2.43,3,7.89,7.89,0,0,1,.88,3.66,8.07,8.07,0,0,1-.86,3.66,8.88,8.88,0,0,1-2.43,3,12,12,0,0,1-3.81,2,15.89,15.89,0,0,1-5,.74,12.33,12.33,0,0,1-3.31-.4,13.75,13.75,0,0,1-2.57-1,10.74,10.74,0,0,1-3.07-2.28,10.23,10.23,0,0,0,1.09,3.73,8.34,8.34,0,0,0,2.14,2.62,8.88,8.88,0,0,0,2.83,1.52,10.37,10.37,0,0,0,3.21.5,10.06,10.06,0,0,0,4.09-.86,3.27,3.27,0,0,1,.43-.14,1.76,1.76,0,0,1,.43,0,1.95,1.95,0,0,1,1.95,2,1.86,1.86,0,0,1-.33,1.09,2.07,2.07,0,0,1-.86.71,13.86,13.86,0,0,1-5.71,1.19,14.48,14.48,0,0,1-4.8-.83,12,12,0,0,1-4.23-2.55,13.1,13.1,0,0,1-3-4.28,14.5,14.5,0,0,1-1.16-6m13.32-9.75a10.53,10.53,0,0,0-2.95.43,10.25,10.25,0,0,0-2.64,1.16,7,7,0,0,0-1.9,1.74,3.53,3.53,0,0,0-.74,2.14,3.46,3.46,0,0,0,.67,2,7,7,0,0,0,1.78,1.76,9.51,9.51,0,0,0,2.62,1.26,11.3,11.3,0,0,0,6.57,0,8,8,0,0,0,2.43-1.28,5.2,5.2,0,0,0,1.45-1.76,4.37,4.37,0,0,0,.47-1.93,4.22,4.22,0,0,0-.43-1.71,5.38,5.38,0,0,0-1.35-1.78,7.75,7.75,0,0,0-2.4-1.4,9.91,9.91,0,0,0-3.57-.57"/><path class="cls-18" d="M1263.11,199.38a15.44,15.44,0,0,1,.74-4.95,13.08,13.08,0,0,1,2-3.85,11.93,11.93,0,0,1,4.68-3.64,14.67,14.67,0,0,1,5.92-1.21,14.1,14.1,0,0,1,4.61.74,11.93,11.93,0,0,1,3.69,2,9.27,9.27,0,0,1,2.43,3,7.89,7.89,0,0,1,.88,3.66,8.07,8.07,0,0,1-.86,3.66,8.88,8.88,0,0,1-2.43,3,12,12,0,0,1-3.81,2,15.89,15.89,0,0,1-5,.74,12.33,12.33,0,0,1-3.31-.4,13.75,13.75,0,0,1-2.57-1,10.74,10.74,0,0,1-3.07-2.28,10.23,10.23,0,0,0,1.09,3.73,8.34,8.34,0,0,0,2.14,2.62,8.88,8.88,0,0,0,2.83,1.52,10.37,10.37,0,0,0,3.21.5,10.06,10.06,0,0,0,4.09-.86,3.27,3.27,0,0,1,.43-.14,1.76,1.76,0,0,1,.43,0,1.95,1.95,0,0,1,1.95,2,1.86,1.86,0,0,1-.33,1.09,2.07,2.07,0,0,1-.86.71,13.86,13.86,0,0,1-5.71,1.19,14.48,14.48,0,0,1-4.8-.83,12,12,0,0,1-4.23-2.55,13.1,13.1,0,0,1-3-4.28A14.5,14.5,0,0,1,1263.11,199.38Zm13.32-9.75a10.53,10.53,0,0,0-2.95.43,10.25,10.25,0,0,0-2.64,1.16,7,7,0,0,0-1.9,1.74,3.53,3.53,0,0,0-.74,2.14,3.46,3.46,0,0,0,.67,2,7,7,0,0,0,1.78,1.76,9.51,9.51,0,0,0,2.62,1.26,11.3,11.3,0,0,0,6.57,0,8,8,0,0,0,2.43-1.28,5.2,5.2,0,0,0,1.45-1.76,4.37,4.37,0,0,0,.47-1.93,4.22,4.22,0,0,0-.43-1.71,5.38,5.38,0,0,0-1.35-1.78,7.75,7.75,0,0,0-2.4-1.4A9.91,9.91,0,0,0,1276.43,189.63Z"/><path class="cls-17" d="M1294.6,175.69a2,2,0,0,1,3.9,0v23.69a10.89,10.89,0,0,0,.81,4.38,9,9,0,0,0,2.12,3.07,8.26,8.26,0,0,0,3,1.78,10.47,10.47,0,0,0,3.42.57,2,2,0,1,1,0,3.9,14.47,14.47,0,0,1-4.8-.83,12,12,0,0,1-4.23-2.55,13.09,13.09,0,0,1-3-4.28,14.5,14.5,0,0,1-1.17-6Z"/><path class="cls-18" d="M1294.6,175.69a2,2,0,0,1,3.9,0v23.69a10.89,10.89,0,0,0,.81,4.38,9,9,0,0,0,2.12,3.07,8.26,8.26,0,0,0,3,1.78,10.47,10.47,0,0,0,3.42.57,2,2,0,1,1,0,3.9,14.47,14.47,0,0,1-4.8-.83,12,12,0,0,1-4.23-2.55,13.09,13.09,0,0,1-3-4.28,14.5,14.5,0,0,1-1.17-6Z"/><path class="cls-17" d="M969.73,232.85l4.6,11.1h-.86l-1.34-3.24H966.3L965,243.95h-.87l4.6-11.1Zm-.64,1.08q-2.51,6.11-2.52,6.11h5.29l-2.51-6.11a2.53,2.53,0,0,1-.14-.54Z"/><path class="cls-18" d="M969.73,232.85l4.6,11.1h-.86l-1.34-3.24H966.3L965,243.95h-.87l4.6-11.1Zm-.64,1.08q-2.51,6.11-2.52,6.11h5.29l-2.51-6.11a2.53,2.53,0,0,1-.14-.54Z"/><path class="cls-17" d="M983.42,232.85l4.6,11.1h-.86l-1.34-3.24H980l-1.33,3.24h-.87l4.6-11.1Zm-.64,1.08q-2.51,6.11-2.52,6.11h5.29L983,233.93a2.53,2.53,0,0,1-.14-.54Z"/><path class="cls-18" d="M983.42,232.85l4.6,11.1h-.86l-1.34-3.24H980l-1.33,3.24h-.87l4.6-11.1Zm-.64,1.08q-2.51,6.11-2.52,6.11h5.29L983,233.93a2.53,2.53,0,0,1-.14-.54Z"/><path class="cls-17" d="M992.67,232.85l6.83,9.7a2.22,2.22,0,0,1,.22.53V232.85h.77v11.1h-1l-6.61-9.44a2.44,2.44,0,0,1-.23-.53v10h-.77v-11.1Z"/><path class="cls-18" d="M992.67,232.85l6.83,9.7a2.22,2.22,0,0,1,.22.53V232.85h.77v11.1h-1l-6.61-9.44a2.44,2.44,0,0,1-.23-.53v10h-.77v-11.1Z"/><path class="cls-17" d="M1013,233.43a5,5,0,0,1,2,2h-.86a4.54,4.54,0,0,0-.57-.7,5.16,5.16,0,0,0-6.79,0,5.53,5.53,0,0,0,0,7.29,5.16,5.16,0,0,0,6.79,0,4.45,4.45,0,0,0,.8-1.07v-1.71h-3v-.65h3.74V244h-.76v-2.12a1.6,1.6,0,0,1-.45.87,5.44,5.44,0,0,1-3.74,1.37,5.78,5.78,0,0,1-2.15-.4,5.34,5.34,0,0,1-1.76-1.13,5.18,5.18,0,0,1-1.19-1.8,6.59,6.59,0,0,1,0-4.72,5.19,5.19,0,0,1,1.19-1.8,5.36,5.36,0,0,1,1.76-1.13,5.79,5.79,0,0,1,2.15-.4,5.68,5.68,0,0,1,2.84.72"/><path class="cls-18" d="M1013,233.43a5,5,0,0,1,2,2h-.86a4.54,4.54,0,0,0-.57-.7,5.16,5.16,0,0,0-6.79,0,5.53,5.53,0,0,0,0,7.29,5.16,5.16,0,0,0,6.79,0,4.45,4.45,0,0,0,.8-1.07v-1.71h-3v-.65h3.74V244h-.76v-2.12a1.6,1.6,0,0,1-.45.87,5.44,5.44,0,0,1-3.74,1.37,5.78,5.78,0,0,1-2.15-.4,5.34,5.34,0,0,1-1.76-1.13,5.18,5.18,0,0,1-1.19-1.8,6.59,6.59,0,0,1,0-4.72,5.19,5.19,0,0,1,1.19-1.8,5.36,5.36,0,0,1,1.76-1.13,5.79,5.79,0,0,1,2.15-.4A5.68,5.68,0,0,1,1013,233.43Z"/><polygon class="cls-17" points="1026.17 232.85 1026.17 233.53 1020.03 233.53 1020.03 238 1025.49 238 1025.49 238.65 1020.03 238.65 1020.03 243.22 1026.17 243.22 1026.17 243.95 1019.26 243.95 1019.26 232.85 1026.17 232.85"/><polygon class="cls-18" points="1026.17 232.85 1026.17 233.53 1020.03 233.53 1020.03 238 1025.49 238 1025.49 238.65 1020.03 238.65 1020.03 243.22 1026.17 243.22 1026.17 243.95 1019.26 243.95 1019.26 232.85 1026.17 232.85"/><path class="cls-17" d="M1034.2,232.85a3.5,3.5,0,0,1,2.57.95,3.2,3.2,0,0,1,1,2.37,3.16,3.16,0,0,1-1,2.36,3.51,3.51,0,0,1-2.54,1h-3v4.46h-.8v-11.1Zm-3,5.91h3a2.93,2.93,0,0,0,2-.75,2.54,2.54,0,0,0,0-3.69,2.88,2.88,0,0,0-2-.74h-3Z"/><path class="cls-18" d="M1034.2,232.85a3.5,3.5,0,0,1,2.57.95,3.2,3.2,0,0,1,1,2.37,3.16,3.16,0,0,1-1,2.36,3.51,3.51,0,0,1-2.54,1h-3v4.46h-.8v-11.1Zm-3,5.91h3a2.93,2.93,0,0,0,2-.75,2.54,2.54,0,0,0,0-3.69,2.88,2.88,0,0,0-2-.74h-3Z"/><path class="cls-17" d="M1045.77,232.85l4.6,11.1h-.86l-1.34-3.24h-5.83l-1.33,3.24h-.87l4.6-11.1Zm-.64,1.08q-2.51,6.11-2.52,6.11h5.29l-2.51-6.11a2.5,2.5,0,0,1-.14-.54Z"/><path class="cls-18" d="M1045.77,232.85l4.6,11.1h-.86l-1.34-3.24h-5.83l-1.33,3.24h-.87l4.6-11.1Zm-.64,1.08q-2.51,6.11-2.52,6.11h5.29l-2.51-6.11a2.5,2.5,0,0,1-.14-.54Z"/><path class="cls-17" d="M1060,233a5.83,5.83,0,0,1,1.7.76l-.37.63a5.11,5.11,0,0,0-1.52-.7,6.08,6.08,0,0,0-2-.3,3.4,3.4,0,0,0-2,.62,1.84,1.84,0,0,0-.79,1.48,1.69,1.69,0,0,0,1,1.63,10,10,0,0,0,2.39.64,12.09,12.09,0,0,1,2.38.59,2.79,2.79,0,0,1,1.44,1.26,2.55,2.55,0,0,1,.24,1.86,2.88,2.88,0,0,1-1.56,2,5.75,5.75,0,0,1-2.48.54,8.21,8.21,0,0,1-2.45-.36,5.91,5.91,0,0,1-2-1l.36-.68a4.72,4.72,0,0,0,1.67.88,7.23,7.23,0,0,0,2.42.36,4.33,4.33,0,0,0,2.22-.48,2.3,2.3,0,0,0,.67-.65,2.11,2.11,0,0,0,.36-.87,2,2,0,0,0-.19-1.3,1.9,1.9,0,0,0-1-.88,13.56,13.56,0,0,0-2.36-.61,12,12,0,0,1-2.47-.68,2.25,2.25,0,0,1-1.07-.93,2.39,2.39,0,0,1-.31-1.4,2.65,2.65,0,0,1,1-2,4.16,4.16,0,0,1,2.5-.79,6.6,6.6,0,0,1,2.23.33"/><path class="cls-18" d="M1060,233a5.83,5.83,0,0,1,1.7.76l-.37.63a5.11,5.11,0,0,0-1.52-.7,6.08,6.08,0,0,0-2-.3,3.4,3.4,0,0,0-2,.62,1.84,1.84,0,0,0-.79,1.48,1.69,1.69,0,0,0,1,1.63,10,10,0,0,0,2.39.64,12.09,12.09,0,0,1,2.38.59,2.79,2.79,0,0,1,1.44,1.26,2.55,2.55,0,0,1,.24,1.86,2.88,2.88,0,0,1-1.56,2,5.75,5.75,0,0,1-2.48.54,8.21,8.21,0,0,1-2.45-.36,5.91,5.91,0,0,1-2-1l.36-.68a4.72,4.72,0,0,0,1.67.88,7.23,7.23,0,0,0,2.42.36,4.33,4.33,0,0,0,2.22-.48,2.3,2.3,0,0,0,.67-.65,2.11,2.11,0,0,0,.36-.87,2,2,0,0,0-.19-1.3,1.9,1.9,0,0,0-1-.88,13.56,13.56,0,0,0-2.36-.61,12,12,0,0,1-2.47-.68,2.25,2.25,0,0,1-1.07-.93,2.39,2.39,0,0,1-.31-1.4,2.65,2.65,0,0,1,1-2,4.16,4.16,0,0,1,2.5-.79A6.6,6.6,0,0,1,1060,233Z"/><polygon class="cls-17" points="1075.1 232.85 1075.1 233.53 1071.18 233.53 1071.18 243.95 1070.41 243.95 1070.41 233.53 1066.51 233.53 1066.51 232.85 1075.1 232.85"/><polygon class="cls-18" points="1075.1 232.85 1075.1 233.53 1071.18 233.53 1071.18 243.95 1070.41 243.95 1070.41 233.53 1066.51 233.53 1066.51 232.85 1075.1 232.85"/><polygon class="cls-17" points="1085.99 232.85 1085.99 233.53 1079.85 233.53 1079.85 238 1085.31 238 1085.31 238.65 1079.85 238.65 1079.85 243.22 1085.99 243.22 1085.99 243.95 1079.08 243.95 1079.08 232.85 1085.99 232.85"/><polygon class="cls-18" points="1085.99 232.85 1085.99 233.53 1079.85 233.53 1079.85 238 1085.31 238 1085.31 238.65 1079.85 238.65 1079.85 243.22 1085.99 243.22 1085.99 243.95 1079.08 243.95 1079.08 232.85 1085.99 232.85"/><path class="cls-17" d="M1098.06,243.4q.12,0,7.3-9.5a1.45,1.45,0,0,1,.53-.33h-7.4v-.73h8.17v.76q-.12,0-7,9.28a1.34,1.34,0,0,1-.53.34h7.57v.73h-8.59Z"/><path class="cls-18" d="M1098.06,243.4q.12,0,7.3-9.5a1.45,1.45,0,0,1,.53-.33h-7.4v-.73h8.17v.76q-.12,0-7,9.28a1.34,1.34,0,0,1-.53.34h7.57v.73h-8.59Z"/><path class="cls-17" d="M1120,234.24a5.18,5.18,0,0,1,1.19,1.8,6.59,6.59,0,0,1,0,4.72,5.17,5.17,0,0,1-1.19,1.8,5.34,5.34,0,0,1-1.76,1.13,6,6,0,0,1-4.3,0,5.34,5.34,0,0,1-1.76-1.13,5.17,5.17,0,0,1-1.19-1.8,6.58,6.58,0,0,1,0-4.72,5.18,5.18,0,0,1,1.19-1.8,5.36,5.36,0,0,1,1.76-1.13,6,6,0,0,1,4.3,0,5.35,5.35,0,0,1,1.76,1.13m-3.91-.76a4.66,4.66,0,0,0-3.4,1.27,5.56,5.56,0,0,0,0,7.29,5.18,5.18,0,0,0,6.8,0,5.53,5.53,0,0,0,0-7.29,4.67,4.67,0,0,0-3.4-1.27"/><path class="cls-18" d="M1120,234.24a5.18,5.18,0,0,1,1.19,1.8,6.59,6.59,0,0,1,0,4.72,5.17,5.17,0,0,1-1.19,1.8,5.34,5.34,0,0,1-1.76,1.13,6,6,0,0,1-4.3,0,5.34,5.34,0,0,1-1.76-1.13,5.17,5.17,0,0,1-1.19-1.8,6.58,6.58,0,0,1,0-4.72,5.18,5.18,0,0,1,1.19-1.8,5.36,5.36,0,0,1,1.76-1.13,6,6,0,0,1,4.3,0A5.35,5.35,0,0,1,1120,234.24Zm-3.91-.76a4.66,4.66,0,0,0-3.4,1.27,5.56,5.56,0,0,0,0,7.29,5.18,5.18,0,0,0,6.8,0,5.53,5.53,0,0,0,0-7.29A4.67,4.67,0,0,0,1116.07,233.48Z"/><path class="cls-17" d="M1129.54,232.85a3.76,3.76,0,0,1,2.59.84,3.1,3.1,0,0,1,.28,4.15,3.28,3.28,0,0,1-1.8,1.07l1.25,2.53,1.24,2.51h-.85l-1-2.06-1.4-2.86h-3.35v4.91h-.8v-11.1Zm-3,5.47h3a3.13,3.13,0,0,0,2.06-.65,2.14,2.14,0,0,0,.78-1.73,2.1,2.1,0,0,0-.78-1.72,3.16,3.16,0,0,0-2.06-.64h-3Z"/><path class="cls-18" d="M1129.54,232.85a3.76,3.76,0,0,1,2.59.84,3.1,3.1,0,0,1,.28,4.15,3.28,3.28,0,0,1-1.8,1.07l1.25,2.53,1.24,2.51h-.85l-1-2.06-1.4-2.86h-3.35v4.91h-.8v-11.1Zm-3,5.47h3a3.13,3.13,0,0,0,2.06-.65,2.14,2.14,0,0,0,.78-1.73,2.1,2.1,0,0,0-.78-1.72,3.16,3.16,0,0,0-2.06-.64h-3Z"/><path class="cls-17" d="M1145.36,233.43a5,5,0,0,1,2,2h-.86a4.56,4.56,0,0,0-.57-.7,5.16,5.16,0,0,0-6.79,0,5.53,5.53,0,0,0,0,7.29,5.16,5.16,0,0,0,6.79,0,4.47,4.47,0,0,0,.8-1.07v-1.71h-3v-.65h3.74V244h-.76v-2.12a1.61,1.61,0,0,1-.45.87,5.45,5.45,0,0,1-3.74,1.37,5.77,5.77,0,0,1-2.15-.4,5.33,5.33,0,0,1-1.76-1.13,5.15,5.15,0,0,1-1.19-1.8,6.58,6.58,0,0,1,0-4.72,5.16,5.16,0,0,1,1.19-1.8,5.34,5.34,0,0,1,1.76-1.13,5.78,5.78,0,0,1,2.15-.4,5.68,5.68,0,0,1,2.84.72"/><path class="cls-18" d="M1145.36,233.43a5,5,0,0,1,2,2h-.86a4.56,4.56,0,0,0-.57-.7,5.16,5.16,0,0,0-6.79,0,5.53,5.53,0,0,0,0,7.29,5.16,5.16,0,0,0,6.79,0,4.47,4.47,0,0,0,.8-1.07v-1.71h-3v-.65h3.74V244h-.76v-2.12a1.61,1.61,0,0,1-.45.87,5.45,5.45,0,0,1-3.74,1.37,5.77,5.77,0,0,1-2.15-.4,5.33,5.33,0,0,1-1.76-1.13,5.15,5.15,0,0,1-1.19-1.8,6.58,6.58,0,0,1,0-4.72,5.16,5.16,0,0,1,1.19-1.8,5.34,5.34,0,0,1,1.76-1.13,5.78,5.78,0,0,1,2.15-.4A5.68,5.68,0,0,1,1145.36,233.43Z"/><rect class="cls-17" x="1159.86" y="232.85" width="0.76" height="11.1"/><rect class="cls-18" x="1159.86" y="232.85" width="0.76" height="11.1"/><path class="cls-17" d="M1165.79,232.85l6.83,9.7a2.23,2.23,0,0,1,.22.53V232.85h.77v11.1h-1L1166,234.5a2.45,2.45,0,0,1-.23-.53v10H1165v-11.1Z"/><path class="cls-18" d="M1165.79,232.85l6.83,9.7a2.23,2.23,0,0,1,.22.53V232.85h.77v11.1h-1L1166,234.5a2.45,2.45,0,0,1-.23-.53v10H1165v-11.1Z"/><path class="cls-17" d="M1191.75,232.85v7.85a3.87,3.87,0,0,1-.28,1.53,2.62,2.62,0,0,1-.77,1.06,3.53,3.53,0,0,1-1.08.59,4,4,0,0,1-1.27.2,3.7,3.7,0,0,1-2.65-1l.35-.61a3.17,3.17,0,0,0,2.25.9,2.61,2.61,0,0,0,2-.75,2.78,2.78,0,0,0,.7-2q0-2.74,0-7.78Z"/><path class="cls-18" d="M1191.75,232.85v7.85a3.87,3.87,0,0,1-.28,1.53,2.62,2.62,0,0,1-.77,1.06,3.53,3.53,0,0,1-1.08.59,4,4,0,0,1-1.27.2,3.7,3.7,0,0,1-2.65-1l.35-.61a3.17,3.17,0,0,0,2.25.9,2.61,2.61,0,0,0,2-.75,2.78,2.78,0,0,0,.7-2q0-2.74,0-7.78Z"/><path class="cls-17" d="M1205.18,234.24a5.16,5.16,0,0,1,1.19,1.8,6.57,6.57,0,0,1,0,4.72,5.15,5.15,0,0,1-1.19,1.8,5.34,5.34,0,0,1-1.76,1.13,6,6,0,0,1-4.3,0,5.34,5.34,0,0,1-1.76-1.13,5.15,5.15,0,0,1-1.19-1.8,6.59,6.59,0,0,1,0-4.72,5.16,5.16,0,0,1,1.19-1.8,5.35,5.35,0,0,1,1.76-1.13,6,6,0,0,1,4.3,0,5.35,5.35,0,0,1,1.76,1.13m-3.91-.76a4.66,4.66,0,0,0-3.4,1.27,5.56,5.56,0,0,0,0,7.29,5.18,5.18,0,0,0,6.8,0,5.53,5.53,0,0,0,0-7.29,4.66,4.66,0,0,0-3.4-1.27"/><path class="cls-18" d="M1205.18,234.24a5.16,5.16,0,0,1,1.19,1.8,6.57,6.57,0,0,1,0,4.72,5.15,5.15,0,0,1-1.19,1.8,5.34,5.34,0,0,1-1.76,1.13,6,6,0,0,1-4.3,0,5.34,5.34,0,0,1-1.76-1.13,5.15,5.15,0,0,1-1.19-1.8,6.59,6.59,0,0,1,0-4.72,5.16,5.16,0,0,1,1.19-1.8,5.35,5.35,0,0,1,1.76-1.13,6,6,0,0,1,4.3,0A5.35,5.35,0,0,1,1205.18,234.24Zm-3.91-.76a4.66,4.66,0,0,0-3.4,1.27,5.56,5.56,0,0,0,0,7.29,5.18,5.18,0,0,0,6.8,0,5.53,5.53,0,0,0,0-7.29A4.66,4.66,0,0,0,1201.27,233.48Z"/><path class="cls-17" d="M1211.36,232.85v6.4a4.08,4.08,0,0,0,1.08,2.89,3.61,3.61,0,0,0,5.31,0,4.08,4.08,0,0,0,1.08-2.89v-6.4h.78v6.51a4.65,4.65,0,0,1-1.31,3.38,4.49,4.49,0,0,1-6.41,0,4.65,4.65,0,0,1-1.31-3.38v-6.51Z"/><path class="cls-18" d="M1211.36,232.85v6.4a4.08,4.08,0,0,0,1.08,2.89,3.61,3.61,0,0,0,5.31,0,4.08,4.08,0,0,0,1.08-2.89v-6.4h.78v6.51a4.65,4.65,0,0,1-1.31,3.38,4.49,4.49,0,0,1-6.41,0,4.65,4.65,0,0,1-1.31-3.38v-6.51Z"/><path class="cls-17" d="M1224.09,232.85l3.58,10.34v-.12a2.55,2.55,0,0,1,0-.29,2.13,2.13,0,0,1,.06-.26l3.32-9.68h1l3.32,9.66a3.35,3.35,0,0,1,.12.68l3.58-10.34h.92l-3.92,11.1h-1l-3.4-9.73a3.13,3.13,0,0,1-.12-.55l-.12.54q-3.39,9.73-3.4,9.74h-1l-3.92-11.1Z"/><path class="cls-18" d="M1224.09,232.85l3.58,10.34v-.12a2.55,2.55,0,0,1,0-.29,2.13,2.13,0,0,1,.06-.26l3.32-9.68h1l3.32,9.66a3.35,3.35,0,0,1,.12.68l3.58-10.34h.92l-3.92,11.1h-1l-3.4-9.73a3.13,3.13,0,0,1-.12-.55l-.12.54q-3.39,9.73-3.4,9.74h-1l-3.92-11.1Z"/><path class="cls-17" d="M1256.51,232.85a3.19,3.19,0,0,1,2.26.79,2.64,2.64,0,0,1,.86,2,2.6,2.6,0,0,1-.43,1.44,2.51,2.51,0,0,1-1.11,1,3,3,0,0,1,2,2.83,3,3,0,0,1-.84,2.16,3,3,0,0,1-2.28.88h-4.86v-11.1Zm-3.6,5h3.64a2.3,2.3,0,0,0,1.69-.61,2.11,2.11,0,0,0,.61-1.57,1.94,1.94,0,0,0-.64-1.52,2.5,2.5,0,0,0-1.74-.57h-3.57Zm0,5.37H1257a2.18,2.18,0,0,0,1.72-.66,2.59,2.59,0,0,0-.06-3.36,2.3,2.3,0,0,0-1.77-.7h-4Z"/><path class="cls-18" d="M1256.51,232.85a3.19,3.19,0,0,1,2.26.79,2.64,2.64,0,0,1,.86,2,2.6,2.6,0,0,1-.43,1.44,2.51,2.51,0,0,1-1.11,1,3,3,0,0,1,2,2.83,3,3,0,0,1-.84,2.16,3,3,0,0,1-2.28.88h-4.86v-11.1Zm-3.6,5h3.64a2.3,2.3,0,0,0,1.69-.61,2.11,2.11,0,0,0,.61-1.57,1.94,1.94,0,0,0-.64-1.52,2.5,2.5,0,0,0-1.74-.57h-3.57Zm0,5.37H1257a2.18,2.18,0,0,0,1.72-.66,2.59,2.59,0,0,0-.06-3.36,2.3,2.3,0,0,0-1.77-.7h-4Z"/><path class="cls-17" d="M1264.67,232.85v6.4a4.08,4.08,0,0,0,1.08,2.89,3.61,3.61,0,0,0,5.31,0,4.08,4.08,0,0,0,1.08-2.89v-6.4h.78v6.51a4.65,4.65,0,0,1-1.31,3.38,4.49,4.49,0,0,1-6.41,0,4.65,4.65,0,0,1-1.31-3.38v-6.51Z"/><path class="cls-18" d="M1264.67,232.85v6.4a4.08,4.08,0,0,0,1.08,2.89,3.61,3.61,0,0,0,5.31,0,4.08,4.08,0,0,0,1.08-2.89v-6.4h.78v6.51a4.65,4.65,0,0,1-1.31,3.38,4.49,4.49,0,0,1-6.41,0,4.65,4.65,0,0,1-1.31-3.38v-6.51Z"/><path class="cls-17" d="M1277.37,232.85v6.4a4.08,4.08,0,0,0,1.08,2.89,3.61,3.61,0,0,0,5.31,0,4.08,4.08,0,0,0,1.08-2.89v-6.4h.78v6.51a4.65,4.65,0,0,1-1.31,3.38,4.49,4.49,0,0,1-6.41,0,4.65,4.65,0,0,1-1.31-3.38v-6.51Z"/><path class="cls-18" d="M1277.37,232.85v6.4a4.08,4.08,0,0,0,1.08,2.89,3.61,3.61,0,0,0,5.31,0,4.08,4.08,0,0,0,1.08-2.89v-6.4h.78v6.51a4.65,4.65,0,0,1-1.31,3.38,4.49,4.49,0,0,1-6.41,0,4.65,4.65,0,0,1-1.31-3.38v-6.51Z"/><path class="cls-17" d="M1293.45,232.85a3.76,3.76,0,0,1,2.59.84,3.1,3.1,0,0,1,.28,4.15,3.29,3.29,0,0,1-1.8,1.07l1.25,2.53,1.24,2.51h-.85l-1-2.06-1.4-2.86h-3.35v4.91h-.8v-11.1Zm-3,5.47h3a3.13,3.13,0,0,0,2.06-.65,2.13,2.13,0,0,0,.78-1.73,2.1,2.1,0,0,0-.78-1.72,3.16,3.16,0,0,0-2.06-.64h-3Z"/><path class="cls-18" d="M1293.45,232.85a3.76,3.76,0,0,1,2.59.84,3.1,3.1,0,0,1,.28,4.15,3.29,3.29,0,0,1-1.8,1.07l1.25,2.53,1.24,2.51h-.85l-1-2.06-1.4-2.86h-3.35v4.91h-.8v-11.1Zm-3,5.47h3a3.13,3.13,0,0,0,2.06-.65,2.13,2.13,0,0,0,.78-1.73,2.1,2.1,0,0,0-.78-1.72,3.16,3.16,0,0,0-2.06-.64h-3Z"/><polygon class="cls-17" points="1309.39 232.85 1309.39 233.53 1305.47 233.53 1305.47 243.95 1304.7 243.95 1304.7 233.53 1300.8 233.53 1300.8 232.85 1309.39 232.85"/><polygon class="cls-18" points="1309.39 232.85 1309.39 233.53 1305.47 233.53 1305.47 243.95 1304.7 243.95 1304.7 233.53 1300.8 233.53 1300.8 232.85 1309.39 232.85"/></g></g><circle class="cls-6" cx="559.5" cy="229.5" r="21.5"/><line class="cls-21" x1="550.16" y1="238.84" x2="568.84" y2="220.16"/><line class="cls-21" x1="550.16" y1="220.16" x2="568.84" y2="238.84"/><circle class="cls-6" cx="1308.5" cy="251.5" r="21.5"/><line class="cls-21" x1="1299.16" y1="260.84" x2="1317.84" y2="242.16"/><line class="cls-21" x1="1299.16" y1="242.16" x2="1317.84" y2="260.84"/></svg>