<svg id="Laag_1" data-name="Laag 1" xmlns="http://www.w3.org/2000/svg" xmlns:xlink="http://www.w3.org/1999/xlink" viewBox="0 0 503 378"><defs><style>.cls-1,.cls-4{fill:none;}.cls-2{clip-path:url(#clip-path);}.cls-3{fill:#0a0a02;}.cls-4{stroke:#0a0a02;stroke-miterlimit:10;stroke-width:0.25px;}.cls-5{fill:#a2c037;}.cls-6{fill:#e2a24d;}.cls-7{fill:#eed43b;}.cls-8{fill:#6cbbed;}.cls-9{fill:#4c783c;}.cls-10{fill:#939230;}.cls-11{fill:#455f22;}.cls-12{fill:#5d4230;}.cls-13{fill:#354a1a;}.cls-14{fill:#bb7a24;}.cls-15{fill:#5e4f45;}.cls-16{fill:#40300c;}.cls-17{fill:#9baa31;}.cls-18{fill:#6ab9ec;}</style><clipPath id="clip-path"><rect class="cls-1" x="54" y="34" width="392" height="294"/></clipPath></defs><title>min witruimte 1</title><g class="cls-2"><g class="cls-2"><path class="cls-3" d="M87,218a20.77,20.77,0,0,1,8.56,1.64A17.46,17.46,0,0,1,105.19,230a20.12,20.12,0,0,1,0,13.63,17.53,17.53,0,0,1-3.59,6,18,18,0,0,1-6.07,4.28A20.79,20.79,0,0,1,87,255.52H81.55a1.95,1.95,0,0,1-2-2V219.93a1.95,1.95,0,0,1,2-2Zm-2.47,3.9a.93.93,0,0,0-.71.31,1,1,0,0,0-.29.69v27.78a1,1,0,0,0,1,1H87a17.4,17.4,0,0,0,6.92-1.26,13.47,13.47,0,0,0,7.66-8.11,16.52,16.52,0,0,0,0-10.92,13.67,13.67,0,0,0-2.83-4.78,14,14,0,0,0-4.83-3.38A17.13,17.13,0,0,0,87,221.88Z"/><path class="cls-4" d="M87,218a20.77,20.77,0,0,1,8.56,1.64A17.46,17.46,0,0,1,105.19,230a20.12,20.12,0,0,1,0,13.63,17.53,17.53,0,0,1-3.59,6,18,18,0,0,1-6.07,4.28A20.79,20.79,0,0,1,87,255.52H81.55a1.95,1.95,0,0,1-2-2V219.93a1.95,1.95,0,0,1,2-2Zm-2.47,3.9a.93.93,0,0,0-.71.31,1,1,0,0,0-.29.69v27.78a1,1,0,0,0,1,1H87a17.4,17.4,0,0,0,6.92-1.26,13.47,13.47,0,0,0,7.66-8.11,16.52,16.52,0,0,0,0-10.92,13.67,13.67,0,0,0-2.83-4.78,14,14,0,0,0-4.83-3.38A17.13,17.13,0,0,0,87,221.88Z"/><path class="cls-3" d="M111.76,243.24a15.45,15.45,0,0,1,.74-4.95,13.11,13.11,0,0,1,2-3.85,11.94,11.94,0,0,1,4.69-3.64,14.67,14.67,0,0,1,5.92-1.21,14.1,14.1,0,0,1,4.62.74,11.93,11.93,0,0,1,3.69,2,9.3,9.3,0,0,1,2.43,3,7.91,7.91,0,0,1,.88,3.66,8.09,8.09,0,0,1-.86,3.66,8.88,8.88,0,0,1-2.43,3,12,12,0,0,1-3.81,2,15.88,15.88,0,0,1-5,.74,12.34,12.34,0,0,1-3.31-.4,13.71,13.71,0,0,1-2.57-1,10.7,10.7,0,0,1-3.07-2.28,10.2,10.2,0,0,0,1.09,3.74,8.34,8.34,0,0,0,2.14,2.62,8.89,8.89,0,0,0,2.83,1.52,10.36,10.36,0,0,0,3.21.5,10.08,10.08,0,0,0,4.09-.86,3.34,3.34,0,0,1,.43-.14,1.78,1.78,0,0,1,.43,0,2,2,0,0,1,1.62,3,2.07,2.07,0,0,1-.86.71,13.86,13.86,0,0,1-5.71,1.19,14.47,14.47,0,0,1-4.8-.83,12,12,0,0,1-4.23-2.55,13.1,13.1,0,0,1-3-4.28,14.5,14.5,0,0,1-1.17-6m13.32-9.75a10.53,10.53,0,0,0-2.95.43,10.25,10.25,0,0,0-2.64,1.17,6.94,6.94,0,0,0-1.9,1.74,3.54,3.54,0,0,0-.74,2.14,3.47,3.47,0,0,0,.67,2,7,7,0,0,0,1.78,1.76,9.53,9.53,0,0,0,2.62,1.26,11.29,11.29,0,0,0,6.56,0,8,8,0,0,0,2.43-1.28,5.19,5.19,0,0,0,1.45-1.76,4.37,4.37,0,0,0,.48-1.93,4.24,4.24,0,0,0-.43-1.71,5.4,5.4,0,0,0-1.36-1.78,7.77,7.77,0,0,0-2.4-1.4,9.9,9.9,0,0,0-3.57-.57"/><path class="cls-4" d="M111.76,243.24a15.45,15.45,0,0,1,.74-4.95,13.11,13.11,0,0,1,2-3.85,11.94,11.94,0,0,1,4.69-3.64,14.67,14.67,0,0,1,5.92-1.21,14.1,14.1,0,0,1,4.62.74,11.93,11.93,0,0,1,3.69,2,9.3,9.3,0,0,1,2.43,3,7.91,7.91,0,0,1,.88,3.66,8.09,8.09,0,0,1-.86,3.66,8.88,8.88,0,0,1-2.43,3,12,12,0,0,1-3.81,2,15.88,15.88,0,0,1-5,.74,12.34,12.34,0,0,1-3.31-.4,13.71,13.71,0,0,1-2.57-1,10.7,10.7,0,0,1-3.07-2.28,10.2,10.2,0,0,0,1.09,3.74,8.34,8.34,0,0,0,2.14,2.62,8.89,8.89,0,0,0,2.83,1.52,10.36,10.36,0,0,0,3.21.5,10.08,10.08,0,0,0,4.09-.86,3.34,3.34,0,0,1,.43-.14,1.78,1.78,0,0,1,.43,0,2,2,0,0,1,1.62,3,2.07,2.07,0,0,1-.86.71,13.86,13.86,0,0,1-5.71,1.19,14.47,14.47,0,0,1-4.8-.83,12,12,0,0,1-4.23-2.55,13.1,13.1,0,0,1-3-4.28A14.5,14.5,0,0,1,111.76,243.24Zm13.32-9.75a10.53,10.53,0,0,0-2.95.43,10.25,10.25,0,0,0-2.64,1.17,6.94,6.94,0,0,0-1.9,1.74,3.54,3.54,0,0,0-.74,2.14,3.47,3.47,0,0,0,.67,2,7,7,0,0,0,1.78,1.76,9.53,9.53,0,0,0,2.62,1.26,11.29,11.29,0,0,0,6.56,0,8,8,0,0,0,2.43-1.28,5.19,5.19,0,0,0,1.45-1.76,4.37,4.37,0,0,0,.48-1.93,4.24,4.24,0,0,0-.43-1.71,5.4,5.4,0,0,0-1.36-1.78,7.77,7.77,0,0,0-2.4-1.4A9.9,9.9,0,0,0,125.08,233.49Z"/><path class="cls-3" d="M160,255.47A1.75,1.75,0,0,1,159,255a1.47,1.47,0,0,1-.55-1.24,1.68,1.68,0,0,1,.29-1l21.36-31h-19.7a1.8,1.8,0,0,1-1.36-.57,1.92,1.92,0,0,1-.55-1.38,1.76,1.76,0,0,1,.55-1.33,1.88,1.88,0,0,1,1.36-.52h23.17a1.68,1.68,0,0,1,1,.29,1.63,1.63,0,0,1,.71,1.38,1.68,1.68,0,0,1-.29,1l-21.36,31h20a1.89,1.89,0,0,1,1.36.52,1.82,1.82,0,0,1,.55,1.38,1.87,1.87,0,0,1-1.9,1.9Z"/><path class="cls-4" d="M160,255.47A1.75,1.75,0,0,1,159,255a1.47,1.47,0,0,1-.55-1.24,1.68,1.68,0,0,1,.29-1l21.36-31h-19.7a1.8,1.8,0,0,1-1.36-.57,1.92,1.92,0,0,1-.55-1.38,1.76,1.76,0,0,1,.55-1.33,1.88,1.88,0,0,1,1.36-.52h23.17a1.68,1.68,0,0,1,1,.29,1.63,1.63,0,0,1,.71,1.38,1.68,1.68,0,0,1-.29,1l-21.36,31h20a1.89,1.89,0,0,1,1.36.52,1.82,1.82,0,0,1,.55,1.38,1.87,1.87,0,0,1-1.9,1.9Z"/><path class="cls-3" d="M203.1,256.94a14.47,14.47,0,0,1-4.8-.83,12,12,0,0,1-4.23-2.55,13.1,13.1,0,0,1-3-4.28,14.5,14.5,0,0,1-1.17-6,14.78,14.78,0,0,1,1.14-6,12.22,12.22,0,0,1,7.28-6.78,14.46,14.46,0,0,1,4.8-.83,14.61,14.61,0,0,1,4.85.83,12.25,12.25,0,0,1,4.23,2.52,12.58,12.58,0,0,1,3,4.26,16.56,16.56,0,0,1,0,12.08,12.66,12.66,0,0,1-3,4.28,12.29,12.29,0,0,1-4.26,2.55,14.48,14.48,0,0,1-4.8.83m0-3.9a10.71,10.71,0,0,0,3.45-.57,8.25,8.25,0,0,0,3-1.78,8.77,8.77,0,0,0,2.09-3.07,12.6,12.6,0,0,0,0-8.75,8.54,8.54,0,0,0-2.09-3,8.42,8.42,0,0,0-3-1.76,10.7,10.7,0,0,0-6.9,0,8.41,8.41,0,0,0-3,1.76,8.54,8.54,0,0,0-2.09,3,11.17,11.17,0,0,0-.79,4.38,10.88,10.88,0,0,0,.81,4.38,9,9,0,0,0,2.12,3.07,8.28,8.28,0,0,0,3,1.78,10.49,10.49,0,0,0,3.43.57"/><path class="cls-4" d="M203.1,256.94a14.47,14.47,0,0,1-4.8-.83,12,12,0,0,1-4.23-2.55,13.1,13.1,0,0,1-3-4.28,14.5,14.5,0,0,1-1.17-6,14.78,14.78,0,0,1,1.14-6,12.22,12.22,0,0,1,7.28-6.78,14.46,14.46,0,0,1,4.8-.83,14.61,14.61,0,0,1,4.85.83,12.25,12.25,0,0,1,4.23,2.52,12.58,12.58,0,0,1,3,4.26,16.56,16.56,0,0,1,0,12.08,12.66,12.66,0,0,1-3,4.28,12.29,12.29,0,0,1-4.26,2.55A14.48,14.48,0,0,1,203.1,256.94Zm0-3.9a10.71,10.71,0,0,0,3.45-.57,8.25,8.25,0,0,0,3-1.78,8.77,8.77,0,0,0,2.09-3.07,12.6,12.6,0,0,0,0-8.75,8.54,8.54,0,0,0-2.09-3,8.42,8.42,0,0,0-3-1.76,10.7,10.7,0,0,0-6.9,0,8.41,8.41,0,0,0-3,1.76,8.54,8.54,0,0,0-2.09,3,11.17,11.17,0,0,0-.79,4.38,10.88,10.88,0,0,0,.81,4.38,9,9,0,0,0,2.12,3.07,8.28,8.28,0,0,0,3,1.78A10.49,10.49,0,0,0,203.1,253Z"/><path class="cls-3" d="M226.75,254a2,2,0,1,1-3.9,0V243.19a14.78,14.78,0,0,1,1.14-6,12.23,12.23,0,0,1,7.28-6.78,14.47,14.47,0,0,1,4.8-.83,14,14,0,0,1,5.8,1.2,2,2,0,0,1,.78.72,2,2,0,0,1-.26,2.45,1.87,1.87,0,0,1-1.38.58,2,2,0,0,1-.81-.15,9.8,9.8,0,0,0-4.14-.9,10.64,10.64,0,0,0-3.47.57,8.31,8.31,0,0,0-5.07,4.81,11.19,11.19,0,0,0-.78,4.38Z"/><path class="cls-4" d="M226.75,254a2,2,0,1,1-3.9,0V243.19a14.78,14.78,0,0,1,1.14-6,12.23,12.23,0,0,1,7.28-6.78,14.47,14.47,0,0,1,4.8-.83,14,14,0,0,1,5.8,1.2,2,2,0,0,1,.78.72,2,2,0,0,1-.26,2.45,1.87,1.87,0,0,1-1.38.58,2,2,0,0,1-.81-.15,9.8,9.8,0,0,0-4.14-.9,10.64,10.64,0,0,0-3.47.57,8.31,8.31,0,0,0-5.07,4.81,11.19,11.19,0,0,0-.78,4.38Z"/><path class="cls-3" d="M260.33,256.9a14.46,14.46,0,0,1-4.8-.83,12.05,12.05,0,0,1-4.24-2.54,13.11,13.11,0,0,1-3-4.28,14.5,14.5,0,0,1-1.17-6,14.8,14.8,0,0,1,1.14-6,12.23,12.23,0,0,1,7.28-6.78,14.45,14.45,0,0,1,4.8-.83,14.61,14.61,0,0,1,4.85.83,12.26,12.26,0,0,1,4.23,2.52,12.58,12.58,0,0,1,3,4.26,14.8,14.8,0,0,1,1.14,6v12a14.8,14.8,0,0,1-1.14,6,12.67,12.67,0,0,1-3,4.28,12.3,12.3,0,0,1-4.26,2.54,14.47,14.47,0,0,1-4.8.83,2,2,0,1,1,0-3.9,10.7,10.7,0,0,0,3.45-.57,8.25,8.25,0,0,0,3-1.78,8.78,8.78,0,0,0,2.09-3.07,11.19,11.19,0,0,0,.78-4.38v-1.9a12.61,12.61,0,0,1-4.33,2.71,14.23,14.23,0,0,1-5,.9m0-3.9a10.71,10.71,0,0,0,3.45-.57,8.24,8.24,0,0,0,3-1.78,8.82,8.82,0,0,0,2.09-3,12.66,12.66,0,0,0,0-8.78,8.52,8.52,0,0,0-2.09-3,8.42,8.42,0,0,0-3-1.76,10.7,10.7,0,0,0-6.9,0,8.4,8.4,0,0,0-3,1.76,8.52,8.52,0,0,0-2.09,3,11.19,11.19,0,0,0-.78,4.38,10.82,10.82,0,0,0,.81,4.4,9.07,9.07,0,0,0,2.12,3,8.25,8.25,0,0,0,3,1.78,10.49,10.49,0,0,0,3.43.57"/><path class="cls-4" d="M260.33,256.9a14.46,14.46,0,0,1-4.8-.83,12.05,12.05,0,0,1-4.24-2.54,13.11,13.11,0,0,1-3-4.28,14.5,14.5,0,0,1-1.17-6,14.8,14.8,0,0,1,1.14-6,12.23,12.23,0,0,1,7.28-6.78,14.45,14.45,0,0,1,4.8-.83,14.61,14.61,0,0,1,4.85.83,12.26,12.26,0,0,1,4.23,2.52,12.58,12.58,0,0,1,3,4.26,14.8,14.8,0,0,1,1.14,6v12a14.8,14.8,0,0,1-1.14,6,12.67,12.67,0,0,1-3,4.28,12.3,12.3,0,0,1-4.26,2.54,14.47,14.47,0,0,1-4.8.83,2,2,0,1,1,0-3.9,10.7,10.7,0,0,0,3.45-.57,8.25,8.25,0,0,0,3-1.78,8.78,8.78,0,0,0,2.09-3.07,11.19,11.19,0,0,0,.78-4.38v-1.9a12.61,12.61,0,0,1-4.33,2.71A14.23,14.23,0,0,1,260.33,256.9Zm0-3.9a10.71,10.71,0,0,0,3.45-.57,8.24,8.24,0,0,0,3-1.78,8.82,8.82,0,0,0,2.09-3,12.66,12.66,0,0,0,0-8.78,8.52,8.52,0,0,0-2.09-3,8.42,8.42,0,0,0-3-1.76,10.7,10.7,0,0,0-6.9,0,8.4,8.4,0,0,0-3,1.76,8.52,8.52,0,0,0-2.09,3,11.19,11.19,0,0,0-.78,4.38,10.82,10.82,0,0,0,.81,4.4,9.07,9.07,0,0,0,2.12,3,8.25,8.25,0,0,0,3,1.78A10.49,10.49,0,0,0,260.33,253Z"/><path class="cls-3" d="M299.34,230.78a1.8,1.8,0,0,1,1.14,1.76,1.95,1.95,0,0,1-2,2,2,2,0,0,1-.81-.19,10.17,10.17,0,0,0-4.14-.86,10.64,10.64,0,0,0-3.47.57,8.31,8.31,0,0,0-5.07,4.81,12.66,12.66,0,0,0,0,8.78,8.83,8.83,0,0,0,2.09,3,8.26,8.26,0,0,0,3,1.78,10.62,10.62,0,0,0,3.47.57,10.07,10.07,0,0,0,4.09-.86,2.11,2.11,0,0,1,.86-.19,2,2,0,0,1,1.62,3,2.07,2.07,0,0,1-.86.71,13.44,13.44,0,0,1-5.71,1.19,14.47,14.47,0,0,1-4.81-.83,12,12,0,0,1-4.24-2.55,13.1,13.1,0,0,1-3-4.28,14.5,14.5,0,0,1-1.17-6,14.77,14.77,0,0,1,1.14-6,12.22,12.22,0,0,1,7.28-6.78,14.46,14.46,0,0,1,4.81-.83,15.13,15.13,0,0,1,2.92.29,11.68,11.68,0,0,1,2.83,1"/><path class="cls-4" d="M299.34,230.78a1.8,1.8,0,0,1,1.14,1.76,1.95,1.95,0,0,1-2,2,2,2,0,0,1-.81-.19,10.17,10.17,0,0,0-4.14-.86,10.64,10.64,0,0,0-3.47.57,8.31,8.31,0,0,0-5.07,4.81,12.66,12.66,0,0,0,0,8.78,8.83,8.83,0,0,0,2.09,3,8.26,8.26,0,0,0,3,1.78,10.62,10.62,0,0,0,3.47.57,10.07,10.07,0,0,0,4.09-.86,2.11,2.11,0,0,1,.86-.19,2,2,0,0,1,1.62,3,2.07,2.07,0,0,1-.86.71,13.44,13.44,0,0,1-5.71,1.19,14.47,14.47,0,0,1-4.81-.83,12,12,0,0,1-4.24-2.55,13.1,13.1,0,0,1-3-4.28,14.5,14.5,0,0,1-1.17-6,14.77,14.77,0,0,1,1.14-6,12.22,12.22,0,0,1,7.28-6.78,14.46,14.46,0,0,1,4.81-.83,15.13,15.13,0,0,1,2.92.29A11.68,11.68,0,0,1,299.34,230.78Z"/><path class="cls-3" d="M306.2,224a2.09,2.09,0,0,1,.48-1.32,2.11,2.11,0,0,1,2.95,0,2.09,2.09,0,0,1,.48,1.32,2,2,0,0,1-.48,1.28,2.11,2.11,0,0,1-2.95,0,2,2,0,0,1-.48-1.28m0,8.35a2,2,0,1,1,3.9,0v12.75a9.23,9.23,0,0,0,1.26,4.64,10.15,10.15,0,0,0,3.31,3.54,1.71,1.71,0,0,1,.69.74,2.13,2.13,0,0,1,.22.93,2,2,0,0,1-.55,1.36,1.76,1.76,0,0,1-1.36.6,2.71,2.71,0,0,1-1.4-.45,8.52,8.52,0,0,1-1.45-1.14,16.29,16.29,0,0,1-1.33-1.45,16,16,0,0,1-1-1.43,15.78,15.78,0,0,1-1.62-3.38,11.4,11.4,0,0,1-.62-3.71Z"/><path class="cls-4" d="M306.2,224a2.09,2.09,0,0,1,.48-1.32,2.11,2.11,0,0,1,2.95,0,2.09,2.09,0,0,1,.48,1.32,2,2,0,0,1-.48,1.28,2.11,2.11,0,0,1-2.95,0A2,2,0,0,1,306.2,224Zm0,8.35a2,2,0,1,1,3.9,0v12.75a9.23,9.23,0,0,0,1.26,4.64,10.15,10.15,0,0,0,3.31,3.54,1.71,1.71,0,0,1,.69.74,2.13,2.13,0,0,1,.22.93,2,2,0,0,1-.55,1.36,1.76,1.76,0,0,1-1.36.6,2.71,2.71,0,0,1-1.4-.45,8.52,8.52,0,0,1-1.45-1.14,16.29,16.29,0,0,1-1.33-1.45,16,16,0,0,1-1-1.43,15.78,15.78,0,0,1-1.62-3.38,11.4,11.4,0,0,1-.62-3.71Z"/><path class="cls-3" d="M324.89,254a2,2,0,1,1-3.9,0V243.19a14.77,14.77,0,0,1,1.14-6,12.22,12.22,0,0,1,7.28-6.78,14.47,14.47,0,0,1,4.81-.83,14,14,0,0,1,5.8,1.2,2,2,0,0,1,.78.72,2,2,0,0,1-.26,2.45,1.87,1.87,0,0,1-1.38.58,2,2,0,0,1-.81-.15,9.8,9.8,0,0,0-4.14-.9,10.63,10.63,0,0,0-3.47.57,8.3,8.3,0,0,0-5.07,4.81,11.17,11.17,0,0,0-.79,4.38Z"/><path class="cls-4" d="M324.89,254a2,2,0,1,1-3.9,0V243.19a14.77,14.77,0,0,1,1.14-6,12.22,12.22,0,0,1,7.28-6.78,14.47,14.47,0,0,1,4.81-.83,14,14,0,0,1,5.8,1.2,2,2,0,0,1,.78.72,2,2,0,0,1-.26,2.45,1.87,1.87,0,0,1-1.38.58,2,2,0,0,1-.81-.15,9.8,9.8,0,0,0-4.14-.9,10.63,10.63,0,0,0-3.47.57,8.3,8.3,0,0,0-5.07,4.81,11.17,11.17,0,0,0-.79,4.38Z"/><path class="cls-3" d="M363.48,238.34a14,14,0,0,1,3.64,1.59,11.78,11.78,0,0,1,3,2.71,12.8,12.8,0,0,1,2.07,3.85,15.4,15.4,0,0,1,.76,5V254a2,2,0,1,1-3.9,0v-2.52a11.18,11.18,0,0,0-.79-4.38,8.55,8.55,0,0,0-2.09-3,8.44,8.44,0,0,0-3-1.76,10.78,10.78,0,0,0-6.92,0,8.46,8.46,0,0,0-3,1.76,8.55,8.55,0,0,0-2.09,3,11.19,11.19,0,0,0-.78,4.38V254a2,2,0,1,1-3.9,0V219.5a2,2,0,1,1,3.9,0v19.55a1.18,1.18,0,0,0,.33.83,1.12,1.12,0,0,0,.86.36,1.27,1.27,0,0,0,.62-.24,17.71,17.71,0,0,1,4-1.71,1.94,1.94,0,0,0,1.14-.76l5-7.23a1.86,1.86,0,0,1,1.62-.81,1.82,1.82,0,0,1,1.4.59,1.87,1.87,0,0,1,.17,2.45l-2.71,4a1.36,1.36,0,0,0-.24.71,1,1,0,0,0,.86,1.09"/><path class="cls-4" d="M363.48,238.34a14,14,0,0,1,3.64,1.59,11.78,11.78,0,0,1,3,2.71,12.8,12.8,0,0,1,2.07,3.85,15.4,15.4,0,0,1,.76,5V254a2,2,0,1,1-3.9,0v-2.52a11.18,11.18,0,0,0-.79-4.38,8.55,8.55,0,0,0-2.09-3,8.44,8.44,0,0,0-3-1.76,10.78,10.78,0,0,0-6.92,0,8.46,8.46,0,0,0-3,1.76,8.55,8.55,0,0,0-2.09,3,11.19,11.19,0,0,0-.78,4.38V254a2,2,0,1,1-3.9,0V219.5a2,2,0,1,1,3.9,0v19.55a1.18,1.18,0,0,0,.33.83,1.12,1.12,0,0,0,.86.36,1.27,1.27,0,0,0,.62-.24,17.71,17.71,0,0,1,4-1.71,1.94,1.94,0,0,0,1.14-.76l5-7.23a1.86,1.86,0,0,1,1.62-.81,1.82,1.82,0,0,1,1.4.59,1.87,1.87,0,0,1,.17,2.45l-2.71,4a1.36,1.36,0,0,0-.24.71A1,1,0,0,0,363.48,238.34Z"/><path class="cls-3" d="M378.6,243.24a15.45,15.45,0,0,1,.74-4.95,13.09,13.09,0,0,1,2-3.85A11.93,11.93,0,0,1,386,230.8a14.66,14.66,0,0,1,5.92-1.21,14.1,14.1,0,0,1,4.61.74,11.93,11.93,0,0,1,3.69,2,9.27,9.27,0,0,1,2.43,3,7.9,7.9,0,0,1,.88,3.66,8.08,8.08,0,0,1-.86,3.66,8.88,8.88,0,0,1-2.43,3,12,12,0,0,1-3.81,2,15.88,15.88,0,0,1-5,.74,12.33,12.33,0,0,1-3.31-.4,13.71,13.71,0,0,1-2.57-1,10.73,10.73,0,0,1-3.07-2.28,10.23,10.23,0,0,0,1.09,3.74,8.34,8.34,0,0,0,2.14,2.62,8.88,8.88,0,0,0,2.83,1.52,10.36,10.36,0,0,0,3.21.5,10.07,10.07,0,0,0,4.09-.86,3.34,3.34,0,0,1,.43-.14,1.78,1.78,0,0,1,.43,0,1.95,1.95,0,0,1,1.95,2,1.86,1.86,0,0,1-.33,1.09,2.08,2.08,0,0,1-.86.71,13.87,13.87,0,0,1-5.71,1.19,14.48,14.48,0,0,1-4.81-.83,12,12,0,0,1-4.23-2.55,13.09,13.09,0,0,1-3-4.28,14.5,14.5,0,0,1-1.17-6m13.32-9.75a10.53,10.53,0,0,0-2.95.43,10.25,10.25,0,0,0-2.64,1.17,7,7,0,0,0-1.9,1.74,3.53,3.53,0,0,0-.74,2.14,3.46,3.46,0,0,0,.67,2,7,7,0,0,0,1.78,1.76,9.52,9.52,0,0,0,2.62,1.26,11.3,11.3,0,0,0,6.57,0,8,8,0,0,0,2.43-1.28,5.2,5.2,0,0,0,1.45-1.76,4.37,4.37,0,0,0,.48-1.93,4.23,4.23,0,0,0-.43-1.71,5.38,5.38,0,0,0-1.36-1.78,7.76,7.76,0,0,0-2.4-1.4,9.91,9.91,0,0,0-3.57-.57"/><path class="cls-4" d="M378.6,243.24a15.45,15.45,0,0,1,.74-4.95,13.09,13.09,0,0,1,2-3.85A11.93,11.93,0,0,1,386,230.8a14.66,14.66,0,0,1,5.92-1.21,14.1,14.1,0,0,1,4.61.74,11.93,11.93,0,0,1,3.69,2,9.27,9.27,0,0,1,2.43,3,7.9,7.9,0,0,1,.88,3.66,8.08,8.08,0,0,1-.86,3.66,8.88,8.88,0,0,1-2.43,3,12,12,0,0,1-3.81,2,15.88,15.88,0,0,1-5,.74,12.33,12.33,0,0,1-3.31-.4,13.71,13.71,0,0,1-2.57-1,10.73,10.73,0,0,1-3.07-2.28,10.23,10.23,0,0,0,1.09,3.74,8.34,8.34,0,0,0,2.14,2.62,8.88,8.88,0,0,0,2.83,1.52,10.36,10.36,0,0,0,3.21.5,10.07,10.07,0,0,0,4.09-.86,3.34,3.34,0,0,1,.43-.14,1.78,1.78,0,0,1,.43,0,1.95,1.95,0,0,1,1.95,2,1.86,1.86,0,0,1-.33,1.09,2.08,2.08,0,0,1-.86.71,13.87,13.87,0,0,1-5.71,1.19,14.48,14.48,0,0,1-4.81-.83,12,12,0,0,1-4.23-2.55,13.09,13.09,0,0,1-3-4.28A14.5,14.5,0,0,1,378.6,243.24Zm13.32-9.75a10.53,10.53,0,0,0-2.95.43,10.25,10.25,0,0,0-2.64,1.17,7,7,0,0,0-1.9,1.74,3.53,3.53,0,0,0-.74,2.14,3.46,3.46,0,0,0,.67,2,7,7,0,0,0,1.78,1.76,9.52,9.52,0,0,0,2.62,1.26,11.3,11.3,0,0,0,6.57,0,8,8,0,0,0,2.43-1.28,5.2,5.2,0,0,0,1.45-1.76,4.37,4.37,0,0,0,.48-1.93,4.23,4.23,0,0,0-.43-1.71,5.38,5.38,0,0,0-1.36-1.78,7.76,7.76,0,0,0-2.4-1.4A9.91,9.91,0,0,0,391.92,233.49Z"/><path class="cls-3" d="M410.1,219.55a2,2,0,1,1,3.9,0v23.69a10.88,10.88,0,0,0,.81,4.38,9,9,0,0,0,2.12,3.07,8.27,8.27,0,0,0,3,1.78,10.48,10.48,0,0,0,3.42.57,2,2,0,1,1,0,3.9,14.48,14.48,0,0,1-4.81-.83,12,12,0,0,1-4.23-2.55,13.09,13.09,0,0,1-3-4.28,14.5,14.5,0,0,1-1.17-6Z"/><path class="cls-4" d="M410.1,219.55a2,2,0,1,1,3.9,0v23.69a10.88,10.88,0,0,0,.81,4.38,9,9,0,0,0,2.12,3.07,8.27,8.27,0,0,0,3,1.78,10.48,10.48,0,0,0,3.42.57,2,2,0,1,1,0,3.9,14.48,14.48,0,0,1-4.81-.83,12,12,0,0,1-4.23-2.55,13.09,13.09,0,0,1-3-4.28,14.5,14.5,0,0,1-1.17-6Z"/><path class="cls-3" d="M85.19,276.72l4.6,11.1h-.86l-1.34-3.24H81.75l-1.33,3.24h-.87l4.6-11.1Zm-.64,1.08Q82,283.91,82,283.91h5.29l-2.51-6.11a2.49,2.49,0,0,1-.14-.54Z"/><path class="cls-4" d="M85.19,276.72l4.6,11.1h-.86l-1.34-3.24H81.75l-1.33,3.24h-.87l4.6-11.1Zm-.64,1.08Q82,283.91,82,283.91h5.29l-2.51-6.11a2.49,2.49,0,0,1-.14-.54Z"/><path class="cls-3" d="M98.88,276.72l4.6,11.1h-.86l-1.34-3.24H95.45l-1.33,3.24h-.87l4.6-11.1Zm-.64,1.08q-2.51,6.11-2.52,6.11H101L98.5,277.8a2.49,2.49,0,0,1-.14-.54Z"/><path class="cls-4" d="M98.88,276.72l4.6,11.1h-.86l-1.34-3.24H95.45l-1.33,3.24h-.87l4.6-11.1Zm-.64,1.08q-2.51,6.11-2.52,6.11H101L98.5,277.8a2.49,2.49,0,0,1-.14-.54Z"/><path class="cls-3" d="M108.13,276.72l6.83,9.7a2.21,2.21,0,0,1,.22.53V276.72H116v11.1h-1l-6.61-9.45a2.42,2.42,0,0,1-.23-.53v10h-.77v-11.1Z"/><path class="cls-4" d="M108.13,276.72l6.83,9.7a2.21,2.21,0,0,1,.22.53V276.72H116v11.1h-1l-6.61-9.45a2.42,2.42,0,0,1-.23-.53v10h-.77v-11.1Z"/><path class="cls-3" d="M128.42,277.3a5,5,0,0,1,2,2h-.86a4.57,4.57,0,0,0-.57-.69,5.16,5.16,0,0,0-6.79,0,5.53,5.53,0,0,0,0,7.29,5.16,5.16,0,0,0,6.79,0,4.45,4.45,0,0,0,.8-1.07v-1.71h-3v-.65h3.74v5.35h-.76v-2.12a1.6,1.6,0,0,1-.45.87,5.45,5.45,0,0,1-3.74,1.37,5.78,5.78,0,0,1-2.15-.4,5.33,5.33,0,0,1-1.76-1.13,5.18,5.18,0,0,1-1.19-1.8,6.59,6.59,0,0,1,0-4.72,5.18,5.18,0,0,1,1.19-1.8,5.35,5.35,0,0,1,1.76-1.13,5.79,5.79,0,0,1,2.15-.4,5.68,5.68,0,0,1,2.84.72"/><path class="cls-4" d="M128.42,277.3a5,5,0,0,1,2,2h-.86a4.57,4.57,0,0,0-.57-.69,5.16,5.16,0,0,0-6.79,0,5.53,5.53,0,0,0,0,7.29,5.16,5.16,0,0,0,6.79,0,4.45,4.45,0,0,0,.8-1.07v-1.71h-3v-.65h3.74v5.35h-.76v-2.12a1.6,1.6,0,0,1-.45.87,5.45,5.45,0,0,1-3.74,1.37,5.78,5.78,0,0,1-2.15-.4,5.33,5.33,0,0,1-1.76-1.13,5.18,5.18,0,0,1-1.19-1.8,6.59,6.59,0,0,1,0-4.72,5.18,5.18,0,0,1,1.19-1.8,5.35,5.35,0,0,1,1.76-1.13,5.79,5.79,0,0,1,2.15-.4A5.68,5.68,0,0,1,128.42,277.3Z"/><polygon class="cls-3" points="141.63 276.72 141.63 277.4 135.49 277.4 135.49 281.87 140.96 281.87 140.96 282.52 135.49 282.52 135.49 287.09 141.63 287.09 141.63 287.81 134.72 287.81 134.72 276.72 141.63 276.72"/><polygon class="cls-4" points="141.63 276.72 141.63 277.4 135.49 277.4 135.49 281.87 140.96 281.87 140.96 282.52 135.49 282.52 135.49 287.09 141.63 287.09 141.63 287.81 134.72 287.81 134.72 276.72 141.63 276.72"/><path class="cls-3" d="M149.67,276.72a3.5,3.5,0,0,1,2.57.95,3.2,3.2,0,0,1,1,2.37,3.16,3.16,0,0,1-1,2.36,3.5,3.5,0,0,1-2.54,1h-3v4.46h-.8v-11.1Zm-3,5.91h3a2.93,2.93,0,0,0,2-.75,2.54,2.54,0,0,0,0-3.69,2.88,2.88,0,0,0-2-.74h-3Z"/><path class="cls-4" d="M149.67,276.72a3.5,3.5,0,0,1,2.57.95,3.2,3.2,0,0,1,1,2.37,3.16,3.16,0,0,1-1,2.36,3.5,3.5,0,0,1-2.54,1h-3v4.46h-.8v-11.1Zm-3,5.91h3a2.93,2.93,0,0,0,2-.75,2.54,2.54,0,0,0,0-3.69,2.88,2.88,0,0,0-2-.74h-3Z"/><path class="cls-3" d="M161.23,276.72l4.6,11.1H165l-1.34-3.24H157.8l-1.33,3.24h-.87l4.6-11.1Zm-.64,1.08q-2.51,6.11-2.52,6.11h5.29l-2.51-6.11a2.53,2.53,0,0,1-.14-.54Z"/><path class="cls-4" d="M161.23,276.72l4.6,11.1H165l-1.34-3.24H157.8l-1.33,3.24h-.87l4.6-11.1Zm-.64,1.08q-2.51,6.11-2.52,6.11h5.29l-2.51-6.11a2.53,2.53,0,0,1-.14-.54Z"/><path class="cls-3" d="M175.51,276.91a5.83,5.83,0,0,1,1.7.76l-.37.63a5.11,5.11,0,0,0-1.52-.71,6.09,6.09,0,0,0-2-.29,3.4,3.4,0,0,0-2,.62,1.83,1.83,0,0,0-.79,1.48,1.71,1.71,0,0,0,.24,1,1.69,1.69,0,0,0,.72.65,10,10,0,0,0,2.39.64,12.11,12.11,0,0,1,2.38.6,2.79,2.79,0,0,1,1.44,1.26,2.55,2.55,0,0,1,.24,1.86,2.88,2.88,0,0,1-1.56,2,5.74,5.74,0,0,1-2.48.54,8.19,8.19,0,0,1-2.45-.36,5.92,5.92,0,0,1-2-1l.36-.68a4.73,4.73,0,0,0,1.67.88,7.25,7.25,0,0,0,2.42.36,4.33,4.33,0,0,0,2.22-.48,2.29,2.29,0,0,0,.67-.65,2.1,2.1,0,0,0,.36-.87,2,2,0,0,0-.19-1.3,1.9,1.9,0,0,0-1-.88,13.56,13.56,0,0,0-2.36-.61,12,12,0,0,1-2.47-.68,2.26,2.26,0,0,1-1.07-.93,2.39,2.39,0,0,1-.31-1.4,2.65,2.65,0,0,1,1-2,4.16,4.16,0,0,1,2.5-.79,6.6,6.6,0,0,1,2.23.33"/><path class="cls-4" d="M175.51,276.91a5.83,5.83,0,0,1,1.7.76l-.37.63a5.11,5.11,0,0,0-1.52-.71,6.09,6.09,0,0,0-2-.29,3.4,3.4,0,0,0-2,.62,1.83,1.83,0,0,0-.79,1.48,1.71,1.71,0,0,0,.24,1,1.69,1.69,0,0,0,.72.65,10,10,0,0,0,2.39.64,12.11,12.11,0,0,1,2.38.6,2.79,2.79,0,0,1,1.44,1.26,2.55,2.55,0,0,1,.24,1.86,2.88,2.88,0,0,1-1.56,2,5.74,5.74,0,0,1-2.48.54,8.19,8.19,0,0,1-2.45-.36,5.92,5.92,0,0,1-2-1l.36-.68a4.73,4.73,0,0,0,1.67.88,7.25,7.25,0,0,0,2.42.36,4.33,4.33,0,0,0,2.22-.48,2.29,2.29,0,0,0,.67-.65,2.1,2.1,0,0,0,.36-.87,2,2,0,0,0-.19-1.3,1.9,1.9,0,0,0-1-.88,13.56,13.56,0,0,0-2.36-.61,12,12,0,0,1-2.47-.68,2.26,2.26,0,0,1-1.07-.93,2.39,2.39,0,0,1-.31-1.4,2.65,2.65,0,0,1,1-2,4.16,4.16,0,0,1,2.5-.79A6.6,6.6,0,0,1,175.51,276.91Z"/><polygon class="cls-3" points="190.57 276.72 190.57 277.4 186.65 277.4 186.65 287.81 185.88 287.81 185.88 277.4 181.97 277.4 181.97 276.72 190.57 276.72"/><polygon class="cls-4" points="190.57 276.72 190.57 277.4 186.65 277.4 186.65 287.81 185.88 287.81 185.88 277.4 181.97 277.4 181.97 276.72 190.57 276.72"/><polygon class="cls-3" points="201.46 276.72 201.46 277.4 195.32 277.4 195.32 281.87 200.78 281.87 200.78 282.52 195.32 282.52 195.32 287.09 201.46 287.09 201.46 287.81 194.55 287.81 194.55 276.72 201.46 276.72"/><polygon class="cls-4" points="201.46 276.72 201.46 277.4 195.32 277.4 195.32 281.87 200.78 281.87 200.78 282.52 195.32 282.52 195.32 287.09 201.46 287.09 201.46 287.81 194.55 287.81 194.55 276.72 201.46 276.72"/><path class="cls-3" d="M213.53,287.27q.12,0,7.3-9.5a1.45,1.45,0,0,1,.53-.33H214v-.73h8.17v.76q-.12,0-7,9.28a1.34,1.34,0,0,1-.53.34h7.57v.73h-8.59Z"/><path class="cls-4" d="M213.53,287.27q.12,0,7.3-9.5a1.45,1.45,0,0,1,.53-.33H214v-.73h8.17v.76q-.12,0-7,9.28a1.34,1.34,0,0,1-.53.34h7.57v.73h-8.59Z"/><path class="cls-3" d="M235.45,278.11a5.19,5.19,0,0,1,1.19,1.8,6.59,6.59,0,0,1,0,4.72,5.18,5.18,0,0,1-1.19,1.8,5.35,5.35,0,0,1-1.76,1.13,6,6,0,0,1-4.3,0,5.35,5.35,0,0,1-1.76-1.13,5.18,5.18,0,0,1-1.19-1.8,6.59,6.59,0,0,1,0-4.72,5.19,5.19,0,0,1,1.19-1.8,5.35,5.35,0,0,1,1.76-1.13,6,6,0,0,1,4.3,0,5.35,5.35,0,0,1,1.76,1.13m-3.91-.76a4.66,4.66,0,0,0-3.4,1.27,5.56,5.56,0,0,0,0,7.29,5.18,5.18,0,0,0,6.8,0,5.53,5.53,0,0,0,0-7.29,4.67,4.67,0,0,0-3.4-1.27"/><path class="cls-4" d="M235.45,278.11a5.19,5.19,0,0,1,1.19,1.8,6.59,6.59,0,0,1,0,4.72,5.18,5.18,0,0,1-1.19,1.8,5.35,5.35,0,0,1-1.76,1.13,6,6,0,0,1-4.3,0,5.35,5.35,0,0,1-1.76-1.13,5.18,5.18,0,0,1-1.19-1.8,6.59,6.59,0,0,1,0-4.72,5.19,5.19,0,0,1,1.19-1.8,5.35,5.35,0,0,1,1.76-1.13,6,6,0,0,1,4.3,0A5.35,5.35,0,0,1,235.45,278.11Zm-3.91-.76a4.66,4.66,0,0,0-3.4,1.27,5.56,5.56,0,0,0,0,7.29,5.18,5.18,0,0,0,6.8,0,5.53,5.53,0,0,0,0-7.29A4.67,4.67,0,0,0,231.54,277.35Z"/><path class="cls-3" d="M245,276.72a3.76,3.76,0,0,1,2.59.84,3.1,3.1,0,0,1,.28,4.15,3.28,3.28,0,0,1-1.8,1.07l1.25,2.53,1.24,2.51h-.85l-1-2.06-1.4-2.86H242v4.91h-.8v-11.1Zm-3,5.47h3a3.13,3.13,0,0,0,2.06-.65,2.13,2.13,0,0,0,.78-1.73,2.1,2.1,0,0,0-.78-1.72,3.17,3.17,0,0,0-2.06-.64h-3Z"/><path class="cls-4" d="M245,276.72a3.76,3.76,0,0,1,2.59.84,3.1,3.1,0,0,1,.28,4.15,3.28,3.28,0,0,1-1.8,1.07l1.25,2.53,1.24,2.51h-.85l-1-2.06-1.4-2.86H242v4.91h-.8v-11.1Zm-3,5.47h3a3.13,3.13,0,0,0,2.06-.65,2.13,2.13,0,0,0,.78-1.73,2.1,2.1,0,0,0-.78-1.72,3.17,3.17,0,0,0-2.06-.64h-3Z"/><path class="cls-3" d="M260.84,277.3a5,5,0,0,1,2,2H262a4.57,4.57,0,0,0-.57-.69,5.16,5.16,0,0,0-6.79,0,5.53,5.53,0,0,0,0,7.29,5.16,5.16,0,0,0,6.79,0,4.46,4.46,0,0,0,.8-1.07v-1.71h-3v-.65h3.74v5.35h-.76v-2.12a1.61,1.61,0,0,1-.45.87A5.45,5.45,0,0,1,258,288a5.77,5.77,0,0,1-2.15-.4,5.33,5.33,0,0,1-1.76-1.13,5.15,5.15,0,0,1-1.19-1.8,6.59,6.59,0,0,1,0-4.72,5.15,5.15,0,0,1,1.19-1.8,5.34,5.34,0,0,1,1.76-1.13,5.78,5.78,0,0,1,2.15-.4,5.68,5.68,0,0,1,2.84.72"/><path class="cls-4" d="M260.84,277.3a5,5,0,0,1,2,2H262a4.57,4.57,0,0,0-.57-.69,5.16,5.16,0,0,0-6.79,0,5.53,5.53,0,0,0,0,7.29,5.16,5.16,0,0,0,6.79,0,4.46,4.46,0,0,0,.8-1.07v-1.71h-3v-.65h3.74v5.35h-.76v-2.12a1.61,1.61,0,0,1-.45.87A5.45,5.45,0,0,1,258,288a5.77,5.77,0,0,1-2.15-.4,5.33,5.33,0,0,1-1.76-1.13,5.15,5.15,0,0,1-1.19-1.8,6.59,6.59,0,0,1,0-4.72,5.15,5.15,0,0,1,1.19-1.8,5.34,5.34,0,0,1,1.76-1.13,5.78,5.78,0,0,1,2.15-.4A5.68,5.68,0,0,1,260.84,277.3Z"/><rect class="cls-3" x="275.34" y="276.72" width="0.76" height="11.1"/><rect class="cls-4" x="275.34" y="276.72" width="0.76" height="11.1"/><path class="cls-3" d="M281.27,276.72l6.83,9.7a2.2,2.2,0,0,1,.22.53V276.72h.77v11.1h-1l-6.61-9.45a2.44,2.44,0,0,1-.23-.53v10h-.77v-11.1Z"/><path class="cls-4" d="M281.27,276.72l6.83,9.7a2.2,2.2,0,0,1,.22.53V276.72h.77v11.1h-1l-6.61-9.45a2.44,2.44,0,0,1-.23-.53v10h-.77v-11.1Z"/><path class="cls-3" d="M307.23,276.72v7.86a3.87,3.87,0,0,1-.28,1.53,2.62,2.62,0,0,1-.77,1.06,3.52,3.52,0,0,1-1.08.59,4,4,0,0,1-1.27.2,3.7,3.7,0,0,1-2.65-1l.35-.61a3.17,3.17,0,0,0,2.25.9,2.6,2.6,0,0,0,2-.75,2.78,2.78,0,0,0,.7-2q0-2.74,0-7.78Z"/><path class="cls-4" d="M307.23,276.72v7.86a3.87,3.87,0,0,1-.28,1.53,2.62,2.62,0,0,1-.77,1.06,3.52,3.52,0,0,1-1.08.59,4,4,0,0,1-1.27.2,3.7,3.7,0,0,1-2.65-1l.35-.61a3.17,3.17,0,0,0,2.25.9,2.6,2.6,0,0,0,2-.75,2.78,2.78,0,0,0,.7-2q0-2.74,0-7.78Z"/><path class="cls-3" d="M320.67,278.11a5.16,5.16,0,0,1,1.19,1.8,6.57,6.57,0,0,1,0,4.72,5.15,5.15,0,0,1-1.19,1.8,5.35,5.35,0,0,1-1.76,1.13,6,6,0,0,1-4.3,0,5.33,5.33,0,0,1-1.76-1.13,5.15,5.15,0,0,1-1.19-1.8,6.59,6.59,0,0,1,0-4.72,5.16,5.16,0,0,1,1.19-1.8,5.34,5.34,0,0,1,1.76-1.13,6,6,0,0,1,4.3,0,5.35,5.35,0,0,1,1.76,1.13m-3.91-.76a4.66,4.66,0,0,0-3.4,1.27,5.57,5.57,0,0,0,0,7.29,5.18,5.18,0,0,0,6.8,0,5.53,5.53,0,0,0,0-7.29,4.66,4.66,0,0,0-3.4-1.27"/><path class="cls-4" d="M320.67,278.11a5.16,5.16,0,0,1,1.19,1.8,6.57,6.57,0,0,1,0,4.72,5.15,5.15,0,0,1-1.19,1.8,5.35,5.35,0,0,1-1.76,1.13,6,6,0,0,1-4.3,0,5.33,5.33,0,0,1-1.76-1.13,5.15,5.15,0,0,1-1.19-1.8,6.59,6.59,0,0,1,0-4.72,5.16,5.16,0,0,1,1.19-1.8,5.34,5.34,0,0,1,1.76-1.13,6,6,0,0,1,4.3,0A5.35,5.35,0,0,1,320.67,278.11Zm-3.91-.76a4.66,4.66,0,0,0-3.4,1.27,5.57,5.57,0,0,0,0,7.29,5.18,5.18,0,0,0,6.8,0,5.53,5.53,0,0,0,0-7.29A4.66,4.66,0,0,0,316.76,277.35Z"/><path class="cls-3" d="M326.85,276.72v6.4a4.08,4.08,0,0,0,1.08,2.89,3.61,3.61,0,0,0,5.31,0,4.08,4.08,0,0,0,1.08-2.89v-6.4h.78v6.51a4.65,4.65,0,0,1-1.31,3.38,4.49,4.49,0,0,1-6.41,0,4.65,4.65,0,0,1-1.31-3.38v-6.51Z"/><path class="cls-4" d="M326.85,276.72v6.4a4.08,4.08,0,0,0,1.08,2.89,3.61,3.61,0,0,0,5.31,0,4.08,4.08,0,0,0,1.08-2.89v-6.4h.78v6.51a4.65,4.65,0,0,1-1.31,3.38,4.49,4.49,0,0,1-6.41,0,4.65,4.65,0,0,1-1.31-3.38v-6.51Z"/><path class="cls-3" d="M339.58,276.72l3.58,10.34v-.12a2.45,2.45,0,0,1,0-.29,2.16,2.16,0,0,1,.06-.26l3.32-9.68h1l3.32,9.66a3.3,3.3,0,0,1,.12.68l3.58-10.34h.92l-3.92,11.1h-1l-3.4-9.73a3.13,3.13,0,0,1-.12-.55l-.12.54q-3.39,9.73-3.4,9.74h-1l-3.92-11.1Z"/><path class="cls-4" d="M339.58,276.72l3.58,10.34v-.12a2.45,2.45,0,0,1,0-.29,2.16,2.16,0,0,1,.06-.26l3.32-9.68h1l3.32,9.66a3.3,3.3,0,0,1,.12.68l3.58-10.34h.92l-3.92,11.1h-1l-3.4-9.73a3.13,3.13,0,0,1-.12-.55l-.12.54q-3.39,9.73-3.4,9.74h-1l-3.92-11.1Z"/><path class="cls-3" d="M372,276.72a3.19,3.19,0,0,1,2.26.8,2.64,2.64,0,0,1,.86,2,2.59,2.59,0,0,1-.43,1.44,2.51,2.51,0,0,1-1.11,1,3,3,0,0,1,1.49,1.12,2.94,2.94,0,0,1,.54,1.72,2.95,2.95,0,0,1-3.12,3h-4.87v-11.1Zm-3.6,5H372a2.3,2.3,0,0,0,1.7-.61,2.12,2.12,0,0,0,.61-1.57,1.94,1.94,0,0,0-.64-1.52,2.51,2.51,0,0,0-1.74-.57H368.4Zm0,5.37h4.14a2.19,2.19,0,0,0,1.72-.66,2.59,2.59,0,0,0-.06-3.36,2.3,2.3,0,0,0-1.77-.7h-4Z"/><path class="cls-4" d="M372,276.72a3.19,3.19,0,0,1,2.26.8,2.64,2.64,0,0,1,.86,2,2.59,2.59,0,0,1-.43,1.44,2.51,2.51,0,0,1-1.11,1,3,3,0,0,1,1.49,1.12,2.94,2.94,0,0,1,.54,1.72,2.95,2.95,0,0,1-3.12,3h-4.87v-11.1Zm-3.6,5H372a2.3,2.3,0,0,0,1.7-.61,2.12,2.12,0,0,0,.61-1.57,1.94,1.94,0,0,0-.64-1.52,2.51,2.51,0,0,0-1.74-.57H368.4Zm0,5.37h4.14a2.19,2.19,0,0,0,1.72-.66,2.59,2.59,0,0,0-.06-3.36,2.3,2.3,0,0,0-1.77-.7h-4Z"/><path class="cls-3" d="M380.16,276.72v6.4a4.08,4.08,0,0,0,1.08,2.89,3.61,3.61,0,0,0,5.31,0,4.08,4.08,0,0,0,1.08-2.89v-6.4h.78v6.51a4.65,4.65,0,0,1-1.31,3.38,4.49,4.49,0,0,1-6.41,0,4.65,4.65,0,0,1-1.31-3.38v-6.51Z"/><path class="cls-4" d="M380.16,276.72v6.4a4.08,4.08,0,0,0,1.08,2.89,3.61,3.61,0,0,0,5.31,0,4.08,4.08,0,0,0,1.08-2.89v-6.4h.78v6.51a4.65,4.65,0,0,1-1.31,3.38,4.49,4.49,0,0,1-6.41,0,4.65,4.65,0,0,1-1.31-3.38v-6.51Z"/><path class="cls-3" d="M392.86,276.72v6.4a4.08,4.08,0,0,0,1.08,2.89,3.61,3.61,0,0,0,5.31,0,4.08,4.08,0,0,0,1.08-2.89v-6.4h.78v6.51a4.65,4.65,0,0,1-1.31,3.38,4.49,4.49,0,0,1-6.41,0,4.65,4.65,0,0,1-1.31-3.38v-6.51Z"/><path class="cls-4" d="M392.86,276.72v6.4a4.08,4.08,0,0,0,1.08,2.89,3.61,3.61,0,0,0,5.31,0,4.08,4.08,0,0,0,1.08-2.89v-6.4h.78v6.51a4.65,4.65,0,0,1-1.31,3.38,4.49,4.49,0,0,1-6.41,0,4.65,4.65,0,0,1-1.31-3.38v-6.51Z"/><path class="cls-3" d="M408.95,276.72a3.76,3.76,0,0,1,2.59.84,3.1,3.1,0,0,1,.28,4.15,3.28,3.28,0,0,1-1.79,1.07l1.25,2.53,1.24,2.51h-.85l-1-2.06-1.4-2.86H405.9v4.91h-.8v-11.1Zm-3,5.47h3a3.13,3.13,0,0,0,2.06-.65,2.13,2.13,0,0,0,.78-1.73,2.1,2.1,0,0,0-.78-1.72,3.17,3.17,0,0,0-2.06-.64h-3Z"/><path class="cls-4" d="M408.95,276.72a3.76,3.76,0,0,1,2.59.84,3.1,3.1,0,0,1,.28,4.15,3.28,3.28,0,0,1-1.79,1.07l1.25,2.53,1.24,2.51h-.85l-1-2.06-1.4-2.86H405.9v4.91h-.8v-11.1Zm-3,5.47h3a3.13,3.13,0,0,0,2.06-.65,2.13,2.13,0,0,0,.78-1.73,2.1,2.1,0,0,0-.78-1.72,3.17,3.17,0,0,0-2.06-.64h-3Z"/><polygon class="cls-3" points="424.88 276.72 424.88 277.4 420.96 277.4 420.96 287.81 420.2 287.81 420.2 277.4 416.29 277.4 416.29 276.72 424.88 276.72"/><polygon class="cls-4" points="424.88 276.72 424.88 277.4 420.96 277.4 420.96 287.81 420.2 287.81 420.2 277.4 416.29 277.4 416.29 276.72 424.88 276.72"/><path class="cls-5" d="M254.39,110.72a6.08,6.08,0,1,1-6.08-6.08,6.08,6.08,0,0,1,6.08,6.08"/><path class="cls-6" d="M271.86,128.16a6.09,6.09,0,1,1-6.09-6.09,6.09,6.09,0,0,1,6.09,6.09"/><path class="cls-7" d="M254.39,145.61a6.08,6.08,0,1,1-6.08-6.08,6.08,6.08,0,0,1,6.08,6.08"/><path class="cls-8" d="M237,128.16a6.09,6.09,0,1,1-6.09-6.09,6.09,6.09,0,0,1,6.09,6.09"/><path class="cls-8" d="M215.42,161.09a37.84,37.84,0,0,1,0-65.85,37.88,37.88,0,0,0-2.11,32.92,37.87,37.87,0,0,0,2.12,32.93"/><path class="cls-9" d="M248.34,93.13a37.93,37.93,0,0,0-18.64,16.4,37.93,37.93,0,0,0-16.4,18.64,37.88,37.88,0,0,1,2.11-32.92,37.88,37.88,0,0,1,32.92-2.11"/><path class="cls-5" d="M281.26,95.25a37.87,37.87,0,0,0-32.93-2.12,37.88,37.88,0,0,0-32.92,2.11,37.84,37.84,0,0,1,65.85,0"/><path class="cls-10" d="M286.17,113.88a37.66,37.66,0,0,1-2.79,14.28A37.94,37.94,0,0,0,267,109.52a37.91,37.91,0,0,0-18.64-16.4,37.87,37.87,0,0,1,32.93,2.12,37.58,37.58,0,0,1,4.91,18.63"/><path class="cls-11" d="M267,109.52a37.39,37.39,0,0,0-17.41-4.88l-.58,0h-1.3l-.58,0a37.39,37.39,0,0,0-17.41,4.88,37.93,37.93,0,0,1,18.64-16.4A37.91,37.91,0,0,1,267,109.52"/><path class="cls-6" d="M300.45,128.16a37.8,37.8,0,0,1-19.19,32.92,37.86,37.86,0,0,0,2.12-32.92,37.87,37.87,0,0,0-2.11-32.92,37.8,37.8,0,0,1,19.19,32.92"/><path class="cls-12" d="M283.38,128.16A37.94,37.94,0,0,1,267,146.8a37.46,37.46,0,0,0,4.89-17.41c0-.19,0-.38,0-.58s0-.43,0-.65,0-.44,0-.65,0-.39,0-.58A37.46,37.46,0,0,0,267,109.52a37.94,37.94,0,0,1,16.4,18.64"/><path class="cls-13" d="M271.86,126.93a23.57,23.57,0,0,0-22.29-22.29A37.39,37.39,0,0,1,267,109.52a37.46,37.46,0,0,1,4.89,17.41"/><path class="cls-14" d="M286.17,142.45a37.56,37.56,0,0,1-4.91,18.64,37.86,37.86,0,0,1-32.92,2.12A37.94,37.94,0,0,0,267,146.8a37.94,37.94,0,0,0,16.4-18.64,37.65,37.65,0,0,1,2.79,14.28"/><path class="cls-15" d="M267,146.8a37.94,37.94,0,0,1-18.64,16.4,37.94,37.94,0,0,1-18.64-16.4,37.46,37.46,0,0,0,17.41,4.89l.58,0H249l.58,0A37.46,37.46,0,0,0,267,146.8"/><path class="cls-16" d="M271.86,129.39A37.46,37.46,0,0,1,267,146.8a37.46,37.46,0,0,1-17.41,4.89,23.57,23.57,0,0,0,22.29-22.29"/><path class="cls-7" d="M281.26,161.09a37.83,37.83,0,0,1-65.84,0,37.87,37.87,0,0,0,32.92,2.11,37.86,37.86,0,0,0,32.92-2.12"/><path class="cls-17" d="M248.34,163.2a37.87,37.87,0,0,1-32.92-2.11,37.87,37.87,0,0,1-2.12-32.93,37.91,37.91,0,0,0,16.4,18.64,37.94,37.94,0,0,0,18.64,16.4"/><path class="cls-16" d="M247.11,151.69a37.46,37.46,0,0,1-17.41-4.89,37.39,37.39,0,0,1-4.88-17.41,23.57,23.57,0,0,0,22.29,22.29"/><path class="cls-11" d="M224.82,129.39a37.39,37.39,0,0,0,4.88,17.41,37.91,37.91,0,0,1-16.4-18.64,37.93,37.93,0,0,1,16.4-18.64,37.39,37.39,0,0,0-4.88,17.41c0,.19,0,.38,0,.58s0,.43,0,.65,0,.44,0,.65,0,.39,0,.58"/><path class="cls-13" d="M247.11,104.64a23.56,23.56,0,0,0-22.29,22.29,37.39,37.39,0,0,1,4.88-17.41,37.39,37.39,0,0,1,17.41-4.88"/></g></g><path class="cls-18" d="M248.5,288.25a23.25,23.25,0,1,1-23.25,23.25,23.28,23.28,0,0,1,23.25-23.25m0-.25A23.5,23.5,0,1,0,272,311.5,23.5,23.5,0,0,0,248.5,288Z"/><path class="cls-18" d="M248.5,29.25A23.25,23.25,0,1,1,225.25,52.5,23.28,23.28,0,0,1,248.5,29.25m0-.25A23.5,23.5,0,1,0,272,52.5,23.5,23.5,0,0,0,248.5,29Z"/><path class="cls-18" d="M449.5,159.25a23.25,23.25,0,1,1-23.25,23.25,23.28,23.28,0,0,1,23.25-23.25m0-.25A23.5,23.5,0,1,0,473,182.5,23.5,23.5,0,0,0,449.5,159Z"/><path class="cls-18" d="M55.5,159.25A23.25,23.25,0,1,1,32.25,182.5,23.28,23.28,0,0,1,55.5,159.25m0-.25A23.5,23.5,0,1,0,79,182.5,23.5,23.5,0,0,0,55.5,159Z"/><path d="M472.75,30.25v304.5H32.25V30.25h440.5M473,30H32V335H473V30Z"/><path d="M425.75,74.25v213.5H79.25V74.25h346.5M426,74H79V288H426V74Z"/></svg>