<svg id="Laag_1" data-name="Laag 1" xmlns="http://www.w3.org/2000/svg" xmlns:xlink="http://www.w3.org/1999/xlink" viewBox="0 0 1259 378"><defs><style>.cls-1,.cls-17,.cls-19{fill:none;}.cls-2{clip-path:url(#clip-path);}.cls-3{clip-path:url(#clip-path-2);}.cls-4{fill:#a2c037;}.cls-5{fill:#e09d49;}.cls-6{fill:#edd13a;}.cls-18,.cls-7{fill:#6ab9ec;}.cls-8{fill:#4c793d;}.cls-9{fill:#949130;}.cls-10{fill:#466124;}.cls-11{fill:#5e4f45;}.cls-12{fill:#344a1a;}.cls-13{fill:#bc7d23;}.cls-14{fill:#43310d;}.cls-15{fill:#9baa31;}.cls-16{fill:#0a0a02;}.cls-17{stroke:#0a0a02;stroke-width:0.25px;}.cls-17,.cls-19{stroke-miterlimit:10;}.cls-18{font-size:29px;font-family:Helvetica-Light, Helvetica;letter-spacing:0.08em;}.cls-19{stroke:#6ab9ec;}.cls-20{clip-path:url(#clip-path-3);}.cls-21{clip-path:url(#clip-path-4);}</style><clipPath id="clip-path"><rect class="cls-1" x="38.42" y="65" width="530.67" height="199"/></clipPath><clipPath id="clip-path-2"><rect class="cls-1" x="38.42" y="65" width="530.67" height="199"/></clipPath><clipPath id="clip-path-3"><rect class="cls-1" x="672.42" y="65" width="530.67" height="199"/></clipPath><clipPath id="clip-path-4"><rect class="cls-1" x="672.42" y="65" width="530.67" height="199"/></clipPath></defs><title>minimuum grootte</title><g class="cls-2"><g class="cls-3"><path class="cls-4" d="M129.34,147.48a6.08,6.08,0,1,1-6.08-6.08,6.08,6.08,0,0,1,6.08,6.08"/><path class="cls-5" d="M146.81,164.92a6.09,6.09,0,1,1-6.09-6.09,6.09,6.09,0,0,1,6.09,6.09"/><path class="cls-6" d="M129.34,182.36a6.08,6.08,0,1,1-6.08-6.08,6.08,6.08,0,0,1,6.08,6.08"/><path class="cls-7" d="M112,164.92a6.09,6.09,0,1,1-6.09-6.09,6.09,6.09,0,0,1,6.09,6.09"/><path class="cls-7" d="M90.38,197.84a37.83,37.83,0,0,1,0-65.84,37.88,37.88,0,0,0-2.11,32.92,37.87,37.87,0,0,0,2.12,32.92"/><path class="cls-8" d="M123.29,129.89a37.93,37.93,0,0,0-18.64,16.39,37.92,37.92,0,0,0-16.39,18.64A37.88,37.88,0,0,1,90.37,132a37.88,37.88,0,0,1,32.92-2.11"/><path class="cls-4" d="M156.21,132a37.87,37.87,0,0,0-32.92-2.12A37.88,37.88,0,0,0,90.37,132a37.83,37.83,0,0,1,65.84,0"/><path class="cls-9" d="M161.12,150.64a37.67,37.67,0,0,1-2.79,14.28,37.94,37.94,0,0,0-16.4-18.64,37.9,37.9,0,0,0-18.64-16.39A37.87,37.87,0,0,1,156.21,132a37.59,37.59,0,0,1,4.91,18.63"/><path class="cls-10" d="M141.93,146.28a37.39,37.39,0,0,0-17.41-4.88l-.58,0h-1.3l-.58,0a37.39,37.39,0,0,0-17.41,4.88,37.93,37.93,0,0,1,18.64-16.39,37.9,37.9,0,0,1,18.64,16.39"/><path class="cls-5" d="M175.4,164.92a37.79,37.79,0,0,1-19.19,32.92,37.86,37.86,0,0,0,2.12-32.92A37.87,37.87,0,0,0,156.21,132a37.8,37.8,0,0,1,19.19,32.91"/><path class="cls-11" d="M158.33,164.92a37.94,37.94,0,0,1-16.4,18.64,37.45,37.45,0,0,0,4.89-17.41c0-.19,0-.38,0-.58s0-.43,0-.65,0-.44,0-.65,0-.39,0-.58a37.45,37.45,0,0,0-4.89-17.41,37.94,37.94,0,0,1,16.4,18.64"/><path class="cls-12" d="M146.81,163.69a23.57,23.57,0,0,0-22.29-22.29,37.39,37.39,0,0,1,17.41,4.88,37.45,37.45,0,0,1,4.89,17.41"/><path class="cls-13" d="M161.12,179.2a37.55,37.55,0,0,1-4.91,18.64A37.86,37.86,0,0,1,123.29,200a37.94,37.94,0,0,0,18.64-16.4,37.94,37.94,0,0,0,16.4-18.64,37.65,37.65,0,0,1,2.79,14.28"/><path class="cls-11" d="M141.93,183.55A37.94,37.94,0,0,1,123.29,200a37.94,37.94,0,0,1-18.64-16.4,37.45,37.45,0,0,0,17.41,4.89l.58,0h1.3l.58,0a37.45,37.45,0,0,0,17.41-4.89"/><path class="cls-14" d="M146.81,166.15a37.45,37.45,0,0,1-4.89,17.41,37.45,37.45,0,0,1-17.41,4.89,23.57,23.57,0,0,0,22.29-22.29"/><path class="cls-6" d="M156.21,197.84a37.82,37.82,0,0,1-65.83,0A37.86,37.86,0,0,0,123.29,200a37.86,37.86,0,0,0,32.92-2.12"/><path class="cls-15" d="M123.29,200a37.86,37.86,0,0,1-32.91-2.11,37.87,37.87,0,0,1-2.12-32.92,37.9,37.9,0,0,0,16.39,18.64A37.94,37.94,0,0,0,123.29,200"/><path class="cls-14" d="M122.06,188.44a37.45,37.45,0,0,1-17.41-4.89,37.38,37.38,0,0,1-4.88-17.41,23.57,23.57,0,0,0,22.29,22.29"/><path class="cls-10" d="M99.77,166.15a37.38,37.38,0,0,0,4.88,17.41,37.9,37.9,0,0,1-16.39-18.64,37.93,37.93,0,0,1,16.39-18.64,37.38,37.38,0,0,0-4.88,17.41c0,.19,0,.38,0,.58s0,.43,0,.65,0,.44,0,.65,0,.39,0,.58"/><path class="cls-12" d="M122.06,141.4a23.56,23.56,0,0,0-22.29,22.29,37.38,37.38,0,0,1,4.88-17.41,37.38,37.38,0,0,1,17.41-4.88"/><path class="cls-16" d="M200.93,130.12a20.77,20.77,0,0,1,8.56,1.64,17.46,17.46,0,0,1,9.66,10.35,20.12,20.12,0,0,1,0,13.63,17.53,17.53,0,0,1-3.59,6A18,18,0,0,1,209.5,166a20.78,20.78,0,0,1-8.56,1.64h-5.42a1.95,1.95,0,0,1-2-2V132.07a1.95,1.95,0,0,1,2-2Zm-2.47,3.9a.93.93,0,0,0-.71.31,1,1,0,0,0-.29.69V162.8a1,1,0,0,0,1,1h2.52a17.4,17.4,0,0,0,6.92-1.26,13.47,13.47,0,0,0,7.66-8.11,16.52,16.52,0,0,0,0-10.92,13.67,13.67,0,0,0-2.83-4.78,14,14,0,0,0-4.83-3.38,17.13,17.13,0,0,0-6.92-1.28Z"/><path class="cls-17" d="M200.93,130.12a20.77,20.77,0,0,1,8.56,1.64,17.46,17.46,0,0,1,9.66,10.35,20.12,20.12,0,0,1,0,13.63,17.53,17.53,0,0,1-3.59,6A18,18,0,0,1,209.5,166a20.78,20.78,0,0,1-8.56,1.64h-5.42a1.95,1.95,0,0,1-2-2V132.07a1.95,1.95,0,0,1,2-2Zm-2.47,3.9a.93.93,0,0,0-.71.31,1,1,0,0,0-.29.69V162.8a1,1,0,0,0,1,1h2.52a17.4,17.4,0,0,0,6.92-1.26,13.47,13.47,0,0,0,7.66-8.11,16.52,16.52,0,0,0,0-10.92,13.67,13.67,0,0,0-2.83-4.78,14,14,0,0,0-4.83-3.38,17.13,17.13,0,0,0-6.92-1.28Z"/><path class="cls-16" d="M225.72,155.38a15.45,15.45,0,0,1,.74-4.95,13.11,13.11,0,0,1,2-3.85,11.94,11.94,0,0,1,4.69-3.64,14.67,14.67,0,0,1,5.92-1.21,14.1,14.1,0,0,1,4.61.74,11.93,11.93,0,0,1,3.69,2,9.3,9.3,0,0,1,2.43,3,7.91,7.91,0,0,1,.88,3.66,8.08,8.08,0,0,1-.86,3.66,8.89,8.89,0,0,1-2.43,3,12,12,0,0,1-3.81,2,15.89,15.89,0,0,1-5,.74,12.34,12.34,0,0,1-3.31-.4,13.73,13.73,0,0,1-2.57-1,10.64,10.64,0,0,1-1.88-1.19,10.52,10.52,0,0,1-1.19-1.09,10.19,10.19,0,0,0,1.09,3.73,8.33,8.33,0,0,0,2.14,2.62,8.89,8.89,0,0,0,2.83,1.52,10.37,10.37,0,0,0,3.21.5,10.07,10.07,0,0,0,4.09-.86,3.28,3.28,0,0,1,.43-.14,1.76,1.76,0,0,1,.43,0,1.95,1.95,0,0,1,2,2,1.86,1.86,0,0,1-.33,1.09,2.07,2.07,0,0,1-.86.71,13.85,13.85,0,0,1-5.71,1.19,14.47,14.47,0,0,1-4.8-.83,12,12,0,0,1-4.23-2.55,13.1,13.1,0,0,1-3-4.28,14.49,14.49,0,0,1-1.17-6M239,145.63a10.52,10.52,0,0,0-2.95.43,10.25,10.25,0,0,0-2.64,1.16,6.94,6.94,0,0,0-1.9,1.74,3.53,3.53,0,0,0-.74,2.14,3.47,3.47,0,0,0,.67,2,7,7,0,0,0,1.78,1.76,9.52,9.52,0,0,0,2.62,1.26,11.3,11.3,0,0,0,6.56,0,8,8,0,0,0,2.43-1.28,5.19,5.19,0,0,0,1.45-1.76,4.36,4.36,0,0,0,.48-1.93,4.23,4.23,0,0,0-.43-1.71A5.4,5.4,0,0,0,245,147.6a7.76,7.76,0,0,0-2.4-1.4,9.9,9.9,0,0,0-3.57-.57"/><path class="cls-17" d="M225.72,155.38a15.45,15.45,0,0,1,.74-4.95,13.11,13.11,0,0,1,2-3.85,11.94,11.94,0,0,1,4.69-3.64,14.67,14.67,0,0,1,5.92-1.21,14.1,14.1,0,0,1,4.61.74,11.93,11.93,0,0,1,3.69,2,9.3,9.3,0,0,1,2.43,3,7.91,7.91,0,0,1,.88,3.66,8.08,8.08,0,0,1-.86,3.66,8.89,8.89,0,0,1-2.43,3,12,12,0,0,1-3.81,2,15.89,15.89,0,0,1-5,.74,12.34,12.34,0,0,1-3.31-.4,13.73,13.73,0,0,1-2.57-1,10.64,10.64,0,0,1-1.88-1.19,10.52,10.52,0,0,1-1.19-1.09,10.19,10.19,0,0,0,1.09,3.73,8.33,8.33,0,0,0,2.14,2.62,8.89,8.89,0,0,0,2.83,1.52,10.37,10.37,0,0,0,3.21.5,10.07,10.07,0,0,0,4.09-.86,3.28,3.28,0,0,1,.43-.14,1.76,1.76,0,0,1,.43,0,1.95,1.95,0,0,1,2,2,1.86,1.86,0,0,1-.33,1.09,2.07,2.07,0,0,1-.86.71,13.85,13.85,0,0,1-5.71,1.19,14.47,14.47,0,0,1-4.8-.83,12,12,0,0,1-4.23-2.55,13.1,13.1,0,0,1-3-4.28A14.49,14.49,0,0,1,225.72,155.38ZM239,145.63a10.52,10.52,0,0,0-2.95.43,10.25,10.25,0,0,0-2.64,1.16,6.94,6.94,0,0,0-1.9,1.74,3.53,3.53,0,0,0-.74,2.14,3.47,3.47,0,0,0,.67,2,7,7,0,0,0,1.78,1.76,9.52,9.52,0,0,0,2.62,1.26,11.3,11.3,0,0,0,6.56,0,8,8,0,0,0,2.43-1.28,5.19,5.19,0,0,0,1.45-1.76,4.36,4.36,0,0,0,.48-1.93,4.23,4.23,0,0,0-.43-1.71A5.4,5.4,0,0,0,245,147.6a7.76,7.76,0,0,0-2.4-1.4A9.9,9.9,0,0,0,239,145.63Z"/><path class="cls-16" d="M274,167.6a1.75,1.75,0,0,1-1.07-.43,1.47,1.47,0,0,1-.55-1.24,1.68,1.68,0,0,1,.29-1L294,134H274.33a1.8,1.8,0,0,1-1.36-.57,1.92,1.92,0,0,1-.55-1.38,1.76,1.76,0,0,1,.55-1.33,1.88,1.88,0,0,1,1.36-.52H297.5a1.68,1.68,0,0,1,1,.29,1.63,1.63,0,0,1,.71,1.38,1.68,1.68,0,0,1-.29,1l-21.36,31h20a1.89,1.89,0,0,1,1.36.52,1.82,1.82,0,0,1,.55,1.38,1.87,1.87,0,0,1-1.9,1.9Z"/><path class="cls-17" d="M274,167.6a1.75,1.75,0,0,1-1.07-.43,1.47,1.47,0,0,1-.55-1.24,1.68,1.68,0,0,1,.29-1L294,134H274.33a1.8,1.8,0,0,1-1.36-.57,1.92,1.92,0,0,1-.55-1.38,1.76,1.76,0,0,1,.55-1.33,1.88,1.88,0,0,1,1.36-.52H297.5a1.68,1.68,0,0,1,1,.29,1.63,1.63,0,0,1,.71,1.38,1.68,1.68,0,0,1-.29,1l-21.36,31h20a1.89,1.89,0,0,1,1.36.52,1.82,1.82,0,0,1,.55,1.38,1.87,1.87,0,0,1-1.9,1.9Z"/><path class="cls-16" d="M317.05,169.08a14.46,14.46,0,0,1-4.8-.83A12,12,0,0,1,308,165.7a13.11,13.11,0,0,1-3-4.28,14.5,14.5,0,0,1-1.17-6,14.77,14.77,0,0,1,1.14-6,12.22,12.22,0,0,1,7.28-6.78,14.46,14.46,0,0,1,4.8-.83,14.6,14.6,0,0,1,4.85.83,12.24,12.24,0,0,1,4.23,2.52,12.56,12.56,0,0,1,3,4.26,16.56,16.56,0,0,1,0,12.08,12.65,12.65,0,0,1-3,4.28,12.28,12.28,0,0,1-4.26,2.55,14.47,14.47,0,0,1-4.8.83m0-3.9a10.7,10.7,0,0,0,3.45-.57,8.25,8.25,0,0,0,3-1.78,8.76,8.76,0,0,0,2.09-3.07,12.6,12.6,0,0,0,0-8.75,8.53,8.53,0,0,0-2.09-3,8.42,8.42,0,0,0-3-1.76,10.7,10.7,0,0,0-6.9,0,8.42,8.42,0,0,0-3,1.76,8.53,8.53,0,0,0-2.09,3,11.17,11.17,0,0,0-.79,4.38,10.86,10.86,0,0,0,.81,4.38,9,9,0,0,0,2.12,3.07,8.27,8.27,0,0,0,3,1.78,10.47,10.47,0,0,0,3.42.57"/><path class="cls-17" d="M317.05,169.08a14.46,14.46,0,0,1-4.8-.83A12,12,0,0,1,308,165.7a13.11,13.11,0,0,1-3-4.28,14.5,14.5,0,0,1-1.17-6,14.77,14.77,0,0,1,1.14-6,12.22,12.22,0,0,1,7.28-6.78,14.46,14.46,0,0,1,4.8-.83,14.6,14.6,0,0,1,4.85.83,12.24,12.24,0,0,1,4.23,2.52,12.56,12.56,0,0,1,3,4.26,16.56,16.56,0,0,1,0,12.08,12.65,12.65,0,0,1-3,4.28,12.28,12.28,0,0,1-4.26,2.55A14.47,14.47,0,0,1,317.05,169.08Zm0-3.9a10.7,10.7,0,0,0,3.45-.57,8.25,8.25,0,0,0,3-1.78,8.76,8.76,0,0,0,2.09-3.07,12.6,12.6,0,0,0,0-8.75,8.53,8.53,0,0,0-2.09-3,8.42,8.42,0,0,0-3-1.76,10.7,10.7,0,0,0-6.9,0,8.42,8.42,0,0,0-3,1.76,8.53,8.53,0,0,0-2.09,3,11.17,11.17,0,0,0-.79,4.38,10.86,10.86,0,0,0,.81,4.38,9,9,0,0,0,2.12,3.07,8.27,8.27,0,0,0,3,1.78A10.47,10.47,0,0,0,317.05,165.18Z"/><path class="cls-16" d="M340.69,166.18a2,2,0,1,1-3.9,0V155.33a14.78,14.78,0,0,1,1.14-6,12.22,12.22,0,0,1,7.28-6.78,14.47,14.47,0,0,1,4.8-.83,14,14,0,0,1,5.8,1.2,2,2,0,0,1,.78.72,2,2,0,0,1-.26,2.45,1.87,1.87,0,0,1-1.38.58,2,2,0,0,1-.81-.15,9.8,9.8,0,0,0-4.14-.9,10.63,10.63,0,0,0-3.47.57,8.3,8.3,0,0,0-5.07,4.8,11.18,11.18,0,0,0-.78,4.38Z"/><path class="cls-17" d="M340.69,166.18a2,2,0,1,1-3.9,0V155.33a14.78,14.78,0,0,1,1.14-6,12.22,12.22,0,0,1,7.28-6.78,14.47,14.47,0,0,1,4.8-.83,14,14,0,0,1,5.8,1.2,2,2,0,0,1,.78.72,2,2,0,0,1-.26,2.45,1.87,1.87,0,0,1-1.38.58,2,2,0,0,1-.81-.15,9.8,9.8,0,0,0-4.14-.9,10.63,10.63,0,0,0-3.47.57,8.3,8.3,0,0,0-5.07,4.8,11.18,11.18,0,0,0-.78,4.38Z"/><path class="cls-16" d="M374.28,169a14.45,14.45,0,0,1-4.8-.83,12,12,0,0,1-4.23-2.54,13.12,13.12,0,0,1-3-4.28,14.51,14.51,0,0,1-1.16-6,14.8,14.8,0,0,1,1.14-6,12.23,12.23,0,0,1,7.28-6.78,14.45,14.45,0,0,1,4.8-.83,14.61,14.61,0,0,1,4.85.83,12.25,12.25,0,0,1,4.23,2.52,12.57,12.57,0,0,1,3,4.26,14.8,14.8,0,0,1,1.14,6v12a14.8,14.8,0,0,1-1.14,6,12.66,12.66,0,0,1-3,4.28,12.29,12.29,0,0,1-4.26,2.54,14.47,14.47,0,0,1-4.8.83,2,2,0,1,1,0-3.9,10.71,10.71,0,0,0,3.45-.57,8.26,8.26,0,0,0,3-1.78,8.78,8.78,0,0,0,2.09-3.07,11.19,11.19,0,0,0,.78-4.38v-1.9a12.6,12.6,0,0,1-4.33,2.71,14.23,14.23,0,0,1-5,.9m0-3.9a10.71,10.71,0,0,0,3.45-.57,8.25,8.25,0,0,0,3-1.78,8.82,8.82,0,0,0,2.09-3,12.67,12.67,0,0,0,0-8.78,8.52,8.52,0,0,0-2.09-3,8.43,8.43,0,0,0-3-1.76,10.7,10.7,0,0,0-6.9,0,8.4,8.4,0,0,0-3,1.76,8.52,8.52,0,0,0-2.09,3,11.19,11.19,0,0,0-.78,4.38,10.81,10.81,0,0,0,.81,4.4,9.06,9.06,0,0,0,2.12,3,8.26,8.26,0,0,0,3,1.78,10.49,10.49,0,0,0,3.43.57"/><path class="cls-17" d="M374.28,169a14.45,14.45,0,0,1-4.8-.83,12,12,0,0,1-4.23-2.54,13.12,13.12,0,0,1-3-4.28,14.51,14.51,0,0,1-1.16-6,14.8,14.8,0,0,1,1.14-6,12.23,12.23,0,0,1,7.28-6.78,14.45,14.45,0,0,1,4.8-.83,14.61,14.61,0,0,1,4.85.83,12.25,12.25,0,0,1,4.23,2.52,12.57,12.57,0,0,1,3,4.26,14.8,14.8,0,0,1,1.14,6v12a14.8,14.8,0,0,1-1.14,6,12.66,12.66,0,0,1-3,4.28,12.29,12.29,0,0,1-4.26,2.54,14.47,14.47,0,0,1-4.8.83,2,2,0,1,1,0-3.9,10.71,10.71,0,0,0,3.45-.57,8.26,8.26,0,0,0,3-1.78,8.78,8.78,0,0,0,2.09-3.07,11.19,11.19,0,0,0,.78-4.38v-1.9a12.6,12.6,0,0,1-4.33,2.71A14.23,14.23,0,0,1,374.28,169Zm0-3.9a10.71,10.71,0,0,0,3.45-.57,8.25,8.25,0,0,0,3-1.78,8.82,8.82,0,0,0,2.09-3,12.67,12.67,0,0,0,0-8.78,8.52,8.52,0,0,0-2.09-3,8.43,8.43,0,0,0-3-1.76,10.7,10.7,0,0,0-6.9,0,8.4,8.4,0,0,0-3,1.76,8.52,8.52,0,0,0-2.09,3,11.19,11.19,0,0,0-.78,4.38,10.81,10.81,0,0,0,.81,4.4,9.06,9.06,0,0,0,2.12,3,8.26,8.26,0,0,0,3,1.78A10.49,10.49,0,0,0,374.28,165.13Z"/><path class="cls-16" d="M413.29,142.92a1.8,1.8,0,0,1,1.14,1.76,1.95,1.95,0,0,1-2,2,2,2,0,0,1-.81-.19,10.18,10.18,0,0,0-4.14-.86,10.63,10.63,0,0,0-3.47.57A8.31,8.31,0,0,0,399,151a12.66,12.66,0,0,0,0,8.78,8.82,8.82,0,0,0,2.09,3,8.26,8.26,0,0,0,3,1.78,10.62,10.62,0,0,0,3.47.57,10.07,10.07,0,0,0,4.09-.86,2.11,2.11,0,0,1,.86-.19,2,2,0,0,1,1.62,3,2.07,2.07,0,0,1-.86.71,13.44,13.44,0,0,1-5.71,1.19,14.45,14.45,0,0,1-4.8-.83,12,12,0,0,1-4.24-2.54,13.09,13.09,0,0,1-3-4.28,14.49,14.49,0,0,1-1.17-6,14.77,14.77,0,0,1,1.14-6,12.22,12.22,0,0,1,7.28-6.78,14.46,14.46,0,0,1,4.8-.83,15.1,15.1,0,0,1,2.92.29,11.63,11.63,0,0,1,2.83,1"/><path class="cls-17" d="M413.29,142.92a1.8,1.8,0,0,1,1.14,1.76,1.95,1.95,0,0,1-2,2,2,2,0,0,1-.81-.19,10.18,10.18,0,0,0-4.14-.86,10.63,10.63,0,0,0-3.47.57A8.31,8.31,0,0,0,399,151a12.66,12.66,0,0,0,0,8.78,8.82,8.82,0,0,0,2.09,3,8.26,8.26,0,0,0,3,1.78,10.62,10.62,0,0,0,3.47.57,10.07,10.07,0,0,0,4.09-.86,2.11,2.11,0,0,1,.86-.19,2,2,0,0,1,1.62,3,2.07,2.07,0,0,1-.86.71,13.44,13.44,0,0,1-5.71,1.19,14.45,14.45,0,0,1-4.8-.83,12,12,0,0,1-4.24-2.54,13.09,13.09,0,0,1-3-4.28,14.49,14.49,0,0,1-1.17-6,14.77,14.77,0,0,1,1.14-6,12.22,12.22,0,0,1,7.28-6.78,14.46,14.46,0,0,1,4.8-.83,15.1,15.1,0,0,1,2.92.29A11.63,11.63,0,0,1,413.29,142.92Z"/><path class="cls-16" d="M420.14,136.18a2.08,2.08,0,0,1,.48-1.32,2.11,2.11,0,0,1,2.95,0,2.09,2.09,0,0,1,.48,1.32,2,2,0,0,1-.48,1.28,2.11,2.11,0,0,1-2.95,0,2,2,0,0,1-.48-1.28m0,8.35a2,2,0,1,1,3.9,0v12.75a9.23,9.23,0,0,0,1.26,4.64,10.14,10.14,0,0,0,3.31,3.54,1.7,1.7,0,0,1,.69.74,2.13,2.13,0,0,1,.22.93,2,2,0,0,1-.55,1.36,1.77,1.77,0,0,1-1.36.6,2.7,2.7,0,0,1-1.4-.45,8.53,8.53,0,0,1-1.45-1.14,17.15,17.15,0,0,1-2.38-2.88,15.79,15.79,0,0,1-1.62-3.38,11.38,11.38,0,0,1-.62-3.71Z"/><path class="cls-17" d="M420.14,136.18a2.08,2.08,0,0,1,.48-1.32,2.11,2.11,0,0,1,2.95,0,2.09,2.09,0,0,1,.48,1.32,2,2,0,0,1-.48,1.28,2.11,2.11,0,0,1-2.95,0A2,2,0,0,1,420.14,136.18Zm0,8.35a2,2,0,1,1,3.9,0v12.75a9.23,9.23,0,0,0,1.26,4.64,10.14,10.14,0,0,0,3.31,3.54,1.7,1.7,0,0,1,.69.74,2.13,2.13,0,0,1,.22.93,2,2,0,0,1-.55,1.36,1.77,1.77,0,0,1-1.36.6,2.7,2.7,0,0,1-1.4-.45,8.53,8.53,0,0,1-1.45-1.14,17.15,17.15,0,0,1-2.38-2.88,15.79,15.79,0,0,1-1.62-3.38,11.38,11.38,0,0,1-.62-3.71Z"/><path class="cls-16" d="M438.83,166.18a2,2,0,1,1-3.9,0V155.33a14.78,14.78,0,0,1,1.14-6,12.22,12.22,0,0,1,7.28-6.78,14.47,14.47,0,0,1,4.8-.83,14,14,0,0,1,5.8,1.2,2,2,0,0,1,.78.72,2,2,0,0,1-.26,2.45,1.87,1.87,0,0,1-1.38.58,2,2,0,0,1-.81-.15,9.8,9.8,0,0,0-4.14-.9,10.63,10.63,0,0,0-3.47.57,8.29,8.29,0,0,0-5.07,4.8,11.15,11.15,0,0,0-.79,4.38Z"/><path class="cls-17" d="M438.83,166.18a2,2,0,1,1-3.9,0V155.33a14.78,14.78,0,0,1,1.14-6,12.22,12.22,0,0,1,7.28-6.78,14.47,14.47,0,0,1,4.8-.83,14,14,0,0,1,5.8,1.2,2,2,0,0,1,.78.72,2,2,0,0,1-.26,2.45,1.87,1.87,0,0,1-1.38.58,2,2,0,0,1-.81-.15,9.8,9.8,0,0,0-4.14-.9,10.63,10.63,0,0,0-3.47.57,8.29,8.29,0,0,0-5.07,4.8,11.15,11.15,0,0,0-.79,4.38Z"/><path class="cls-16" d="M477.41,150.48a14,14,0,0,1,3.64,1.59,11.77,11.77,0,0,1,3,2.71,12.8,12.8,0,0,1,2.07,3.85,15.41,15.41,0,0,1,.76,5v2.52a2,2,0,1,1-3.9,0v-2.52a11.18,11.18,0,0,0-.79-4.38,8.57,8.57,0,0,0-2.09-3,8.44,8.44,0,0,0-3-1.76,10.78,10.78,0,0,0-6.92,0,8.45,8.45,0,0,0-3,1.76,8.55,8.55,0,0,0-2.09,3,11.18,11.18,0,0,0-.78,4.38v2.52a2,2,0,1,1-3.9,0V131.64a2,2,0,1,1,3.9,0v19.55a1.18,1.18,0,0,0,.33.83,1.12,1.12,0,0,0,.86.36,1.27,1.27,0,0,0,.62-.24,17.68,17.68,0,0,1,4-1.71,1.94,1.94,0,0,0,1.14-.76l5-7.23a1.86,1.86,0,0,1,1.62-.81,1.82,1.82,0,0,1,1.4.59,1.87,1.87,0,0,1,.17,2.45l-2.71,4a1.36,1.36,0,0,0-.24.71,1,1,0,0,0,.86,1.09"/><path class="cls-17" d="M477.41,150.48a14,14,0,0,1,3.64,1.59,11.77,11.77,0,0,1,3,2.71,12.8,12.8,0,0,1,2.07,3.85,15.41,15.41,0,0,1,.76,5v2.52a2,2,0,1,1-3.9,0v-2.52a11.18,11.18,0,0,0-.79-4.38,8.57,8.57,0,0,0-2.09-3,8.44,8.44,0,0,0-3-1.76,10.78,10.78,0,0,0-6.92,0,8.45,8.45,0,0,0-3,1.76,8.55,8.55,0,0,0-2.09,3,11.18,11.18,0,0,0-.78,4.38v2.52a2,2,0,1,1-3.9,0V131.64a2,2,0,1,1,3.9,0v19.55a1.18,1.18,0,0,0,.33.83,1.12,1.12,0,0,0,.86.36,1.27,1.27,0,0,0,.62-.24,17.68,17.68,0,0,1,4-1.71,1.94,1.94,0,0,0,1.14-.76l5-7.23a1.86,1.86,0,0,1,1.62-.81,1.82,1.82,0,0,1,1.4.59,1.87,1.87,0,0,1,.17,2.45l-2.71,4a1.36,1.36,0,0,0-.24.71A1,1,0,0,0,477.41,150.48Z"/><path class="cls-16" d="M492.54,155.38a15.44,15.44,0,0,1,.74-4.95,13.08,13.08,0,0,1,2-3.85,11.93,11.93,0,0,1,4.68-3.64,14.67,14.67,0,0,1,5.92-1.21,14.1,14.1,0,0,1,4.61.74,11.93,11.93,0,0,1,3.69,2,9.27,9.27,0,0,1,2.43,3,7.89,7.89,0,0,1,.88,3.66,8.07,8.07,0,0,1-.86,3.66,8.88,8.88,0,0,1-2.43,3,12,12,0,0,1-3.81,2,15.89,15.89,0,0,1-5,.74,12.33,12.33,0,0,1-3.31-.4,13.75,13.75,0,0,1-2.57-1,10.74,10.74,0,0,1-3.07-2.28,10.23,10.23,0,0,0,1.09,3.73,8.34,8.34,0,0,0,2.14,2.62,8.88,8.88,0,0,0,2.83,1.52,10.37,10.37,0,0,0,3.21.5,10.06,10.06,0,0,0,4.09-.86,3.27,3.27,0,0,1,.43-.14,1.76,1.76,0,0,1,.43,0,1.95,1.95,0,0,1,1.95,2,1.86,1.86,0,0,1-.33,1.09,2.07,2.07,0,0,1-.86.71,13.86,13.86,0,0,1-5.71,1.19,14.48,14.48,0,0,1-4.8-.83,12,12,0,0,1-4.23-2.55,13.1,13.1,0,0,1-3-4.28,14.5,14.5,0,0,1-1.16-6m13.32-9.75a10.53,10.53,0,0,0-2.95.43,10.25,10.25,0,0,0-2.64,1.16,7,7,0,0,0-1.9,1.74,3.53,3.53,0,0,0-.74,2.14,3.46,3.46,0,0,0,.67,2,7,7,0,0,0,1.78,1.76,9.51,9.51,0,0,0,2.62,1.26,11.3,11.3,0,0,0,6.57,0,8,8,0,0,0,2.43-1.28,5.2,5.2,0,0,0,1.45-1.76,4.37,4.37,0,0,0,.47-1.93,4.22,4.22,0,0,0-.43-1.71,5.38,5.38,0,0,0-1.35-1.78,7.75,7.75,0,0,0-2.4-1.4,9.91,9.91,0,0,0-3.57-.57"/><path class="cls-17" d="M492.54,155.38a15.44,15.44,0,0,1,.74-4.95,13.08,13.08,0,0,1,2-3.85,11.93,11.93,0,0,1,4.68-3.64,14.67,14.67,0,0,1,5.92-1.21,14.1,14.1,0,0,1,4.61.74,11.93,11.93,0,0,1,3.69,2,9.27,9.27,0,0,1,2.43,3,7.89,7.89,0,0,1,.88,3.66,8.07,8.07,0,0,1-.86,3.66,8.88,8.88,0,0,1-2.43,3,12,12,0,0,1-3.81,2,15.89,15.89,0,0,1-5,.74,12.33,12.33,0,0,1-3.31-.4,13.75,13.75,0,0,1-2.57-1,10.74,10.74,0,0,1-3.07-2.28,10.23,10.23,0,0,0,1.09,3.73,8.34,8.34,0,0,0,2.14,2.62,8.88,8.88,0,0,0,2.83,1.52,10.37,10.37,0,0,0,3.21.5,10.06,10.06,0,0,0,4.09-.86,3.27,3.27,0,0,1,.43-.14,1.76,1.76,0,0,1,.43,0,1.95,1.95,0,0,1,1.95,2,1.86,1.86,0,0,1-.33,1.09,2.07,2.07,0,0,1-.86.71,13.86,13.86,0,0,1-5.71,1.19,14.48,14.48,0,0,1-4.8-.83,12,12,0,0,1-4.23-2.55,13.1,13.1,0,0,1-3-4.28A14.5,14.5,0,0,1,492.54,155.38Zm13.32-9.75a10.53,10.53,0,0,0-2.95.43,10.25,10.25,0,0,0-2.64,1.16,7,7,0,0,0-1.9,1.74,3.53,3.53,0,0,0-.74,2.14,3.46,3.46,0,0,0,.67,2,7,7,0,0,0,1.78,1.76,9.51,9.51,0,0,0,2.62,1.26,11.3,11.3,0,0,0,6.57,0,8,8,0,0,0,2.43-1.28,5.2,5.2,0,0,0,1.45-1.76,4.37,4.37,0,0,0,.47-1.93,4.22,4.22,0,0,0-.43-1.71,5.38,5.38,0,0,0-1.35-1.78,7.75,7.75,0,0,0-2.4-1.4A9.91,9.91,0,0,0,505.86,145.63Z"/><path class="cls-16" d="M524,131.69a2,2,0,0,1,3.9,0v23.69a10.89,10.89,0,0,0,.81,4.38,9,9,0,0,0,2.12,3.07,8.26,8.26,0,0,0,3,1.78,10.47,10.47,0,0,0,3.42.57,2,2,0,1,1,0,3.9,14.47,14.47,0,0,1-4.8-.83,12,12,0,0,1-4.23-2.55,13.09,13.09,0,0,1-3-4.28,14.5,14.5,0,0,1-1.17-6Z"/><path class="cls-17" d="M524,131.69a2,2,0,0,1,3.9,0v23.69a10.89,10.89,0,0,0,.81,4.38,9,9,0,0,0,2.12,3.07,8.26,8.26,0,0,0,3,1.78,10.47,10.47,0,0,0,3.42.57,2,2,0,1,1,0,3.9,14.47,14.47,0,0,1-4.8-.83,12,12,0,0,1-4.23-2.55,13.09,13.09,0,0,1-3-4.28,14.5,14.5,0,0,1-1.17-6Z"/><path class="cls-16" d="M199.15,188.85l4.6,11.1h-.86l-1.34-3.24h-5.83l-1.33,3.24h-.87l4.6-11.1Zm-.64,1.08Q196,196,196,196h5.29l-2.51-6.11a2.53,2.53,0,0,1-.14-.54Z"/><path class="cls-17" d="M199.15,188.85l4.6,11.1h-.86l-1.34-3.24h-5.83l-1.33,3.24h-.87l4.6-11.1Zm-.64,1.08Q196,196,196,196h5.29l-2.51-6.11a2.53,2.53,0,0,1-.14-.54Z"/><path class="cls-16" d="M212.84,188.85l4.6,11.1h-.86l-1.34-3.24h-5.83l-1.33,3.24h-.87l4.6-11.1Zm-.64,1.08Q209.7,196,209.69,196H215l-2.51-6.11a2.53,2.53,0,0,1-.14-.54Z"/><path class="cls-17" d="M212.84,188.85l4.6,11.1h-.86l-1.34-3.24h-5.83l-1.33,3.24h-.87l4.6-11.1Zm-.64,1.08Q209.7,196,209.69,196H215l-2.51-6.11a2.53,2.53,0,0,1-.14-.54Z"/><path class="cls-16" d="M222.09,188.85l6.83,9.7a2.22,2.22,0,0,1,.22.53V188.85h.77v11.1h-1l-6.61-9.44a2.44,2.44,0,0,1-.23-.53v10h-.77v-11.1Z"/><path class="cls-17" d="M222.09,188.85l6.83,9.7a2.22,2.22,0,0,1,.22.53V188.85h.77v11.1h-1l-6.61-9.44a2.44,2.44,0,0,1-.23-.53v10h-.77v-11.1Z"/><path class="cls-16" d="M242.38,189.43a5,5,0,0,1,2,2h-.86a4.54,4.54,0,0,0-.57-.7,5.16,5.16,0,0,0-6.79,0,5.53,5.53,0,0,0,0,7.29,5.16,5.16,0,0,0,6.79,0,4.45,4.45,0,0,0,.8-1.07v-1.71h-3v-.65h3.74V200h-.76v-2.12a1.6,1.6,0,0,1-.45.87,5.44,5.44,0,0,1-3.74,1.37,5.78,5.78,0,0,1-2.15-.4,5.34,5.34,0,0,1-1.76-1.13,5.18,5.18,0,0,1-1.19-1.8,6.59,6.59,0,0,1,0-4.72,5.19,5.19,0,0,1,1.19-1.8,5.36,5.36,0,0,1,1.76-1.13,5.79,5.79,0,0,1,2.15-.4,5.68,5.68,0,0,1,2.84.72"/><path class="cls-17" d="M242.38,189.43a5,5,0,0,1,2,2h-.86a4.54,4.54,0,0,0-.57-.7,5.16,5.16,0,0,0-6.79,0,5.53,5.53,0,0,0,0,7.29,5.16,5.16,0,0,0,6.79,0,4.45,4.45,0,0,0,.8-1.07v-1.71h-3v-.65h3.74V200h-.76v-2.12a1.6,1.6,0,0,1-.45.87,5.44,5.44,0,0,1-3.74,1.37,5.78,5.78,0,0,1-2.15-.4,5.34,5.34,0,0,1-1.76-1.13,5.18,5.18,0,0,1-1.19-1.8,6.59,6.59,0,0,1,0-4.72,5.19,5.19,0,0,1,1.19-1.8,5.36,5.36,0,0,1,1.76-1.13,5.79,5.79,0,0,1,2.15-.4A5.68,5.68,0,0,1,242.38,189.43Z"/><polygon class="cls-16" points="255.59 188.85 255.59 189.53 249.45 189.53 249.45 194 254.92 194 254.92 194.65 249.45 194.65 249.45 199.22 255.59 199.22 255.59 199.95 248.68 199.95 248.68 188.85 255.59 188.85"/><polygon class="cls-17" points="255.59 188.85 255.59 189.53 249.45 189.53 249.45 194 254.92 194 254.92 194.65 249.45 194.65 249.45 199.22 255.59 199.22 255.59 199.95 248.68 199.95 248.68 188.85 255.59 188.85"/><path class="cls-16" d="M263.63,188.85a3.5,3.5,0,0,1,2.57.95,3.2,3.2,0,0,1,1,2.37,3.16,3.16,0,0,1-1,2.36,3.51,3.51,0,0,1-2.54,1h-3v4.46h-.8v-11.1Zm-3,5.91h3a2.93,2.93,0,0,0,2-.75,2.54,2.54,0,0,0,0-3.69,2.88,2.88,0,0,0-2-.74h-3Z"/><path class="cls-17" d="M263.63,188.85a3.5,3.5,0,0,1,2.57.95,3.2,3.2,0,0,1,1,2.37,3.16,3.16,0,0,1-1,2.36,3.51,3.51,0,0,1-2.54,1h-3v4.46h-.8v-11.1Zm-3,5.91h3a2.93,2.93,0,0,0,2-.75,2.54,2.54,0,0,0,0-3.69,2.88,2.88,0,0,0-2-.74h-3Z"/><path class="cls-16" d="M275.19,188.85l4.6,11.1h-.86l-1.34-3.24h-5.83l-1.33,3.24h-.87l4.6-11.1Zm-.64,1.08Q272,196,272,196h5.29l-2.51-6.11a2.5,2.5,0,0,1-.14-.54Z"/><path class="cls-17" d="M275.19,188.85l4.6,11.1h-.86l-1.34-3.24h-5.83l-1.33,3.24h-.87l4.6-11.1Zm-.64,1.08Q272,196,272,196h5.29l-2.51-6.11a2.5,2.5,0,0,1-.14-.54Z"/><path class="cls-16" d="M289.46,189a5.83,5.83,0,0,1,1.7.76l-.37.63a5.11,5.11,0,0,0-1.52-.7,6.08,6.08,0,0,0-2-.3,3.4,3.4,0,0,0-2,.62,1.84,1.84,0,0,0-.79,1.48,1.69,1.69,0,0,0,1,1.63,10,10,0,0,0,2.39.64,12.09,12.09,0,0,1,2.38.59,2.79,2.79,0,0,1,1.44,1.26,2.55,2.55,0,0,1,.24,1.86,2.88,2.88,0,0,1-1.56,2,5.75,5.75,0,0,1-2.48.54,8.21,8.21,0,0,1-2.45-.36,5.91,5.91,0,0,1-2-1l.36-.68a4.72,4.72,0,0,0,1.67.88,7.23,7.23,0,0,0,2.42.36,4.33,4.33,0,0,0,2.22-.48,2.3,2.3,0,0,0,.67-.65,2.11,2.11,0,0,0,.36-.87A2,2,0,0,0,291,196a1.9,1.9,0,0,0-1-.88,13.56,13.56,0,0,0-2.36-.61,12,12,0,0,1-2.47-.68,2.25,2.25,0,0,1-1.07-.93,2.39,2.39,0,0,1-.31-1.4,2.65,2.65,0,0,1,1-2,4.16,4.16,0,0,1,2.5-.79,6.6,6.6,0,0,1,2.23.33"/><path class="cls-17" d="M289.46,189a5.83,5.83,0,0,1,1.7.76l-.37.63a5.11,5.11,0,0,0-1.52-.7,6.08,6.08,0,0,0-2-.3,3.4,3.4,0,0,0-2,.62,1.84,1.84,0,0,0-.79,1.48,1.69,1.69,0,0,0,1,1.63,10,10,0,0,0,2.39.64,12.09,12.09,0,0,1,2.38.59,2.79,2.79,0,0,1,1.44,1.26,2.55,2.55,0,0,1,.24,1.86,2.88,2.88,0,0,1-1.56,2,5.75,5.75,0,0,1-2.48.54,8.21,8.21,0,0,1-2.45-.36,5.91,5.91,0,0,1-2-1l.36-.68a4.72,4.72,0,0,0,1.67.88,7.23,7.23,0,0,0,2.42.36,4.33,4.33,0,0,0,2.22-.48,2.3,2.3,0,0,0,.67-.65,2.11,2.11,0,0,0,.36-.87A2,2,0,0,0,291,196a1.9,1.9,0,0,0-1-.88,13.56,13.56,0,0,0-2.36-.61,12,12,0,0,1-2.47-.68,2.25,2.25,0,0,1-1.07-.93,2.39,2.39,0,0,1-.31-1.4,2.65,2.65,0,0,1,1-2,4.16,4.16,0,0,1,2.5-.79A6.6,6.6,0,0,1,289.46,189Z"/><polygon class="cls-16" points="304.52 188.85 304.52 189.53 300.6 189.53 300.6 199.95 299.83 199.95 299.83 189.53 295.93 189.53 295.93 188.85 304.52 188.85"/><polygon class="cls-17" points="304.52 188.85 304.52 189.53 300.6 189.53 300.6 199.95 299.83 199.95 299.83 189.53 295.93 189.53 295.93 188.85 304.52 188.85"/><polygon class="cls-16" points="315.41 188.85 315.41 189.53 309.27 189.53 309.27 194 314.74 194 314.74 194.65 309.27 194.65 309.27 199.22 315.41 199.22 315.41 199.95 308.5 199.95 308.5 188.85 315.41 188.85"/><polygon class="cls-17" points="315.41 188.85 315.41 189.53 309.27 189.53 309.27 194 314.74 194 314.74 194.65 309.27 194.65 309.27 199.22 315.41 199.22 315.41 199.95 308.5 199.95 308.5 188.85 315.41 188.85"/><path class="cls-16" d="M327.48,199.4q.12,0,7.3-9.5a1.45,1.45,0,0,1,.53-.33h-7.4v-.73h8.17v.76q-.12,0-7,9.28a1.34,1.34,0,0,1-.53.34h7.57v.73h-8.59Z"/><path class="cls-17" d="M327.48,199.4q.12,0,7.3-9.5a1.45,1.45,0,0,1,.53-.33h-7.4v-.73h8.17v.76q-.12,0-7,9.28a1.34,1.34,0,0,1-.53.34h7.57v.73h-8.59Z"/><path class="cls-16" d="M349.4,190.24a5.18,5.18,0,0,1,1.19,1.8,6.59,6.59,0,0,1,0,4.72,5.17,5.17,0,0,1-1.19,1.8,5.34,5.34,0,0,1-1.76,1.13,6,6,0,0,1-4.3,0,5.34,5.34,0,0,1-1.76-1.13,5.17,5.17,0,0,1-1.19-1.8,6.58,6.58,0,0,1,0-4.72,5.18,5.18,0,0,1,1.19-1.8,5.36,5.36,0,0,1,1.76-1.13,6,6,0,0,1,4.3,0,5.35,5.35,0,0,1,1.76,1.13m-3.91-.76a4.66,4.66,0,0,0-3.4,1.27,5.56,5.56,0,0,0,0,7.29,5.18,5.18,0,0,0,6.8,0,5.53,5.53,0,0,0,0-7.29,4.67,4.67,0,0,0-3.4-1.27"/><path class="cls-17" d="M349.4,190.24a5.18,5.18,0,0,1,1.19,1.8,6.59,6.59,0,0,1,0,4.72,5.17,5.17,0,0,1-1.19,1.8,5.34,5.34,0,0,1-1.76,1.13,6,6,0,0,1-4.3,0,5.34,5.34,0,0,1-1.76-1.13,5.17,5.17,0,0,1-1.19-1.8,6.58,6.58,0,0,1,0-4.72,5.18,5.18,0,0,1,1.19-1.8,5.36,5.36,0,0,1,1.76-1.13,6,6,0,0,1,4.3,0A5.35,5.35,0,0,1,349.4,190.24Zm-3.91-.76a4.66,4.66,0,0,0-3.4,1.27,5.56,5.56,0,0,0,0,7.29,5.18,5.18,0,0,0,6.8,0,5.53,5.53,0,0,0,0-7.29A4.67,4.67,0,0,0,345.49,189.48Z"/><path class="cls-16" d="M359,188.85a3.76,3.76,0,0,1,2.59.84,3.1,3.1,0,0,1,.28,4.15,3.28,3.28,0,0,1-1.8,1.07l1.25,2.53,1.24,2.51h-.85l-1-2.06-1.4-2.86h-3.35v4.91h-.8v-11.1Zm-3,5.47h3a3.13,3.13,0,0,0,2.06-.65,2.14,2.14,0,0,0,.78-1.73,2.1,2.1,0,0,0-.78-1.72,3.16,3.16,0,0,0-2.06-.64h-3Z"/><path class="cls-17" d="M359,188.85a3.76,3.76,0,0,1,2.59.84,3.1,3.1,0,0,1,.28,4.15,3.28,3.28,0,0,1-1.8,1.07l1.25,2.53,1.24,2.51h-.85l-1-2.06-1.4-2.86h-3.35v4.91h-.8v-11.1Zm-3,5.47h3a3.13,3.13,0,0,0,2.06-.65,2.14,2.14,0,0,0,.78-1.73,2.1,2.1,0,0,0-.78-1.72,3.16,3.16,0,0,0-2.06-.64h-3Z"/><path class="cls-16" d="M374.78,189.43a5,5,0,0,1,2,2h-.86a4.56,4.56,0,0,0-.57-.7,5.16,5.16,0,0,0-6.79,0,5.53,5.53,0,0,0,0,7.29,5.16,5.16,0,0,0,6.79,0,4.47,4.47,0,0,0,.8-1.07v-1.71h-3v-.65h3.74V200h-.76v-2.12a1.61,1.61,0,0,1-.45.87,5.45,5.45,0,0,1-3.74,1.37,5.77,5.77,0,0,1-2.15-.4,5.33,5.33,0,0,1-1.76-1.13,5.15,5.15,0,0,1-1.19-1.8,6.58,6.58,0,0,1,0-4.72,5.16,5.16,0,0,1,1.19-1.8,5.34,5.34,0,0,1,1.76-1.13,5.78,5.78,0,0,1,2.15-.4,5.68,5.68,0,0,1,2.84.72"/><path class="cls-17" d="M374.78,189.43a5,5,0,0,1,2,2h-.86a4.56,4.56,0,0,0-.57-.7,5.16,5.16,0,0,0-6.79,0,5.53,5.53,0,0,0,0,7.29,5.16,5.16,0,0,0,6.79,0,4.47,4.47,0,0,0,.8-1.07v-1.71h-3v-.65h3.74V200h-.76v-2.12a1.61,1.61,0,0,1-.45.87,5.45,5.45,0,0,1-3.74,1.37,5.77,5.77,0,0,1-2.15-.4,5.33,5.33,0,0,1-1.76-1.13,5.15,5.15,0,0,1-1.19-1.8,6.58,6.58,0,0,1,0-4.72,5.16,5.16,0,0,1,1.19-1.8,5.34,5.34,0,0,1,1.76-1.13,5.78,5.78,0,0,1,2.15-.4A5.68,5.68,0,0,1,374.78,189.43Z"/><rect class="cls-16" x="389.28" y="188.85" width="0.76" height="11.1"/><rect class="cls-17" x="389.28" y="188.85" width="0.76" height="11.1"/><path class="cls-16" d="M395.21,188.85l6.83,9.7a2.23,2.23,0,0,1,.22.53V188.85H403v11.1h-1l-6.61-9.44a2.45,2.45,0,0,1-.23-.53v10h-.77v-11.1Z"/><path class="cls-17" d="M395.21,188.85l6.83,9.7a2.23,2.23,0,0,1,.22.53V188.85H403v11.1h-1l-6.61-9.44a2.45,2.45,0,0,1-.23-.53v10h-.77v-11.1Z"/><path class="cls-16" d="M421.17,188.85v7.85a3.87,3.87,0,0,1-.28,1.53,2.62,2.62,0,0,1-.77,1.06,3.53,3.53,0,0,1-1.08.59,4,4,0,0,1-1.27.2,3.7,3.7,0,0,1-2.65-1l.35-.61a3.17,3.17,0,0,0,2.25.9,2.61,2.61,0,0,0,2-.75,2.78,2.78,0,0,0,.7-2q0-2.74,0-7.78Z"/><path class="cls-17" d="M421.17,188.85v7.85a3.87,3.87,0,0,1-.28,1.53,2.62,2.62,0,0,1-.77,1.06,3.53,3.53,0,0,1-1.08.59,4,4,0,0,1-1.27.2,3.7,3.7,0,0,1-2.65-1l.35-.61a3.17,3.17,0,0,0,2.25.9,2.61,2.61,0,0,0,2-.75,2.78,2.78,0,0,0,.7-2q0-2.74,0-7.78Z"/><path class="cls-16" d="M434.61,190.24a5.16,5.16,0,0,1,1.19,1.8,6.57,6.57,0,0,1,0,4.72,5.15,5.15,0,0,1-1.19,1.8,5.34,5.34,0,0,1-1.76,1.13,6,6,0,0,1-4.3,0,5.34,5.34,0,0,1-1.76-1.13,5.15,5.15,0,0,1-1.19-1.8,6.59,6.59,0,0,1,0-4.72,5.16,5.16,0,0,1,1.19-1.8,5.35,5.35,0,0,1,1.76-1.13,6,6,0,0,1,4.3,0,5.35,5.35,0,0,1,1.76,1.13m-3.91-.76a4.66,4.66,0,0,0-3.4,1.27,5.56,5.56,0,0,0,0,7.29,5.18,5.18,0,0,0,6.8,0,5.53,5.53,0,0,0,0-7.29,4.66,4.66,0,0,0-3.4-1.27"/><path class="cls-17" d="M434.61,190.24a5.16,5.16,0,0,1,1.19,1.8,6.57,6.57,0,0,1,0,4.72,5.15,5.15,0,0,1-1.19,1.8,5.34,5.34,0,0,1-1.76,1.13,6,6,0,0,1-4.3,0,5.34,5.34,0,0,1-1.76-1.13,5.15,5.15,0,0,1-1.19-1.8,6.59,6.59,0,0,1,0-4.72,5.16,5.16,0,0,1,1.19-1.8,5.35,5.35,0,0,1,1.76-1.13,6,6,0,0,1,4.3,0A5.35,5.35,0,0,1,434.61,190.24Zm-3.91-.76a4.66,4.66,0,0,0-3.4,1.27,5.56,5.56,0,0,0,0,7.29,5.18,5.18,0,0,0,6.8,0,5.53,5.53,0,0,0,0-7.29A4.66,4.66,0,0,0,430.69,189.48Z"/><path class="cls-16" d="M440.78,188.85v6.4a4.08,4.08,0,0,0,1.08,2.89,3.61,3.61,0,0,0,5.31,0,4.08,4.08,0,0,0,1.08-2.89v-6.4H449v6.51a4.65,4.65,0,0,1-1.31,3.38,4.49,4.49,0,0,1-6.41,0,4.65,4.65,0,0,1-1.31-3.38v-6.51Z"/><path class="cls-17" d="M440.78,188.85v6.4a4.08,4.08,0,0,0,1.08,2.89,3.61,3.61,0,0,0,5.31,0,4.08,4.08,0,0,0,1.08-2.89v-6.4H449v6.51a4.65,4.65,0,0,1-1.31,3.38,4.49,4.49,0,0,1-6.41,0,4.65,4.65,0,0,1-1.31-3.38v-6.51Z"/><path class="cls-16" d="M453.52,188.85l3.58,10.34v-.12a2.55,2.55,0,0,1,0-.29,2.13,2.13,0,0,1,.06-.26l3.32-9.68h1l3.32,9.66a3.35,3.35,0,0,1,.12.68l3.58-10.34h.92l-3.92,11.1h-1l-3.4-9.73a3.13,3.13,0,0,1-.12-.55l-.12.54q-3.39,9.73-3.4,9.74h-1l-3.92-11.1Z"/><path class="cls-17" d="M453.52,188.85l3.58,10.34v-.12a2.55,2.55,0,0,1,0-.29,2.13,2.13,0,0,1,.06-.26l3.32-9.68h1l3.32,9.66a3.35,3.35,0,0,1,.12.68l3.58-10.34h.92l-3.92,11.1h-1l-3.4-9.73a3.13,3.13,0,0,1-.12-.55l-.12.54q-3.39,9.73-3.4,9.74h-1l-3.92-11.1Z"/><path class="cls-16" d="M485.93,188.85a3.19,3.19,0,0,1,2.26.79,2.64,2.64,0,0,1,.86,2,2.6,2.6,0,0,1-.43,1.44,2.51,2.51,0,0,1-1.11,1,3,3,0,0,1,2,2.83,3,3,0,0,1-.84,2.16,3,3,0,0,1-2.28.88h-4.86v-11.1Zm-3.6,5H486a2.3,2.3,0,0,0,1.69-.61,2.11,2.11,0,0,0,.61-1.57,1.94,1.94,0,0,0-.64-1.52,2.5,2.5,0,0,0-1.74-.57h-3.57Zm0,5.37h4.14a2.18,2.18,0,0,0,1.72-.66,2.59,2.59,0,0,0-.06-3.36,2.3,2.3,0,0,0-1.77-.7h-4Z"/><path class="cls-17" d="M485.93,188.85a3.19,3.19,0,0,1,2.26.79,2.64,2.64,0,0,1,.86,2,2.6,2.6,0,0,1-.43,1.44,2.51,2.51,0,0,1-1.11,1,3,3,0,0,1,2,2.83,3,3,0,0,1-.84,2.16,3,3,0,0,1-2.28.88h-4.86v-11.1Zm-3.6,5H486a2.3,2.3,0,0,0,1.69-.61,2.11,2.11,0,0,0,.61-1.57,1.94,1.94,0,0,0-.64-1.52,2.5,2.5,0,0,0-1.74-.57h-3.57Zm0,5.37h4.14a2.18,2.18,0,0,0,1.72-.66,2.59,2.59,0,0,0-.06-3.36,2.3,2.3,0,0,0-1.77-.7h-4Z"/><path class="cls-16" d="M494.09,188.85v6.4a4.08,4.08,0,0,0,1.08,2.89,3.61,3.61,0,0,0,5.31,0,4.08,4.08,0,0,0,1.08-2.89v-6.4h.78v6.51a4.65,4.65,0,0,1-1.31,3.38,4.49,4.49,0,0,1-6.41,0,4.65,4.65,0,0,1-1.31-3.38v-6.51Z"/><path class="cls-17" d="M494.09,188.85v6.4a4.08,4.08,0,0,0,1.08,2.89,3.61,3.61,0,0,0,5.31,0,4.08,4.08,0,0,0,1.08-2.89v-6.4h.78v6.51a4.65,4.65,0,0,1-1.31,3.38,4.49,4.49,0,0,1-6.41,0,4.65,4.65,0,0,1-1.31-3.38v-6.51Z"/><path class="cls-16" d="M506.8,188.85v6.4a4.08,4.08,0,0,0,1.08,2.89,3.61,3.61,0,0,0,5.31,0,4.08,4.08,0,0,0,1.08-2.89v-6.4h.78v6.51a4.65,4.65,0,0,1-1.31,3.38,4.49,4.49,0,0,1-6.41,0,4.65,4.65,0,0,1-1.31-3.38v-6.51Z"/><path class="cls-17" d="M506.8,188.85v6.4a4.08,4.08,0,0,0,1.08,2.89,3.61,3.61,0,0,0,5.31,0,4.08,4.08,0,0,0,1.08-2.89v-6.4h.78v6.51a4.65,4.65,0,0,1-1.31,3.38,4.49,4.49,0,0,1-6.41,0,4.65,4.65,0,0,1-1.31-3.38v-6.51Z"/><path class="cls-16" d="M522.88,188.85a3.76,3.76,0,0,1,2.59.84,3.1,3.1,0,0,1,.28,4.15,3.29,3.29,0,0,1-1.8,1.07l1.25,2.53,1.24,2.51h-.85l-1-2.06-1.4-2.86h-3.35v4.91H519v-11.1Zm-3,5.47h3a3.13,3.13,0,0,0,2.06-.65,2.13,2.13,0,0,0,.78-1.73,2.1,2.1,0,0,0-.78-1.72,3.16,3.16,0,0,0-2.06-.64h-3Z"/><path class="cls-17" d="M522.88,188.85a3.76,3.76,0,0,1,2.59.84,3.1,3.1,0,0,1,.28,4.15,3.29,3.29,0,0,1-1.8,1.07l1.25,2.53,1.24,2.51h-.85l-1-2.06-1.4-2.86h-3.35v4.91H519v-11.1Zm-3,5.47h3a3.13,3.13,0,0,0,2.06-.65,2.13,2.13,0,0,0,.78-1.73,2.1,2.1,0,0,0-.78-1.72,3.16,3.16,0,0,0-2.06-.64h-3Z"/><polygon class="cls-16" points="538.81 188.85 538.81 189.53 534.89 189.53 534.89 199.95 534.12 199.95 534.12 189.53 530.22 189.53 530.22 188.85 538.81 188.85"/><polygon class="cls-17" points="538.81 188.85 538.81 189.53 534.89 189.53 534.89 199.95 534.12 199.95 534.12 189.53 530.22 189.53 530.22 188.85 538.81 188.85"/></g></g><text class="cls-18" transform="translate(259.53 292.96)">40mm</text><polyline class="cls-19" points="68 229 68 252 538 252 538 229"/><g class="cls-20"><g class="cls-21"><path class="cls-4" d="M763.34,147.48a6.08,6.08,0,1,1-6.08-6.08,6.08,6.08,0,0,1,6.08,6.08"/><path class="cls-5" d="M780.81,164.92a6.09,6.09,0,1,1-6.09-6.09,6.09,6.09,0,0,1,6.09,6.09"/><path class="cls-6" d="M763.34,182.36a6.08,6.08,0,1,1-6.08-6.08,6.08,6.08,0,0,1,6.08,6.08"/><path class="cls-7" d="M746,164.92a6.09,6.09,0,1,1-6.09-6.09,6.09,6.09,0,0,1,6.09,6.09"/><path class="cls-7" d="M724.38,197.84a37.83,37.83,0,0,1,0-65.84,37.88,37.88,0,0,0-2.11,32.92,37.87,37.87,0,0,0,2.12,32.92"/><path class="cls-8" d="M757.29,129.89a37.93,37.93,0,0,0-18.64,16.39,37.92,37.92,0,0,0-16.39,18.64A37.88,37.88,0,0,1,724.37,132a37.88,37.88,0,0,1,32.92-2.11"/><path class="cls-4" d="M790.21,132a37.87,37.87,0,0,0-32.92-2.12A37.88,37.88,0,0,0,724.37,132a37.83,37.83,0,0,1,65.84,0"/><path class="cls-9" d="M795.12,150.64a37.67,37.67,0,0,1-2.79,14.28,37.94,37.94,0,0,0-16.4-18.64,37.9,37.9,0,0,0-18.64-16.39A37.87,37.87,0,0,1,790.21,132a37.59,37.59,0,0,1,4.91,18.63"/><path class="cls-10" d="M775.93,146.28a37.39,37.39,0,0,0-17.41-4.88l-.58,0h-1.3l-.58,0a37.39,37.39,0,0,0-17.41,4.88,37.93,37.93,0,0,1,18.64-16.39,37.9,37.9,0,0,1,18.64,16.39"/><path class="cls-5" d="M809.4,164.92a37.79,37.79,0,0,1-19.19,32.92,37.86,37.86,0,0,0,2.12-32.92A37.87,37.87,0,0,0,790.21,132a37.8,37.8,0,0,1,19.19,32.91"/><path class="cls-11" d="M792.33,164.92a37.94,37.94,0,0,1-16.4,18.64,37.45,37.45,0,0,0,4.89-17.41c0-.19,0-.38,0-.58s0-.43,0-.65,0-.44,0-.65,0-.39,0-.58a37.45,37.45,0,0,0-4.89-17.41,37.94,37.94,0,0,1,16.4,18.64"/><path class="cls-12" d="M780.81,163.69a23.57,23.57,0,0,0-22.29-22.29,37.39,37.39,0,0,1,17.41,4.88,37.45,37.45,0,0,1,4.89,17.41"/><path class="cls-13" d="M795.12,179.2a37.55,37.55,0,0,1-4.91,18.64A37.86,37.86,0,0,1,757.29,200a37.94,37.94,0,0,0,18.64-16.4,37.94,37.94,0,0,0,16.4-18.64,37.65,37.65,0,0,1,2.79,14.28"/><path class="cls-11" d="M775.93,183.55A37.94,37.94,0,0,1,757.29,200a37.94,37.94,0,0,1-18.64-16.4,37.45,37.45,0,0,0,17.41,4.89l.58,0h1.3l.58,0a37.45,37.45,0,0,0,17.41-4.89"/><path class="cls-14" d="M780.81,166.15a37.45,37.45,0,0,1-4.89,17.41,37.45,37.45,0,0,1-17.41,4.89,23.57,23.57,0,0,0,22.29-22.29"/><path class="cls-6" d="M790.21,197.84a37.82,37.82,0,0,1-65.83,0A37.86,37.86,0,0,0,757.29,200a37.86,37.86,0,0,0,32.92-2.12"/><path class="cls-15" d="M757.29,200a37.86,37.86,0,0,1-32.91-2.11,37.87,37.87,0,0,1-2.12-32.92,37.9,37.9,0,0,0,16.39,18.64A37.94,37.94,0,0,0,757.29,200"/><path class="cls-14" d="M756.06,188.44a37.45,37.45,0,0,1-17.41-4.89,37.38,37.38,0,0,1-4.88-17.41,23.57,23.57,0,0,0,22.29,22.29"/><path class="cls-10" d="M733.77,166.15a37.38,37.38,0,0,0,4.88,17.41,37.9,37.9,0,0,1-16.39-18.64,37.93,37.93,0,0,1,16.39-18.64,37.38,37.38,0,0,0-4.88,17.41c0,.19,0,.38,0,.58s0,.43,0,.65,0,.44,0,.65,0,.39,0,.58"/><path class="cls-12" d="M756.06,141.4a23.56,23.56,0,0,0-22.29,22.29,37.38,37.38,0,0,1,4.88-17.41,37.38,37.38,0,0,1,17.41-4.88"/><path class="cls-16" d="M834.93,130.12a20.77,20.77,0,0,1,8.56,1.64,17.46,17.46,0,0,1,9.66,10.35,20.12,20.12,0,0,1,0,13.63,17.53,17.53,0,0,1-3.59,6A18,18,0,0,1,843.5,166a20.78,20.78,0,0,1-8.56,1.64h-5.42a1.95,1.95,0,0,1-2-2V132.07a1.95,1.95,0,0,1,2-2Zm-2.47,3.9a.93.93,0,0,0-.71.31,1,1,0,0,0-.29.69V162.8a1,1,0,0,0,1,1h2.52a17.4,17.4,0,0,0,6.92-1.26,13.47,13.47,0,0,0,7.66-8.11,16.52,16.52,0,0,0,0-10.92,13.67,13.67,0,0,0-2.83-4.78,14,14,0,0,0-4.83-3.38,17.13,17.13,0,0,0-6.92-1.28Z"/><path class="cls-17" d="M834.93,130.12a20.77,20.77,0,0,1,8.56,1.64,17.46,17.46,0,0,1,9.66,10.35,20.12,20.12,0,0,1,0,13.63,17.53,17.53,0,0,1-3.59,6A18,18,0,0,1,843.5,166a20.78,20.78,0,0,1-8.56,1.64h-5.42a1.95,1.95,0,0,1-2-2V132.07a1.95,1.95,0,0,1,2-2Zm-2.47,3.9a.93.93,0,0,0-.71.31,1,1,0,0,0-.29.69V162.8a1,1,0,0,0,1,1h2.52a17.4,17.4,0,0,0,6.92-1.26,13.47,13.47,0,0,0,7.66-8.11,16.52,16.52,0,0,0,0-10.92,13.67,13.67,0,0,0-2.83-4.78,14,14,0,0,0-4.83-3.38,17.13,17.13,0,0,0-6.92-1.28Z"/><path class="cls-16" d="M859.72,155.38a15.45,15.45,0,0,1,.74-4.95,13.11,13.11,0,0,1,2-3.85,11.94,11.94,0,0,1,4.69-3.64,14.67,14.67,0,0,1,5.92-1.21,14.1,14.1,0,0,1,4.61.74,11.93,11.93,0,0,1,3.69,2,9.3,9.3,0,0,1,2.43,3,7.91,7.91,0,0,1,.88,3.66,8.08,8.08,0,0,1-.86,3.66,8.89,8.89,0,0,1-2.43,3,12,12,0,0,1-3.81,2,15.89,15.89,0,0,1-5,.74,12.34,12.34,0,0,1-3.31-.4,13.73,13.73,0,0,1-2.57-1,10.64,10.64,0,0,1-1.88-1.19,10.52,10.52,0,0,1-1.19-1.09,10.19,10.19,0,0,0,1.09,3.73,8.33,8.33,0,0,0,2.14,2.62,8.89,8.89,0,0,0,2.83,1.52,10.37,10.37,0,0,0,3.21.5,10.07,10.07,0,0,0,4.09-.86,3.28,3.28,0,0,1,.43-.14,1.76,1.76,0,0,1,.43,0,1.95,1.95,0,0,1,2,2,1.86,1.86,0,0,1-.33,1.09,2.07,2.07,0,0,1-.86.71,13.85,13.85,0,0,1-5.71,1.19,14.47,14.47,0,0,1-4.8-.83,12,12,0,0,1-4.23-2.55,13.1,13.1,0,0,1-3-4.28,14.49,14.49,0,0,1-1.17-6M873,145.63a10.52,10.52,0,0,0-2.95.43,10.25,10.25,0,0,0-2.64,1.16,6.94,6.94,0,0,0-1.9,1.74,3.53,3.53,0,0,0-.74,2.14,3.47,3.47,0,0,0,.67,2,7,7,0,0,0,1.78,1.76,9.52,9.52,0,0,0,2.62,1.26,11.3,11.3,0,0,0,6.56,0,8,8,0,0,0,2.43-1.28,5.19,5.19,0,0,0,1.45-1.76,4.36,4.36,0,0,0,.48-1.93,4.23,4.23,0,0,0-.43-1.71A5.4,5.4,0,0,0,879,147.6a7.76,7.76,0,0,0-2.4-1.4,9.9,9.9,0,0,0-3.57-.57"/><path class="cls-17" d="M859.72,155.38a15.45,15.45,0,0,1,.74-4.95,13.11,13.11,0,0,1,2-3.85,11.94,11.94,0,0,1,4.69-3.64,14.67,14.67,0,0,1,5.92-1.21,14.1,14.1,0,0,1,4.61.74,11.93,11.93,0,0,1,3.69,2,9.3,9.3,0,0,1,2.43,3,7.91,7.91,0,0,1,.88,3.66,8.08,8.08,0,0,1-.86,3.66,8.89,8.89,0,0,1-2.43,3,12,12,0,0,1-3.81,2,15.89,15.89,0,0,1-5,.74,12.34,12.34,0,0,1-3.31-.4,13.73,13.73,0,0,1-2.57-1,10.64,10.64,0,0,1-1.88-1.19,10.52,10.52,0,0,1-1.19-1.09,10.19,10.19,0,0,0,1.09,3.73,8.33,8.33,0,0,0,2.14,2.62,8.89,8.89,0,0,0,2.83,1.52,10.37,10.37,0,0,0,3.21.5,10.07,10.07,0,0,0,4.09-.86,3.28,3.28,0,0,1,.43-.14,1.76,1.76,0,0,1,.43,0,1.95,1.95,0,0,1,2,2,1.86,1.86,0,0,1-.33,1.09,2.07,2.07,0,0,1-.86.71,13.85,13.85,0,0,1-5.71,1.19,14.47,14.47,0,0,1-4.8-.83,12,12,0,0,1-4.23-2.55,13.1,13.1,0,0,1-3-4.28A14.49,14.49,0,0,1,859.72,155.38ZM873,145.63a10.52,10.52,0,0,0-2.95.43,10.25,10.25,0,0,0-2.64,1.16,6.94,6.94,0,0,0-1.9,1.74,3.53,3.53,0,0,0-.74,2.14,3.47,3.47,0,0,0,.67,2,7,7,0,0,0,1.78,1.76,9.52,9.52,0,0,0,2.62,1.26,11.3,11.3,0,0,0,6.56,0,8,8,0,0,0,2.43-1.28,5.19,5.19,0,0,0,1.45-1.76,4.36,4.36,0,0,0,.48-1.93,4.23,4.23,0,0,0-.43-1.71A5.4,5.4,0,0,0,879,147.6a7.76,7.76,0,0,0-2.4-1.4A9.9,9.9,0,0,0,873,145.63Z"/><path class="cls-16" d="M908,167.6a1.75,1.75,0,0,1-1.07-.43,1.47,1.47,0,0,1-.55-1.24,1.68,1.68,0,0,1,.29-1L928,134H908.33a1.8,1.8,0,0,1-1.36-.57,1.92,1.92,0,0,1-.55-1.38,1.76,1.76,0,0,1,.55-1.33,1.88,1.88,0,0,1,1.36-.52H931.5a1.68,1.68,0,0,1,1,.29,1.63,1.63,0,0,1,.71,1.38,1.68,1.68,0,0,1-.29,1l-21.36,31h20a1.89,1.89,0,0,1,1.36.52,1.82,1.82,0,0,1,.55,1.38,1.87,1.87,0,0,1-1.9,1.9Z"/><path class="cls-17" d="M908,167.6a1.75,1.75,0,0,1-1.07-.43,1.47,1.47,0,0,1-.55-1.24,1.68,1.68,0,0,1,.29-1L928,134H908.33a1.8,1.8,0,0,1-1.36-.57,1.92,1.92,0,0,1-.55-1.38,1.76,1.76,0,0,1,.55-1.33,1.88,1.88,0,0,1,1.36-.52H931.5a1.68,1.68,0,0,1,1,.29,1.63,1.63,0,0,1,.71,1.38,1.68,1.68,0,0,1-.29,1l-21.36,31h20a1.89,1.89,0,0,1,1.36.52,1.82,1.82,0,0,1,.55,1.38,1.87,1.87,0,0,1-1.9,1.9Z"/><path class="cls-16" d="M951.05,169.08a14.46,14.46,0,0,1-4.8-.83A12,12,0,0,1,942,165.7a13.11,13.11,0,0,1-3-4.28,14.5,14.5,0,0,1-1.17-6,14.77,14.77,0,0,1,1.14-6,12.22,12.22,0,0,1,7.28-6.78,14.46,14.46,0,0,1,4.8-.83,14.6,14.6,0,0,1,4.85.83,12.24,12.24,0,0,1,4.23,2.52,12.56,12.56,0,0,1,3,4.26,16.56,16.56,0,0,1,0,12.08,12.65,12.65,0,0,1-3,4.28,12.28,12.28,0,0,1-4.26,2.55,14.47,14.47,0,0,1-4.8.83m0-3.9a10.7,10.7,0,0,0,3.45-.57,8.25,8.25,0,0,0,3-1.78,8.76,8.76,0,0,0,2.09-3.07,12.6,12.6,0,0,0,0-8.75,8.53,8.53,0,0,0-2.09-3,8.42,8.42,0,0,0-3-1.76,10.7,10.7,0,0,0-6.9,0,8.42,8.42,0,0,0-3,1.76,8.53,8.53,0,0,0-2.09,3,11.17,11.17,0,0,0-.79,4.38,10.86,10.86,0,0,0,.81,4.38,9,9,0,0,0,2.12,3.07,8.27,8.27,0,0,0,3,1.78,10.47,10.47,0,0,0,3.42.57"/><path class="cls-17" d="M951.05,169.08a14.46,14.46,0,0,1-4.8-.83A12,12,0,0,1,942,165.7a13.11,13.11,0,0,1-3-4.28,14.5,14.5,0,0,1-1.17-6,14.77,14.77,0,0,1,1.14-6,12.22,12.22,0,0,1,7.28-6.78,14.46,14.46,0,0,1,4.8-.83,14.6,14.6,0,0,1,4.85.83,12.24,12.24,0,0,1,4.23,2.52,12.56,12.56,0,0,1,3,4.26,16.56,16.56,0,0,1,0,12.08,12.65,12.65,0,0,1-3,4.28,12.28,12.28,0,0,1-4.26,2.55A14.47,14.47,0,0,1,951.05,169.08Zm0-3.9a10.7,10.7,0,0,0,3.45-.57,8.25,8.25,0,0,0,3-1.78,8.76,8.76,0,0,0,2.09-3.07,12.6,12.6,0,0,0,0-8.75,8.53,8.53,0,0,0-2.09-3,8.42,8.42,0,0,0-3-1.76,10.7,10.7,0,0,0-6.9,0,8.42,8.42,0,0,0-3,1.76,8.53,8.53,0,0,0-2.09,3,11.17,11.17,0,0,0-.79,4.38,10.86,10.86,0,0,0,.81,4.38,9,9,0,0,0,2.12,3.07,8.27,8.27,0,0,0,3,1.78A10.47,10.47,0,0,0,951.05,165.18Z"/><path class="cls-16" d="M974.69,166.18a2,2,0,1,1-3.9,0V155.33a14.78,14.78,0,0,1,1.14-6,12.22,12.22,0,0,1,7.28-6.78,14.47,14.47,0,0,1,4.8-.83,14,14,0,0,1,5.8,1.2,2,2,0,0,1,.78.72,2,2,0,0,1-.26,2.45,1.87,1.87,0,0,1-1.38.58,2,2,0,0,1-.81-.15,9.8,9.8,0,0,0-4.14-.9,10.63,10.63,0,0,0-3.47.57,8.3,8.3,0,0,0-5.07,4.8,11.18,11.18,0,0,0-.78,4.38Z"/><path class="cls-17" d="M974.69,166.18a2,2,0,1,1-3.9,0V155.33a14.78,14.78,0,0,1,1.14-6,12.22,12.22,0,0,1,7.28-6.78,14.47,14.47,0,0,1,4.8-.83,14,14,0,0,1,5.8,1.2,2,2,0,0,1,.78.72,2,2,0,0,1-.26,2.45,1.87,1.87,0,0,1-1.38.58,2,2,0,0,1-.81-.15,9.8,9.8,0,0,0-4.14-.9,10.63,10.63,0,0,0-3.47.57,8.3,8.3,0,0,0-5.07,4.8,11.18,11.18,0,0,0-.78,4.38Z"/><path class="cls-16" d="M1008.28,169a14.45,14.45,0,0,1-4.8-.83,12,12,0,0,1-4.23-2.54,13.12,13.12,0,0,1-3-4.28,14.51,14.51,0,0,1-1.16-6,14.8,14.8,0,0,1,1.14-6,12.23,12.23,0,0,1,7.28-6.78,14.45,14.45,0,0,1,4.8-.83,14.61,14.61,0,0,1,4.85.83,12.25,12.25,0,0,1,4.23,2.52,12.57,12.57,0,0,1,3,4.26,14.8,14.8,0,0,1,1.14,6v12a14.8,14.8,0,0,1-1.14,6,12.66,12.66,0,0,1-3,4.28,12.29,12.29,0,0,1-4.26,2.54,14.47,14.47,0,0,1-4.8.83,2,2,0,1,1,0-3.9,10.71,10.71,0,0,0,3.45-.57,8.26,8.26,0,0,0,3-1.78,8.78,8.78,0,0,0,2.09-3.07,11.19,11.19,0,0,0,.78-4.38v-1.9a12.6,12.6,0,0,1-4.33,2.71,14.23,14.23,0,0,1-5,.9m0-3.9a10.71,10.71,0,0,0,3.45-.57,8.25,8.25,0,0,0,3-1.78,8.82,8.82,0,0,0,2.09-3,12.67,12.67,0,0,0,0-8.78,8.52,8.52,0,0,0-2.09-3,8.43,8.43,0,0,0-3-1.76,10.7,10.7,0,0,0-6.9,0,8.4,8.4,0,0,0-3,1.76,8.52,8.52,0,0,0-2.09,3,11.19,11.19,0,0,0-.78,4.38,10.81,10.81,0,0,0,.81,4.4,9.06,9.06,0,0,0,2.12,3,8.26,8.26,0,0,0,3,1.78,10.49,10.49,0,0,0,3.43.57"/><path class="cls-17" d="M1008.28,169a14.45,14.45,0,0,1-4.8-.83,12,12,0,0,1-4.23-2.54,13.12,13.12,0,0,1-3-4.28,14.51,14.51,0,0,1-1.16-6,14.8,14.8,0,0,1,1.14-6,12.23,12.23,0,0,1,7.28-6.78,14.45,14.45,0,0,1,4.8-.83,14.61,14.61,0,0,1,4.85.83,12.25,12.25,0,0,1,4.23,2.52,12.57,12.57,0,0,1,3,4.26,14.8,14.8,0,0,1,1.14,6v12a14.8,14.8,0,0,1-1.14,6,12.66,12.66,0,0,1-3,4.28,12.29,12.29,0,0,1-4.26,2.54,14.47,14.47,0,0,1-4.8.83,2,2,0,1,1,0-3.9,10.71,10.71,0,0,0,3.45-.57,8.26,8.26,0,0,0,3-1.78,8.78,8.78,0,0,0,2.09-3.07,11.19,11.19,0,0,0,.78-4.38v-1.9a12.6,12.6,0,0,1-4.33,2.71A14.23,14.23,0,0,1,1008.28,169Zm0-3.9a10.71,10.71,0,0,0,3.45-.57,8.25,8.25,0,0,0,3-1.78,8.82,8.82,0,0,0,2.09-3,12.67,12.67,0,0,0,0-8.78,8.52,8.52,0,0,0-2.09-3,8.43,8.43,0,0,0-3-1.76,10.7,10.7,0,0,0-6.9,0,8.4,8.4,0,0,0-3,1.76,8.52,8.52,0,0,0-2.09,3,11.19,11.19,0,0,0-.78,4.38,10.81,10.81,0,0,0,.81,4.4,9.06,9.06,0,0,0,2.12,3,8.26,8.26,0,0,0,3,1.78A10.49,10.49,0,0,0,1008.28,165.13Z"/><path class="cls-16" d="M1047.29,142.92a1.8,1.8,0,0,1,1.14,1.76,1.95,1.95,0,0,1-2,2,2,2,0,0,1-.81-.19,10.18,10.18,0,0,0-4.14-.86,10.63,10.63,0,0,0-3.47.57A8.31,8.31,0,0,0,1033,151a12.66,12.66,0,0,0,0,8.78,8.82,8.82,0,0,0,2.09,3,8.26,8.26,0,0,0,3,1.78,10.62,10.62,0,0,0,3.47.57,10.07,10.07,0,0,0,4.09-.86,2.11,2.11,0,0,1,.86-.19,2,2,0,0,1,1.62,3,2.07,2.07,0,0,1-.86.71,13.44,13.44,0,0,1-5.71,1.19,14.45,14.45,0,0,1-4.8-.83,12,12,0,0,1-4.24-2.54,13.09,13.09,0,0,1-3-4.28,14.49,14.49,0,0,1-1.17-6,14.77,14.77,0,0,1,1.14-6,12.22,12.22,0,0,1,7.28-6.78,14.46,14.46,0,0,1,4.8-.83,15.1,15.1,0,0,1,2.92.29,11.63,11.63,0,0,1,2.83,1"/><path class="cls-17" d="M1047.29,142.92a1.8,1.8,0,0,1,1.14,1.76,1.95,1.95,0,0,1-2,2,2,2,0,0,1-.81-.19,10.18,10.18,0,0,0-4.14-.86,10.63,10.63,0,0,0-3.47.57A8.31,8.31,0,0,0,1033,151a12.66,12.66,0,0,0,0,8.78,8.82,8.82,0,0,0,2.09,3,8.26,8.26,0,0,0,3,1.78,10.62,10.62,0,0,0,3.47.57,10.07,10.07,0,0,0,4.09-.86,2.11,2.11,0,0,1,.86-.19,2,2,0,0,1,1.62,3,2.07,2.07,0,0,1-.86.71,13.44,13.44,0,0,1-5.71,1.19,14.45,14.45,0,0,1-4.8-.83,12,12,0,0,1-4.24-2.54,13.09,13.09,0,0,1-3-4.28,14.49,14.49,0,0,1-1.17-6,14.77,14.77,0,0,1,1.14-6,12.22,12.22,0,0,1,7.28-6.78,14.46,14.46,0,0,1,4.8-.83,15.1,15.1,0,0,1,2.92.29A11.63,11.63,0,0,1,1047.29,142.92Z"/><path class="cls-16" d="M1054.14,136.18a2.08,2.08,0,0,1,.48-1.32,2.11,2.11,0,0,1,2.95,0,2.09,2.09,0,0,1,.48,1.32,2,2,0,0,1-.48,1.28,2.11,2.11,0,0,1-2.95,0,2,2,0,0,1-.48-1.28m0,8.35a2,2,0,1,1,3.9,0v12.75a9.23,9.23,0,0,0,1.26,4.64,10.14,10.14,0,0,0,3.31,3.54,1.7,1.7,0,0,1,.69.74,2.13,2.13,0,0,1,.22.93,2,2,0,0,1-.55,1.36,1.77,1.77,0,0,1-1.36.6,2.7,2.7,0,0,1-1.4-.45,8.53,8.53,0,0,1-1.45-1.14,17.15,17.15,0,0,1-2.38-2.88,15.79,15.79,0,0,1-1.62-3.38,11.38,11.38,0,0,1-.62-3.71Z"/><path class="cls-17" d="M1054.14,136.18a2.08,2.08,0,0,1,.48-1.32,2.11,2.11,0,0,1,2.95,0,2.09,2.09,0,0,1,.48,1.32,2,2,0,0,1-.48,1.28,2.11,2.11,0,0,1-2.95,0A2,2,0,0,1,1054.14,136.18Zm0,8.35a2,2,0,1,1,3.9,0v12.75a9.23,9.23,0,0,0,1.26,4.64,10.14,10.14,0,0,0,3.31,3.54,1.7,1.7,0,0,1,.69.74,2.13,2.13,0,0,1,.22.93,2,2,0,0,1-.55,1.36,1.77,1.77,0,0,1-1.36.6,2.7,2.7,0,0,1-1.4-.45,8.53,8.53,0,0,1-1.45-1.14,17.15,17.15,0,0,1-2.38-2.88,15.79,15.79,0,0,1-1.62-3.38,11.38,11.38,0,0,1-.62-3.71Z"/><path class="cls-16" d="M1072.83,166.18a2,2,0,1,1-3.9,0V155.33a14.78,14.78,0,0,1,1.14-6,12.22,12.22,0,0,1,7.28-6.78,14.47,14.47,0,0,1,4.8-.83,14,14,0,0,1,5.8,1.2,2,2,0,0,1,.78.72,2,2,0,0,1-.26,2.45,1.87,1.87,0,0,1-1.38.58,2,2,0,0,1-.81-.15,9.8,9.8,0,0,0-4.14-.9,10.63,10.63,0,0,0-3.47.57,8.29,8.29,0,0,0-5.07,4.8,11.15,11.15,0,0,0-.79,4.38Z"/><path class="cls-17" d="M1072.83,166.18a2,2,0,1,1-3.9,0V155.33a14.78,14.78,0,0,1,1.14-6,12.22,12.22,0,0,1,7.28-6.78,14.47,14.47,0,0,1,4.8-.83,14,14,0,0,1,5.8,1.2,2,2,0,0,1,.78.72,2,2,0,0,1-.26,2.45,1.87,1.87,0,0,1-1.38.58,2,2,0,0,1-.81-.15,9.8,9.8,0,0,0-4.14-.9,10.63,10.63,0,0,0-3.47.57,8.29,8.29,0,0,0-5.07,4.8,11.15,11.15,0,0,0-.79,4.38Z"/><path class="cls-16" d="M1111.41,150.48a14,14,0,0,1,3.64,1.59,11.77,11.77,0,0,1,3,2.71,12.8,12.8,0,0,1,2.07,3.85,15.41,15.41,0,0,1,.76,5v2.52a2,2,0,1,1-3.9,0v-2.52a11.18,11.18,0,0,0-.79-4.38,8.57,8.57,0,0,0-2.09-3,8.44,8.44,0,0,0-3-1.76,10.78,10.78,0,0,0-6.92,0,8.45,8.45,0,0,0-3,1.76,8.55,8.55,0,0,0-2.09,3,11.18,11.18,0,0,0-.78,4.38v2.52a2,2,0,1,1-3.9,0V131.64a2,2,0,1,1,3.9,0v19.55a1.18,1.18,0,0,0,.33.83,1.12,1.12,0,0,0,.86.36,1.27,1.27,0,0,0,.62-.24,17.68,17.68,0,0,1,4-1.71,1.94,1.94,0,0,0,1.14-.76l5-7.23a1.86,1.86,0,0,1,1.62-.81,1.82,1.82,0,0,1,1.4.59,1.87,1.87,0,0,1,.17,2.45l-2.71,4a1.36,1.36,0,0,0-.24.71,1,1,0,0,0,.86,1.09"/><path class="cls-17" d="M1111.41,150.48a14,14,0,0,1,3.64,1.59,11.77,11.77,0,0,1,3,2.71,12.8,12.8,0,0,1,2.07,3.85,15.41,15.41,0,0,1,.76,5v2.52a2,2,0,1,1-3.9,0v-2.52a11.18,11.18,0,0,0-.79-4.38,8.57,8.57,0,0,0-2.09-3,8.44,8.44,0,0,0-3-1.76,10.78,10.78,0,0,0-6.92,0,8.45,8.45,0,0,0-3,1.76,8.55,8.55,0,0,0-2.09,3,11.18,11.18,0,0,0-.78,4.38v2.52a2,2,0,1,1-3.9,0V131.64a2,2,0,1,1,3.9,0v19.55a1.18,1.18,0,0,0,.33.83,1.12,1.12,0,0,0,.86.36,1.27,1.27,0,0,0,.62-.24,17.68,17.68,0,0,1,4-1.71,1.94,1.94,0,0,0,1.14-.76l5-7.23a1.86,1.86,0,0,1,1.62-.81,1.82,1.82,0,0,1,1.4.59,1.87,1.87,0,0,1,.17,2.45l-2.71,4a1.36,1.36,0,0,0-.24.71A1,1,0,0,0,1111.41,150.48Z"/><path class="cls-16" d="M1126.54,155.38a15.44,15.44,0,0,1,.74-4.95,13.08,13.08,0,0,1,2-3.85,11.93,11.93,0,0,1,4.68-3.64,14.67,14.67,0,0,1,5.92-1.21,14.1,14.1,0,0,1,4.61.74,11.93,11.93,0,0,1,3.69,2,9.27,9.27,0,0,1,2.43,3,7.89,7.89,0,0,1,.88,3.66,8.07,8.07,0,0,1-.86,3.66,8.88,8.88,0,0,1-2.43,3,12,12,0,0,1-3.81,2,15.89,15.89,0,0,1-5,.74,12.33,12.33,0,0,1-3.31-.4,13.75,13.75,0,0,1-2.57-1,10.74,10.74,0,0,1-3.07-2.28,10.23,10.23,0,0,0,1.09,3.73,8.34,8.34,0,0,0,2.14,2.62,8.88,8.88,0,0,0,2.83,1.52,10.37,10.37,0,0,0,3.21.5,10.06,10.06,0,0,0,4.09-.86,3.27,3.27,0,0,1,.43-.14,1.76,1.76,0,0,1,.43,0,1.95,1.95,0,0,1,1.95,2,1.86,1.86,0,0,1-.33,1.09,2.07,2.07,0,0,1-.86.71,13.86,13.86,0,0,1-5.71,1.19,14.48,14.48,0,0,1-4.8-.83,12,12,0,0,1-4.23-2.55,13.1,13.1,0,0,1-3-4.28,14.5,14.5,0,0,1-1.16-6m13.32-9.75a10.53,10.53,0,0,0-2.95.43,10.25,10.25,0,0,0-2.64,1.16,7,7,0,0,0-1.9,1.74,3.53,3.53,0,0,0-.74,2.14,3.46,3.46,0,0,0,.67,2,7,7,0,0,0,1.78,1.76,9.51,9.51,0,0,0,2.62,1.26,11.3,11.3,0,0,0,6.57,0,8,8,0,0,0,2.43-1.28,5.2,5.2,0,0,0,1.45-1.76,4.37,4.37,0,0,0,.47-1.93,4.22,4.22,0,0,0-.43-1.71,5.38,5.38,0,0,0-1.35-1.78,7.75,7.75,0,0,0-2.4-1.4,9.91,9.91,0,0,0-3.57-.57"/><path class="cls-17" d="M1126.54,155.38a15.44,15.44,0,0,1,.74-4.95,13.08,13.08,0,0,1,2-3.85,11.93,11.93,0,0,1,4.68-3.64,14.67,14.67,0,0,1,5.92-1.21,14.1,14.1,0,0,1,4.61.74,11.93,11.93,0,0,1,3.69,2,9.27,9.27,0,0,1,2.43,3,7.89,7.89,0,0,1,.88,3.66,8.07,8.07,0,0,1-.86,3.66,8.88,8.88,0,0,1-2.43,3,12,12,0,0,1-3.81,2,15.89,15.89,0,0,1-5,.74,12.33,12.33,0,0,1-3.31-.4,13.75,13.75,0,0,1-2.57-1,10.74,10.74,0,0,1-3.07-2.28,10.23,10.23,0,0,0,1.09,3.73,8.34,8.34,0,0,0,2.14,2.62,8.88,8.88,0,0,0,2.83,1.52,10.37,10.37,0,0,0,3.21.5,10.06,10.06,0,0,0,4.09-.86,3.27,3.27,0,0,1,.43-.14,1.76,1.76,0,0,1,.43,0,1.95,1.95,0,0,1,1.95,2,1.86,1.86,0,0,1-.33,1.09,2.07,2.07,0,0,1-.86.71,13.86,13.86,0,0,1-5.71,1.19,14.48,14.48,0,0,1-4.8-.83,12,12,0,0,1-4.23-2.55,13.1,13.1,0,0,1-3-4.28A14.5,14.5,0,0,1,1126.54,155.38Zm13.32-9.75a10.53,10.53,0,0,0-2.95.43,10.25,10.25,0,0,0-2.64,1.16,7,7,0,0,0-1.9,1.74,3.53,3.53,0,0,0-.74,2.14,3.46,3.46,0,0,0,.67,2,7,7,0,0,0,1.78,1.76,9.51,9.51,0,0,0,2.62,1.26,11.3,11.3,0,0,0,6.57,0,8,8,0,0,0,2.43-1.28,5.2,5.2,0,0,0,1.45-1.76,4.37,4.37,0,0,0,.47-1.93,4.22,4.22,0,0,0-.43-1.71,5.38,5.38,0,0,0-1.35-1.78,7.75,7.75,0,0,0-2.4-1.4A9.91,9.91,0,0,0,1139.86,145.63Z"/><path class="cls-16" d="M1158,131.69a2,2,0,0,1,3.9,0v23.69a10.89,10.89,0,0,0,.81,4.38,9,9,0,0,0,2.12,3.07,8.26,8.26,0,0,0,3,1.78,10.47,10.47,0,0,0,3.42.57,2,2,0,1,1,0,3.9,14.47,14.47,0,0,1-4.8-.83,12,12,0,0,1-4.23-2.55,13.09,13.09,0,0,1-3-4.28,14.5,14.5,0,0,1-1.17-6Z"/><path class="cls-17" d="M1158,131.69a2,2,0,0,1,3.9,0v23.69a10.89,10.89,0,0,0,.81,4.38,9,9,0,0,0,2.12,3.07,8.26,8.26,0,0,0,3,1.78,10.47,10.47,0,0,0,3.42.57,2,2,0,1,1,0,3.9,14.47,14.47,0,0,1-4.8-.83,12,12,0,0,1-4.23-2.55,13.09,13.09,0,0,1-3-4.28,14.5,14.5,0,0,1-1.17-6Z"/><path class="cls-16" d="M833.15,188.85l4.6,11.1h-.86l-1.34-3.24h-5.83l-1.33,3.24h-.87l4.6-11.1Zm-.64,1.08Q830,196,830,196h5.29l-2.51-6.11a2.53,2.53,0,0,1-.14-.54Z"/><path class="cls-17" d="M833.15,188.85l4.6,11.1h-.86l-1.34-3.24h-5.83l-1.33,3.24h-.87l4.6-11.1Zm-.64,1.08Q830,196,830,196h5.29l-2.51-6.11a2.53,2.53,0,0,1-.14-.54Z"/><path class="cls-16" d="M846.84,188.85l4.6,11.1h-.86l-1.34-3.24h-5.83l-1.33,3.24h-.87l4.6-11.1Zm-.64,1.08Q843.7,196,843.69,196H849l-2.51-6.11a2.53,2.53,0,0,1-.14-.54Z"/><path class="cls-17" d="M846.84,188.85l4.6,11.1h-.86l-1.34-3.24h-5.83l-1.33,3.24h-.87l4.6-11.1Zm-.64,1.08Q843.7,196,843.69,196H849l-2.51-6.11a2.53,2.53,0,0,1-.14-.54Z"/><path class="cls-16" d="M856.09,188.85l6.83,9.7a2.22,2.22,0,0,1,.22.53V188.85h.77v11.1h-1l-6.61-9.44a2.44,2.44,0,0,1-.23-.53v10h-.77v-11.1Z"/><path class="cls-17" d="M856.09,188.85l6.83,9.7a2.22,2.22,0,0,1,.22.53V188.85h.77v11.1h-1l-6.61-9.44a2.44,2.44,0,0,1-.23-.53v10h-.77v-11.1Z"/><path class="cls-16" d="M876.38,189.43a5,5,0,0,1,2,2h-.86a4.54,4.54,0,0,0-.57-.7,5.16,5.16,0,0,0-6.79,0,5.53,5.53,0,0,0,0,7.29,5.16,5.16,0,0,0,6.79,0,4.45,4.45,0,0,0,.8-1.07v-1.71h-3v-.65h3.74V200h-.76v-2.12a1.6,1.6,0,0,1-.45.87,5.44,5.44,0,0,1-3.74,1.37,5.78,5.78,0,0,1-2.15-.4,5.34,5.34,0,0,1-1.76-1.13,5.18,5.18,0,0,1-1.19-1.8,6.59,6.59,0,0,1,0-4.72,5.19,5.19,0,0,1,1.19-1.8,5.36,5.36,0,0,1,1.76-1.13,5.79,5.79,0,0,1,2.15-.4,5.68,5.68,0,0,1,2.84.72"/><path class="cls-17" d="M876.38,189.43a5,5,0,0,1,2,2h-.86a4.54,4.54,0,0,0-.57-.7,5.16,5.16,0,0,0-6.79,0,5.53,5.53,0,0,0,0,7.29,5.16,5.16,0,0,0,6.79,0,4.45,4.45,0,0,0,.8-1.07v-1.71h-3v-.65h3.74V200h-.76v-2.12a1.6,1.6,0,0,1-.45.87,5.44,5.44,0,0,1-3.74,1.37,5.78,5.78,0,0,1-2.15-.4,5.34,5.34,0,0,1-1.76-1.13,5.18,5.18,0,0,1-1.19-1.8,6.59,6.59,0,0,1,0-4.72,5.19,5.19,0,0,1,1.19-1.8,5.36,5.36,0,0,1,1.76-1.13,5.79,5.79,0,0,1,2.15-.4A5.68,5.68,0,0,1,876.38,189.43Z"/><polygon class="cls-16" points="889.59 188.85 889.59 189.53 883.45 189.53 883.45 194 888.92 194 888.92 194.65 883.45 194.65 883.45 199.22 889.59 199.22 889.59 199.95 882.68 199.95 882.68 188.85 889.59 188.85"/><polygon class="cls-17" points="889.59 188.85 889.59 189.53 883.45 189.53 883.45 194 888.92 194 888.92 194.65 883.45 194.65 883.45 199.22 889.59 199.22 889.59 199.95 882.68 199.95 882.68 188.85 889.59 188.85"/><path class="cls-16" d="M897.63,188.85a3.5,3.5,0,0,1,2.57.95,3.2,3.2,0,0,1,1,2.37,3.16,3.16,0,0,1-1,2.36,3.51,3.51,0,0,1-2.54,1h-3v4.46h-.8v-11.1Zm-3,5.91h3a2.93,2.93,0,0,0,2-.75,2.54,2.54,0,0,0,0-3.69,2.88,2.88,0,0,0-2-.74h-3Z"/><path class="cls-17" d="M897.63,188.85a3.5,3.5,0,0,1,2.57.95,3.2,3.2,0,0,1,1,2.37,3.16,3.16,0,0,1-1,2.36,3.51,3.51,0,0,1-2.54,1h-3v4.46h-.8v-11.1Zm-3,5.91h3a2.93,2.93,0,0,0,2-.75,2.54,2.54,0,0,0,0-3.69,2.88,2.88,0,0,0-2-.74h-3Z"/><path class="cls-16" d="M909.19,188.85l4.6,11.1h-.86l-1.34-3.24h-5.83l-1.33,3.24h-.87l4.6-11.1Zm-.64,1.08Q906,196,906,196h5.29l-2.51-6.11a2.5,2.5,0,0,1-.14-.54Z"/><path class="cls-17" d="M909.19,188.85l4.6,11.1h-.86l-1.34-3.24h-5.83l-1.33,3.24h-.87l4.6-11.1Zm-.64,1.08Q906,196,906,196h5.29l-2.51-6.11a2.5,2.5,0,0,1-.14-.54Z"/><path class="cls-16" d="M923.46,189a5.83,5.83,0,0,1,1.7.76l-.37.63a5.11,5.11,0,0,0-1.52-.7,6.08,6.08,0,0,0-2-.3,3.4,3.4,0,0,0-2,.62,1.84,1.84,0,0,0-.79,1.48,1.69,1.69,0,0,0,1,1.63,10,10,0,0,0,2.39.64,12.09,12.09,0,0,1,2.38.59,2.79,2.79,0,0,1,1.44,1.26,2.55,2.55,0,0,1,.24,1.86,2.88,2.88,0,0,1-1.56,2,5.75,5.75,0,0,1-2.48.54,8.21,8.21,0,0,1-2.45-.36,5.91,5.91,0,0,1-2-1l.36-.68a4.72,4.72,0,0,0,1.67.88,7.23,7.23,0,0,0,2.42.36,4.33,4.33,0,0,0,2.22-.48,2.3,2.3,0,0,0,.67-.65,2.11,2.11,0,0,0,.36-.87A2,2,0,0,0,925,196a1.9,1.9,0,0,0-1-.88,13.56,13.56,0,0,0-2.36-.61,12,12,0,0,1-2.47-.68,2.25,2.25,0,0,1-1.07-.93,2.39,2.39,0,0,1-.31-1.4,2.65,2.65,0,0,1,1-2,4.16,4.16,0,0,1,2.5-.79,6.6,6.6,0,0,1,2.23.33"/><path class="cls-17" d="M923.46,189a5.83,5.83,0,0,1,1.7.76l-.37.63a5.11,5.11,0,0,0-1.52-.7,6.08,6.08,0,0,0-2-.3,3.4,3.4,0,0,0-2,.62,1.84,1.84,0,0,0-.79,1.48,1.69,1.69,0,0,0,1,1.63,10,10,0,0,0,2.39.64,12.09,12.09,0,0,1,2.38.59,2.79,2.79,0,0,1,1.44,1.26,2.55,2.55,0,0,1,.24,1.86,2.88,2.88,0,0,1-1.56,2,5.75,5.75,0,0,1-2.48.54,8.21,8.21,0,0,1-2.45-.36,5.91,5.91,0,0,1-2-1l.36-.68a4.72,4.72,0,0,0,1.67.88,7.23,7.23,0,0,0,2.42.36,4.33,4.33,0,0,0,2.22-.48,2.3,2.3,0,0,0,.67-.65,2.11,2.11,0,0,0,.36-.87A2,2,0,0,0,925,196a1.9,1.9,0,0,0-1-.88,13.56,13.56,0,0,0-2.36-.61,12,12,0,0,1-2.47-.68,2.25,2.25,0,0,1-1.07-.93,2.39,2.39,0,0,1-.31-1.4,2.65,2.65,0,0,1,1-2,4.16,4.16,0,0,1,2.5-.79A6.6,6.6,0,0,1,923.46,189Z"/><polygon class="cls-16" points="938.52 188.85 938.52 189.53 934.6 189.53 934.6 199.95 933.83 199.95 933.83 189.53 929.93 189.53 929.93 188.85 938.52 188.85"/><polygon class="cls-17" points="938.52 188.85 938.52 189.53 934.6 189.53 934.6 199.95 933.83 199.95 933.83 189.53 929.93 189.53 929.93 188.85 938.52 188.85"/><polygon class="cls-16" points="949.41 188.85 949.41 189.53 943.27 189.53 943.27 194 948.74 194 948.74 194.65 943.27 194.65 943.27 199.22 949.41 199.22 949.41 199.95 942.5 199.95 942.5 188.85 949.41 188.85"/><polygon class="cls-17" points="949.41 188.85 949.41 189.53 943.27 189.53 943.27 194 948.74 194 948.74 194.65 943.27 194.65 943.27 199.22 949.41 199.22 949.41 199.95 942.5 199.95 942.5 188.85 949.41 188.85"/><path class="cls-16" d="M961.48,199.4q.12,0,7.3-9.5a1.45,1.45,0,0,1,.53-.33h-7.4v-.73h8.17v.76q-.12,0-7,9.28a1.34,1.34,0,0,1-.53.34h7.57v.73h-8.59Z"/><path class="cls-17" d="M961.48,199.4q.12,0,7.3-9.5a1.45,1.45,0,0,1,.53-.33h-7.4v-.73h8.17v.76q-.12,0-7,9.28a1.34,1.34,0,0,1-.53.34h7.57v.73h-8.59Z"/><path class="cls-16" d="M983.4,190.24a5.18,5.18,0,0,1,1.19,1.8,6.59,6.59,0,0,1,0,4.72,5.17,5.17,0,0,1-1.19,1.8,5.34,5.34,0,0,1-1.76,1.13,6,6,0,0,1-4.3,0,5.34,5.34,0,0,1-1.76-1.13,5.17,5.17,0,0,1-1.19-1.8,6.58,6.58,0,0,1,0-4.72,5.18,5.18,0,0,1,1.19-1.8,5.36,5.36,0,0,1,1.76-1.13,6,6,0,0,1,4.3,0,5.35,5.35,0,0,1,1.76,1.13m-3.91-.76a4.66,4.66,0,0,0-3.4,1.27,5.56,5.56,0,0,0,0,7.29,5.18,5.18,0,0,0,6.8,0,5.53,5.53,0,0,0,0-7.29,4.67,4.67,0,0,0-3.4-1.27"/><path class="cls-17" d="M983.4,190.24a5.18,5.18,0,0,1,1.19,1.8,6.59,6.59,0,0,1,0,4.72,5.17,5.17,0,0,1-1.19,1.8,5.34,5.34,0,0,1-1.76,1.13,6,6,0,0,1-4.3,0,5.34,5.34,0,0,1-1.76-1.13,5.17,5.17,0,0,1-1.19-1.8,6.58,6.58,0,0,1,0-4.72,5.18,5.18,0,0,1,1.19-1.8,5.36,5.36,0,0,1,1.76-1.13,6,6,0,0,1,4.3,0A5.35,5.35,0,0,1,983.4,190.24Zm-3.91-.76a4.66,4.66,0,0,0-3.4,1.27,5.56,5.56,0,0,0,0,7.29,5.18,5.18,0,0,0,6.8,0,5.53,5.53,0,0,0,0-7.29A4.67,4.67,0,0,0,979.49,189.48Z"/><path class="cls-16" d="M993,188.85a3.76,3.76,0,0,1,2.59.84,3.1,3.1,0,0,1,.28,4.15,3.28,3.28,0,0,1-1.8,1.07l1.25,2.53,1.24,2.51h-.85l-1-2.06-1.4-2.86h-3.35v4.91h-.8v-11.1Zm-3,5.47h3a3.13,3.13,0,0,0,2.06-.65,2.14,2.14,0,0,0,.78-1.73,2.1,2.1,0,0,0-.78-1.72,3.16,3.16,0,0,0-2.06-.64h-3Z"/><path class="cls-17" d="M993,188.85a3.76,3.76,0,0,1,2.59.84,3.1,3.1,0,0,1,.28,4.15,3.28,3.28,0,0,1-1.8,1.07l1.25,2.53,1.24,2.51h-.85l-1-2.06-1.4-2.86h-3.35v4.91h-.8v-11.1Zm-3,5.47h3a3.13,3.13,0,0,0,2.06-.65,2.14,2.14,0,0,0,.78-1.73,2.1,2.1,0,0,0-.78-1.72,3.16,3.16,0,0,0-2.06-.64h-3Z"/><path class="cls-16" d="M1008.78,189.43a5,5,0,0,1,2,2h-.86a4.56,4.56,0,0,0-.57-.7,5.16,5.16,0,0,0-6.79,0,5.53,5.53,0,0,0,0,7.29,5.16,5.16,0,0,0,6.79,0,4.47,4.47,0,0,0,.8-1.07v-1.71h-3v-.65h3.74V200h-.76v-2.12a1.61,1.61,0,0,1-.45.87,5.45,5.45,0,0,1-3.74,1.37,5.77,5.77,0,0,1-2.15-.4,5.33,5.33,0,0,1-1.76-1.13,5.15,5.15,0,0,1-1.19-1.8,6.58,6.58,0,0,1,0-4.72,5.16,5.16,0,0,1,1.19-1.8,5.34,5.34,0,0,1,1.76-1.13,5.78,5.78,0,0,1,2.15-.4,5.68,5.68,0,0,1,2.84.72"/><path class="cls-17" d="M1008.78,189.43a5,5,0,0,1,2,2h-.86a4.56,4.56,0,0,0-.57-.7,5.16,5.16,0,0,0-6.79,0,5.53,5.53,0,0,0,0,7.29,5.16,5.16,0,0,0,6.79,0,4.47,4.47,0,0,0,.8-1.07v-1.71h-3v-.65h3.74V200h-.76v-2.12a1.61,1.61,0,0,1-.45.87,5.45,5.45,0,0,1-3.74,1.37,5.77,5.77,0,0,1-2.15-.4,5.33,5.33,0,0,1-1.76-1.13,5.15,5.15,0,0,1-1.19-1.8,6.58,6.58,0,0,1,0-4.72,5.16,5.16,0,0,1,1.19-1.8,5.34,5.34,0,0,1,1.76-1.13,5.78,5.78,0,0,1,2.15-.4A5.68,5.68,0,0,1,1008.78,189.43Z"/><rect class="cls-16" x="1023.28" y="188.85" width="0.76" height="11.1"/><rect class="cls-17" x="1023.28" y="188.85" width="0.76" height="11.1"/><path class="cls-16" d="M1029.21,188.85l6.83,9.7a2.23,2.23,0,0,1,.22.53V188.85h.77v11.1h-1l-6.61-9.44a2.45,2.45,0,0,1-.23-.53v10h-.77v-11.1Z"/><path class="cls-17" d="M1029.21,188.85l6.83,9.7a2.23,2.23,0,0,1,.22.53V188.85h.77v11.1h-1l-6.61-9.44a2.45,2.45,0,0,1-.23-.53v10h-.77v-11.1Z"/><path class="cls-16" d="M1055.17,188.85v7.85a3.87,3.87,0,0,1-.28,1.53,2.62,2.62,0,0,1-.77,1.06,3.53,3.53,0,0,1-1.08.59,4,4,0,0,1-1.27.2,3.7,3.7,0,0,1-2.65-1l.35-.61a3.17,3.17,0,0,0,2.25.9,2.61,2.61,0,0,0,2-.75,2.78,2.78,0,0,0,.7-2q0-2.74,0-7.78Z"/><path class="cls-17" d="M1055.17,188.85v7.85a3.87,3.87,0,0,1-.28,1.53,2.62,2.62,0,0,1-.77,1.06,3.53,3.53,0,0,1-1.08.59,4,4,0,0,1-1.27.2,3.7,3.7,0,0,1-2.65-1l.35-.61a3.17,3.17,0,0,0,2.25.9,2.61,2.61,0,0,0,2-.75,2.78,2.78,0,0,0,.7-2q0-2.74,0-7.78Z"/><path class="cls-16" d="M1068.61,190.24a5.16,5.16,0,0,1,1.19,1.8,6.57,6.57,0,0,1,0,4.72,5.15,5.15,0,0,1-1.19,1.8,5.34,5.34,0,0,1-1.76,1.13,6,6,0,0,1-4.3,0,5.34,5.34,0,0,1-1.76-1.13,5.15,5.15,0,0,1-1.19-1.8,6.59,6.59,0,0,1,0-4.72,5.16,5.16,0,0,1,1.19-1.8,5.35,5.35,0,0,1,1.76-1.13,6,6,0,0,1,4.3,0,5.35,5.35,0,0,1,1.76,1.13m-3.91-.76a4.66,4.66,0,0,0-3.4,1.27,5.56,5.56,0,0,0,0,7.29,5.18,5.18,0,0,0,6.8,0,5.53,5.53,0,0,0,0-7.29,4.66,4.66,0,0,0-3.4-1.27"/><path class="cls-17" d="M1068.61,190.24a5.16,5.16,0,0,1,1.19,1.8,6.57,6.57,0,0,1,0,4.72,5.15,5.15,0,0,1-1.19,1.8,5.34,5.34,0,0,1-1.76,1.13,6,6,0,0,1-4.3,0,5.34,5.34,0,0,1-1.76-1.13,5.15,5.15,0,0,1-1.19-1.8,6.59,6.59,0,0,1,0-4.72,5.16,5.16,0,0,1,1.19-1.8,5.35,5.35,0,0,1,1.76-1.13,6,6,0,0,1,4.3,0A5.35,5.35,0,0,1,1068.61,190.24Zm-3.91-.76a4.66,4.66,0,0,0-3.4,1.27,5.56,5.56,0,0,0,0,7.29,5.18,5.18,0,0,0,6.8,0,5.53,5.53,0,0,0,0-7.29A4.66,4.66,0,0,0,1064.69,189.48Z"/><path class="cls-16" d="M1074.78,188.85v6.4a4.08,4.08,0,0,0,1.08,2.89,3.61,3.61,0,0,0,5.31,0,4.08,4.08,0,0,0,1.08-2.89v-6.4h.78v6.51a4.65,4.65,0,0,1-1.31,3.38,4.49,4.49,0,0,1-6.41,0,4.65,4.65,0,0,1-1.31-3.38v-6.51Z"/><path class="cls-17" d="M1074.78,188.85v6.4a4.08,4.08,0,0,0,1.08,2.89,3.61,3.61,0,0,0,5.31,0,4.08,4.08,0,0,0,1.08-2.89v-6.4h.78v6.51a4.65,4.65,0,0,1-1.31,3.38,4.49,4.49,0,0,1-6.41,0,4.65,4.65,0,0,1-1.31-3.38v-6.51Z"/><path class="cls-16" d="M1087.52,188.85l3.58,10.34v-.12a2.55,2.55,0,0,1,0-.29,2.13,2.13,0,0,1,.06-.26l3.32-9.68h1l3.32,9.66a3.35,3.35,0,0,1,.12.68l3.58-10.34h.92l-3.92,11.1h-1l-3.4-9.73a3.13,3.13,0,0,1-.12-.55l-.12.54q-3.39,9.73-3.4,9.74h-1l-3.92-11.1Z"/><path class="cls-17" d="M1087.52,188.85l3.58,10.34v-.12a2.55,2.55,0,0,1,0-.29,2.13,2.13,0,0,1,.06-.26l3.32-9.68h1l3.32,9.66a3.35,3.35,0,0,1,.12.68l3.58-10.34h.92l-3.92,11.1h-1l-3.4-9.73a3.13,3.13,0,0,1-.12-.55l-.12.54q-3.39,9.73-3.4,9.74h-1l-3.92-11.1Z"/><path class="cls-16" d="M1119.93,188.85a3.19,3.19,0,0,1,2.26.79,2.64,2.64,0,0,1,.86,2,2.6,2.6,0,0,1-.43,1.44,2.51,2.51,0,0,1-1.11,1,3,3,0,0,1,2,2.83,3,3,0,0,1-.84,2.16,3,3,0,0,1-2.28.88h-4.86v-11.1Zm-3.6,5H1120a2.3,2.3,0,0,0,1.69-.61,2.11,2.11,0,0,0,.61-1.57,1.94,1.94,0,0,0-.64-1.52,2.5,2.5,0,0,0-1.74-.57h-3.57Zm0,5.37h4.14a2.18,2.18,0,0,0,1.72-.66,2.59,2.59,0,0,0-.06-3.36,2.3,2.3,0,0,0-1.77-.7h-4Z"/><path class="cls-17" d="M1119.93,188.85a3.19,3.19,0,0,1,2.26.79,2.64,2.64,0,0,1,.86,2,2.6,2.6,0,0,1-.43,1.44,2.51,2.51,0,0,1-1.11,1,3,3,0,0,1,2,2.83,3,3,0,0,1-.84,2.16,3,3,0,0,1-2.28.88h-4.86v-11.1Zm-3.6,5H1120a2.3,2.3,0,0,0,1.69-.61,2.11,2.11,0,0,0,.61-1.57,1.94,1.94,0,0,0-.64-1.52,2.5,2.5,0,0,0-1.74-.57h-3.57Zm0,5.37h4.14a2.18,2.18,0,0,0,1.72-.66,2.59,2.59,0,0,0-.06-3.36,2.3,2.3,0,0,0-1.77-.7h-4Z"/><path class="cls-16" d="M1128.09,188.85v6.4a4.08,4.08,0,0,0,1.08,2.89,3.61,3.61,0,0,0,5.31,0,4.08,4.08,0,0,0,1.08-2.89v-6.4h.78v6.51a4.65,4.65,0,0,1-1.31,3.38,4.49,4.49,0,0,1-6.41,0,4.65,4.65,0,0,1-1.31-3.38v-6.51Z"/><path class="cls-17" d="M1128.09,188.85v6.4a4.08,4.08,0,0,0,1.08,2.89,3.61,3.61,0,0,0,5.31,0,4.08,4.08,0,0,0,1.08-2.89v-6.4h.78v6.51a4.65,4.65,0,0,1-1.31,3.38,4.49,4.49,0,0,1-6.41,0,4.65,4.65,0,0,1-1.31-3.38v-6.51Z"/><path class="cls-16" d="M1140.8,188.85v6.4a4.08,4.08,0,0,0,1.08,2.89,3.61,3.61,0,0,0,5.31,0,4.08,4.08,0,0,0,1.08-2.89v-6.4h.78v6.51a4.65,4.65,0,0,1-1.31,3.38,4.49,4.49,0,0,1-6.41,0,4.65,4.65,0,0,1-1.31-3.38v-6.51Z"/><path class="cls-17" d="M1140.8,188.85v6.4a4.08,4.08,0,0,0,1.08,2.89,3.61,3.61,0,0,0,5.31,0,4.08,4.08,0,0,0,1.08-2.89v-6.4h.78v6.51a4.65,4.65,0,0,1-1.31,3.38,4.49,4.49,0,0,1-6.41,0,4.65,4.65,0,0,1-1.31-3.38v-6.51Z"/><path class="cls-16" d="M1156.88,188.85a3.76,3.76,0,0,1,2.59.84,3.1,3.1,0,0,1,.28,4.15,3.29,3.29,0,0,1-1.8,1.07l1.25,2.53,1.24,2.51h-.85l-1-2.06-1.4-2.86h-3.35v4.91h-.8v-11.1Zm-3,5.47h3a3.13,3.13,0,0,0,2.06-.65,2.13,2.13,0,0,0,.78-1.73,2.1,2.1,0,0,0-.78-1.72,3.16,3.16,0,0,0-2.06-.64h-3Z"/><path class="cls-17" d="M1156.88,188.85a3.76,3.76,0,0,1,2.59.84,3.1,3.1,0,0,1,.28,4.15,3.29,3.29,0,0,1-1.8,1.07l1.25,2.53,1.24,2.51h-.85l-1-2.06-1.4-2.86h-3.35v4.91h-.8v-11.1Zm-3,5.47h3a3.13,3.13,0,0,0,2.06-.65,2.13,2.13,0,0,0,.78-1.73,2.1,2.1,0,0,0-.78-1.72,3.16,3.16,0,0,0-2.06-.64h-3Z"/><polygon class="cls-16" points="1172.81 188.85 1172.81 189.53 1168.89 189.53 1168.89 199.95 1168.12 199.95 1168.12 189.53 1164.22 189.53 1164.22 188.85 1172.81 188.85"/><polygon class="cls-17" points="1172.81 188.85 1172.81 189.53 1168.89 189.53 1168.89 199.95 1168.12 199.95 1168.12 189.53 1164.22 189.53 1164.22 188.85 1172.81 188.85"/></g></g><text class="cls-18" transform="translate(884.31 292.96)">150mm</text><polyline class="cls-19" points="702 229 702 252 1172 252 1172 229"/></svg>